%TF.GenerationSoftware,KiCad,Pcbnew,9.0.1*%
%TF.CreationDate,2025-10-23T13:46:40-06:00*%
%TF.ProjectId,lasertagpcb,6c617365-7274-4616-9770-63622e6b6963,rev?*%
%TF.SameCoordinates,Original*%
%TF.FileFunction,Legend,Bot*%
%TF.FilePolarity,Positive*%
%FSLAX46Y46*%
G04 Gerber Fmt 4.6, Leading zero omitted, Abs format (unit mm)*
G04 Created by KiCad (PCBNEW 9.0.1) date 2025-10-23 13:46:40*
%MOMM*%
%LPD*%
G01*
G04 APERTURE LIST*
%ADD10C,0.100000*%
%ADD11C,0.150000*%
%ADD12C,0.120000*%
G04 APERTURE END LIST*
D10*
X160970000Y-81250000D02*
X160973141Y-81243467D01*
X160976286Y-81236974D01*
X160979398Y-81230594D01*
X160982514Y-81224254D01*
X160985597Y-81218025D01*
X160988683Y-81211835D01*
X160991737Y-81205755D01*
X160994794Y-81199713D01*
X160997819Y-81193779D01*
X161000848Y-81187883D01*
X161003845Y-81182092D01*
X161006844Y-81176340D01*
X161009813Y-81170690D01*
X161012785Y-81165079D01*
X161015726Y-81159568D01*
X161018669Y-81154096D01*
X161021582Y-81148722D01*
X161024498Y-81143385D01*
X161027384Y-81138146D01*
X161030272Y-81132944D01*
X161033130Y-81127836D01*
X161035991Y-81122766D01*
X161038822Y-81117789D01*
X161041656Y-81112848D01*
X161044461Y-81107998D01*
X161047268Y-81103185D01*
X161050046Y-81098461D01*
X161052826Y-81093773D01*
X161055578Y-81089173D01*
X161058332Y-81084608D01*
X161061058Y-81080129D01*
X161063785Y-81075685D01*
X161066485Y-81071325D01*
X161069187Y-81067000D01*
X161071861Y-81062757D01*
X161074537Y-81058549D01*
X161077186Y-81054421D01*
X161079836Y-81050328D01*
X161082460Y-81046313D01*
X161085085Y-81042333D01*
X161087684Y-81038429D01*
X161090284Y-81034560D01*
X161092858Y-81030765D01*
X161095434Y-81027004D01*
X161097983Y-81023317D01*
X161100534Y-81019663D01*
X161103059Y-81016081D01*
X161105585Y-81012532D01*
X161108086Y-81009053D01*
X161110589Y-81005607D01*
X161113066Y-81002230D01*
X161115545Y-80998885D01*
X161117998Y-80995607D01*
X161120453Y-80992361D01*
X161122884Y-80989181D01*
X161125315Y-80986032D01*
X161127722Y-80982948D01*
X161130131Y-80979895D01*
X161132515Y-80976905D01*
X161134900Y-80973946D01*
X161137262Y-80971048D01*
X161139625Y-80968181D01*
X161141964Y-80965374D01*
X161144304Y-80962597D01*
X161146621Y-80959878D01*
X161148940Y-80957190D01*
X161151235Y-80954558D01*
X161153531Y-80951957D01*
X161155805Y-80949411D01*
X161158079Y-80946894D01*
X161160331Y-80944432D01*
X161162585Y-80941999D01*
X161164816Y-80939619D01*
X161167048Y-80937267D01*
X161169258Y-80934968D01*
X161171469Y-80932697D01*
X161173659Y-80930476D01*
X161175849Y-80928283D01*
X161178019Y-80926140D01*
X161180189Y-80924024D01*
X161182338Y-80921957D01*
X161184488Y-80919917D01*
X161186618Y-80917924D01*
X161188748Y-80915958D01*
X161190858Y-80914037D01*
X161192969Y-80912143D01*
X161195060Y-80910294D01*
X161197152Y-80908472D01*
X161199224Y-80906692D01*
X161201297Y-80904939D01*
X161203350Y-80903229D01*
X161205405Y-80901544D01*
X161207440Y-80899900D01*
X161209476Y-80898282D01*
X161211493Y-80896704D01*
X161213511Y-80895151D01*
X161215511Y-80893637D01*
X161217511Y-80892149D01*
X161219494Y-80890698D01*
X161221477Y-80889272D01*
X161223443Y-80887883D01*
X161225409Y-80886519D01*
X161227358Y-80885191D01*
X161229307Y-80883887D01*
X161231240Y-80882618D01*
X161233173Y-80881373D01*
X161235090Y-80880162D01*
X161237008Y-80878975D01*
X161238909Y-80877821D01*
X161240811Y-80876690D01*
X161242697Y-80875592D01*
X161244584Y-80874517D01*
X161246455Y-80873474D01*
X161248327Y-80872453D01*
X161250184Y-80871464D01*
X161252041Y-80870497D01*
X161253885Y-80869560D01*
X161255728Y-80868645D01*
X161257558Y-80867760D01*
X161259387Y-80866897D01*
X161261204Y-80866062D01*
X161263020Y-80865250D01*
X161264824Y-80864465D01*
X161266628Y-80863702D01*
X161268419Y-80862966D01*
X161270210Y-80862252D01*
X161271990Y-80861564D01*
X161273769Y-80860897D01*
X161275537Y-80860257D01*
X161277305Y-80859637D01*
X161279062Y-80859043D01*
X161280819Y-80858470D01*
X161282565Y-80857921D01*
X161284311Y-80857394D01*
X161286047Y-80856890D01*
X161287784Y-80856408D01*
X161289510Y-80855949D01*
X161291237Y-80855510D01*
X161292954Y-80855095D01*
X161294671Y-80854700D01*
X161296380Y-80854328D01*
X161298088Y-80853977D01*
X161299788Y-80853647D01*
X161301489Y-80853338D01*
X161303181Y-80853051D01*
X161304874Y-80852784D01*
X161306559Y-80852539D01*
X161308244Y-80852314D01*
X161309922Y-80852110D01*
X161311601Y-80851926D01*
X161313273Y-80851763D01*
X161314945Y-80851620D01*
X161316611Y-80851498D01*
X161318277Y-80851396D01*
X161319938Y-80851314D01*
X161321599Y-80851252D01*
X161323255Y-80851211D01*
X161324911Y-80851190D01*
X161326563Y-80851188D01*
X161328214Y-80851207D01*
X161329862Y-80851246D01*
X161331510Y-80851305D01*
X161333154Y-80851383D01*
X161334799Y-80851482D01*
X161336441Y-80851601D01*
X161338082Y-80851740D01*
X161339721Y-80851898D01*
X161341361Y-80852077D01*
X161342998Y-80852276D01*
X161344635Y-80852495D01*
X161346271Y-80852734D01*
X161347907Y-80852993D01*
X161349542Y-80853272D01*
X161351177Y-80853572D01*
X161352811Y-80853891D01*
X161354445Y-80854232D01*
X161356080Y-80854592D01*
X161357714Y-80854974D01*
X161359349Y-80855376D01*
X161360984Y-80855798D01*
X161364255Y-80856706D01*
X161367529Y-80857697D01*
X161370806Y-80858773D01*
X161374088Y-80859936D01*
X161377375Y-80861185D01*
X161380667Y-80862522D01*
X161383967Y-80863949D01*
X161387274Y-80865466D01*
X161390589Y-80867076D01*
X161393913Y-80868779D01*
X161397246Y-80870577D01*
X161400590Y-80872472D01*
X161403944Y-80874466D01*
X161407310Y-80876559D01*
X161410689Y-80878755D01*
X161414079Y-80881055D01*
X161417484Y-80883461D01*
X161420901Y-80885976D01*
X161424333Y-80888600D01*
X161427780Y-80891337D01*
X161431242Y-80894188D01*
X161434719Y-80897157D01*
X161438213Y-80900244D01*
X161441723Y-80903454D01*
X161445249Y-80906788D01*
X161448793Y-80910248D01*
X161452354Y-80913838D01*
X161455933Y-80917560D01*
X161459529Y-80921417D01*
X161463144Y-80925411D01*
X161466778Y-80929546D01*
X161470430Y-80933823D01*
X161474101Y-80938247D01*
X161477791Y-80942819D01*
X161481501Y-80947544D01*
X161485229Y-80952423D01*
X161488978Y-80957461D01*
X161492746Y-80962659D01*
X161496534Y-80968022D01*
X161500342Y-80973553D01*
X161504169Y-80979254D01*
X161508017Y-80985130D01*
X161511885Y-80991183D01*
X161515773Y-80997416D01*
X161519681Y-81003835D01*
X161523609Y-81010440D01*
X161527558Y-81017237D01*
X161531526Y-81024229D01*
X161535515Y-81031420D01*
X161539523Y-81038812D01*
X161543552Y-81046410D01*
X161547601Y-81054217D01*
X161551669Y-81062237D01*
X161555758Y-81070475D01*
X161559866Y-81078933D01*
X161563994Y-81087615D01*
X161568141Y-81096526D01*
X161572308Y-81105670D01*
X161576494Y-81115049D01*
X161580699Y-81124669D01*
X161584923Y-81134534D01*
X161589167Y-81144647D01*
X161593429Y-81155012D01*
X161597709Y-81165634D01*
X161602008Y-81176517D01*
X161606326Y-81187666D01*
X161610661Y-81199083D01*
X161615014Y-81210774D01*
X161619385Y-81222744D01*
X161623773Y-81234995D01*
X161628179Y-81247533D01*
X161632602Y-81260363D01*
X161637041Y-81273488D01*
X161641498Y-81286913D01*
X161645970Y-81300643D01*
X161650459Y-81314683D01*
X161654964Y-81329036D01*
X161659484Y-81343707D01*
X161664020Y-81358702D01*
X161668571Y-81374024D01*
X161673137Y-81389679D01*
X161677717Y-81405672D01*
X161682312Y-81422007D01*
X161686921Y-81438688D01*
X161690000Y-81450000D01*
X162810000Y-84480000D02*
X162813468Y-84482069D01*
X162816926Y-84484109D01*
X162820345Y-84486102D01*
X162823753Y-84488066D01*
X162827125Y-84489986D01*
X162830486Y-84491877D01*
X162833811Y-84493724D01*
X162837126Y-84495543D01*
X162840406Y-84497319D01*
X162843676Y-84499068D01*
X162846912Y-84500776D01*
X162850138Y-84502455D01*
X162853331Y-84504095D01*
X162856515Y-84505708D01*
X162859667Y-84507282D01*
X162862810Y-84508829D01*
X162865921Y-84510338D01*
X162869024Y-84511820D01*
X162872096Y-84513266D01*
X162875159Y-84514686D01*
X162878193Y-84516070D01*
X162881218Y-84517427D01*
X162884215Y-84518750D01*
X162887204Y-84520048D01*
X162890164Y-84521311D01*
X162893117Y-84522550D01*
X162896042Y-84523755D01*
X162898960Y-84524935D01*
X162901851Y-84526083D01*
X162904735Y-84527207D01*
X162907593Y-84528298D01*
X162910444Y-84529366D01*
X162913270Y-84530403D01*
X162916089Y-84531416D01*
X162918883Y-84532399D01*
X162921671Y-84533358D01*
X162924435Y-84534288D01*
X162927192Y-84535195D01*
X162929927Y-84536073D01*
X162932655Y-84536928D01*
X162935361Y-84537755D01*
X162938061Y-84538559D01*
X162940739Y-84539335D01*
X162943411Y-84540089D01*
X162946062Y-84540817D01*
X162948707Y-84541522D01*
X162951332Y-84542201D01*
X162953951Y-84542857D01*
X162956551Y-84543488D01*
X162959145Y-84544097D01*
X162961720Y-84544682D01*
X162964290Y-84545244D01*
X162966841Y-84545782D01*
X162969387Y-84546298D01*
X162971916Y-84546790D01*
X162974439Y-84547261D01*
X162976945Y-84547708D01*
X162979446Y-84548134D01*
X162981931Y-84548537D01*
X162984411Y-84548919D01*
X162986875Y-84549278D01*
X162989334Y-84549616D01*
X162991778Y-84549932D01*
X162994218Y-84550227D01*
X162996642Y-84550500D01*
X162999062Y-84550752D01*
X163001469Y-84550983D01*
X163003870Y-84551193D01*
X163006259Y-84551382D01*
X163008643Y-84551551D01*
X163011014Y-84551698D01*
X163013381Y-84551826D01*
X163015736Y-84551932D01*
X163018086Y-84552019D01*
X163020425Y-84552085D01*
X163022760Y-84552130D01*
X163025084Y-84552156D01*
X163027404Y-84552161D01*
X163029713Y-84552147D01*
X163032019Y-84552112D01*
X163034314Y-84552058D01*
X163036606Y-84551983D01*
X163038889Y-84551889D01*
X163041167Y-84551775D01*
X163043437Y-84551641D01*
X163045703Y-84551488D01*
X163047961Y-84551315D01*
X163050216Y-84551122D01*
X163052462Y-84550910D01*
X163054705Y-84550678D01*
X163056942Y-84550427D01*
X163059174Y-84550156D01*
X163061400Y-84549866D01*
X163063623Y-84549555D01*
X163065840Y-84549226D01*
X163068053Y-84548877D01*
X163070261Y-84548508D01*
X163072465Y-84548120D01*
X163074665Y-84547712D01*
X163076861Y-84547284D01*
X163079053Y-84546837D01*
X163081241Y-84546371D01*
X163085608Y-84545378D01*
X163089961Y-84544306D01*
X163094303Y-84543155D01*
X163098634Y-84541924D01*
X163102955Y-84540612D01*
X163107267Y-84539219D01*
X163111573Y-84537745D01*
X163115871Y-84536188D01*
X163120164Y-84534548D01*
X163124453Y-84532824D01*
X163128739Y-84531015D01*
X163133022Y-84529120D01*
X163137304Y-84527138D01*
X163141585Y-84525067D01*
X163145868Y-84522908D01*
X163150151Y-84520658D01*
X163154437Y-84518316D01*
X163158727Y-84515882D01*
X163163021Y-84513352D01*
X163167321Y-84510726D01*
X163171627Y-84508003D01*
X163175940Y-84505180D01*
X163180260Y-84502256D01*
X163184590Y-84499229D01*
X163188930Y-84496098D01*
X163193281Y-84492860D01*
X163197643Y-84489513D01*
X163202018Y-84486056D01*
X163206406Y-84482486D01*
X163210808Y-84478802D01*
X163215226Y-84474999D01*
X163219659Y-84471078D01*
X163224110Y-84467034D01*
X163228578Y-84462866D01*
X163233065Y-84458571D01*
X163237571Y-84454146D01*
X163242098Y-84449589D01*
X163246646Y-84444897D01*
X163251216Y-84440066D01*
X163255809Y-84435095D01*
X163260427Y-84429979D01*
X163265069Y-84424716D01*
X163269737Y-84419302D01*
X163274433Y-84413734D01*
X163279156Y-84408009D01*
X163283908Y-84402122D01*
X163288690Y-84396071D01*
X163293503Y-84389852D01*
X163298348Y-84383460D01*
X163303226Y-84376892D01*
X163308138Y-84370143D01*
X163313085Y-84363209D01*
X163318069Y-84356087D01*
X163323091Y-84348770D01*
X163328152Y-84341255D01*
X163333253Y-84333536D01*
X163338396Y-84325609D01*
X163343582Y-84317469D01*
X163348812Y-84309109D01*
X163354088Y-84300525D01*
X163359411Y-84291711D01*
X163364784Y-84282661D01*
X163370207Y-84273368D01*
X163375682Y-84263827D01*
X163381212Y-84254030D01*
X163386797Y-84243971D01*
X163392441Y-84233643D01*
X163398144Y-84223038D01*
X163403909Y-84212149D01*
X163409739Y-84200966D01*
X163415635Y-84189483D01*
X163421600Y-84177690D01*
X163427636Y-84165579D01*
X163433747Y-84153139D01*
X163439934Y-84140360D01*
X163446202Y-84127233D01*
X163452552Y-84113746D01*
X163458989Y-84099888D01*
X163465515Y-84085646D01*
X163472135Y-84071008D01*
X163478852Y-84055961D01*
X163485671Y-84040491D01*
X163492595Y-84024581D01*
X163499630Y-84008218D01*
X163506780Y-83991384D01*
X163514050Y-83974061D01*
X163521447Y-83956231D01*
X163528976Y-83937873D01*
X163536643Y-83918966D01*
X163544457Y-83899488D01*
X163552423Y-83879412D01*
X163560550Y-83858714D01*
X163568847Y-83837365D01*
X163577324Y-83815333D01*
X163585990Y-83792587D01*
X163594857Y-83769088D01*
X163603937Y-83744798D01*
X163613244Y-83719674D01*
X163622792Y-83693668D01*
X163632598Y-83666728D01*
X163642681Y-83638795D01*
X163653061Y-83609804D01*
X163663761Y-83579682D01*
X163674808Y-83548347D01*
X163686230Y-83515704D01*
X163698064Y-83481648D01*
X163710348Y-83446052D01*
X163723129Y-83408772D01*
X163736463Y-83369634D01*
X163750417Y-83328432D01*
X163760000Y-83300000D01*
X156750000Y-83780000D02*
X156761239Y-83771192D01*
X156772501Y-83762265D01*
X156783790Y-83753215D01*
X156795106Y-83744041D01*
X156806451Y-83734741D01*
X156817828Y-83725312D01*
X156829239Y-83715753D01*
X156840685Y-83706059D01*
X156852170Y-83696229D01*
X156863696Y-83686259D01*
X156875266Y-83676146D01*
X156886883Y-83665886D01*
X156898550Y-83655476D01*
X156910271Y-83644911D01*
X156922050Y-83634188D01*
X156933890Y-83623300D01*
X156945798Y-83612244D01*
X156957778Y-83601012D01*
X156969835Y-83589598D01*
X156981977Y-83577997D01*
X156994209Y-83566198D01*
X157006540Y-83554195D01*
X157018978Y-83541976D01*
X157031535Y-83529530D01*
X157044220Y-83516846D01*
X157057047Y-83503908D01*
X157070030Y-83490700D01*
X157083188Y-83477202D01*
X157096540Y-83463391D01*
X157110112Y-83449241D01*
X157123932Y-83434718D01*
X157138036Y-83419783D01*
X157152468Y-83404386D01*
X157167287Y-83388462D01*
X157182565Y-83371930D01*
X157198403Y-83354678D01*
X157214941Y-83336549D01*
X157232388Y-83317310D01*
X157251080Y-83296585D01*
X157271621Y-83273697D01*
X157295343Y-83247159D01*
X157322965Y-83216176D01*
X157339966Y-83197103D01*
X157356734Y-83178313D01*
X157373275Y-83159824D01*
X157389592Y-83141655D01*
X157405692Y-83123823D01*
X157413661Y-83115039D01*
X157421577Y-83106347D01*
X157429440Y-83097748D01*
X157437252Y-83089245D01*
X157445013Y-83080840D01*
X157452723Y-83072535D01*
X157460383Y-83064332D01*
X157467993Y-83056235D01*
X157475554Y-83048244D01*
X157483067Y-83040363D01*
X157490531Y-83032593D01*
X157497949Y-83024937D01*
X157505319Y-83017396D01*
X157512644Y-83009975D01*
X157519922Y-83002673D01*
X157527156Y-82995495D01*
X157534345Y-82988442D01*
X157541490Y-82981516D01*
X157548592Y-82974719D01*
X157555651Y-82968055D01*
X157562667Y-82961525D01*
X157569642Y-82955131D01*
X157576575Y-82948875D01*
X157583468Y-82942761D01*
X157586900Y-82939757D01*
X157590321Y-82936790D01*
X157593733Y-82933858D01*
X157597134Y-82930964D01*
X157600526Y-82928106D01*
X157603909Y-82925285D01*
X157607281Y-82922502D01*
X157610645Y-82919757D01*
X157613998Y-82917050D01*
X157617343Y-82914381D01*
X157620678Y-82911751D01*
X157624004Y-82909160D01*
X157627320Y-82906607D01*
X157630628Y-82904095D01*
X157633926Y-82901622D01*
X157637216Y-82899189D01*
X157640496Y-82896796D01*
X157643768Y-82894444D01*
X157647031Y-82892133D01*
X157650286Y-82889863D01*
X157653531Y-82887635D01*
X157656768Y-82885448D01*
X157659997Y-82883303D01*
X157663217Y-82881200D01*
X157666429Y-82879141D01*
X157669633Y-82877123D01*
X157672829Y-82875149D01*
X157676016Y-82873219D01*
X157679195Y-82871332D01*
X157682367Y-82869489D01*
X157685530Y-82867691D01*
X157688686Y-82865936D01*
X157691833Y-82864227D01*
X157694973Y-82862563D01*
X157698106Y-82860944D01*
X157701231Y-82859371D01*
X157704348Y-82857844D01*
X157707458Y-82856363D01*
X157710561Y-82854929D01*
X157713656Y-82853542D01*
X157716744Y-82852201D01*
X157719825Y-82850908D01*
X157722899Y-82849663D01*
X157725966Y-82848465D01*
X157729026Y-82847316D01*
X157732079Y-82846215D01*
X157735125Y-82845163D01*
X157738164Y-82844160D01*
X157741197Y-82843207D01*
X157744224Y-82842303D01*
X157747243Y-82841449D01*
X157750257Y-82840645D01*
X157753264Y-82839892D01*
X157756264Y-82839189D01*
X157759259Y-82838538D01*
X157762247Y-82837937D01*
X157765229Y-82837389D01*
X157768205Y-82836892D01*
X157771175Y-82836448D01*
X157774139Y-82836056D01*
X157777098Y-82835716D01*
X157780050Y-82835430D01*
X157782997Y-82835197D01*
X157785939Y-82835018D01*
X157788875Y-82834892D01*
X157791805Y-82834821D01*
X157794730Y-82834804D01*
X157797650Y-82834841D01*
X157800564Y-82834934D01*
X157803473Y-82835082D01*
X157806378Y-82835286D01*
X157809277Y-82835545D01*
X157812171Y-82835861D01*
X157815060Y-82836233D01*
X157817944Y-82836661D01*
X157820824Y-82837147D01*
X157823699Y-82837690D01*
X157826569Y-82838290D01*
X157829435Y-82838949D01*
X157832296Y-82839665D01*
X157835153Y-82840440D01*
X157838005Y-82841273D01*
X157840853Y-82842166D01*
X157843697Y-82843117D01*
X157846537Y-82844128D01*
X157849373Y-82845199D01*
X157852204Y-82846330D01*
X157855032Y-82847522D01*
X157857856Y-82848774D01*
X157860676Y-82850087D01*
X157863493Y-82851461D01*
X157866306Y-82852896D01*
X157869115Y-82854394D01*
X157871921Y-82855953D01*
X157874723Y-82857575D01*
X157877522Y-82859260D01*
X157880317Y-82861007D01*
X157883110Y-82862818D01*
X157885899Y-82864692D01*
X157888685Y-82866629D01*
X157891468Y-82868631D01*
X157894249Y-82870697D01*
X157897026Y-82872828D01*
X157899800Y-82875024D01*
X157902572Y-82877284D01*
X157905341Y-82879611D01*
X157908108Y-82882003D01*
X157910872Y-82884461D01*
X157913633Y-82886985D01*
X157916392Y-82889576D01*
X157919149Y-82892234D01*
X157921904Y-82894958D01*
X157924656Y-82897751D01*
X157927406Y-82900611D01*
X157930155Y-82903539D01*
X157932901Y-82906535D01*
X157935645Y-82909600D01*
X157938388Y-82912733D01*
X157941129Y-82915936D01*
X157943868Y-82919208D01*
X157946605Y-82922550D01*
X157949341Y-82925962D01*
X157952076Y-82929444D01*
X157954809Y-82932997D01*
X157957540Y-82936620D01*
X157960271Y-82940315D01*
X157963000Y-82944081D01*
X157965728Y-82947918D01*
X157968455Y-82951828D01*
X157971181Y-82955810D01*
X157973906Y-82959864D01*
X157976631Y-82963991D01*
X157979354Y-82968191D01*
X157982077Y-82972465D01*
X157984799Y-82976812D01*
X157987521Y-82981233D01*
X157990242Y-82985728D01*
X157992963Y-82990298D01*
X157995683Y-82994942D01*
X157998403Y-82999662D01*
X158001123Y-83004457D01*
X158003843Y-83009327D01*
X158006562Y-83014274D01*
X158009282Y-83019296D01*
X158012002Y-83024396D01*
X158014721Y-83029571D01*
X158017441Y-83034824D01*
X158020162Y-83040154D01*
X158022882Y-83045562D01*
X158025603Y-83051048D01*
X158028325Y-83056612D01*
X158031047Y-83062254D01*
X158033770Y-83067975D01*
X158036493Y-83073775D01*
X158039217Y-83079654D01*
X158041942Y-83085613D01*
X158044668Y-83091652D01*
X158047395Y-83097770D01*
X158050123Y-83103970D01*
X158052852Y-83110250D01*
X158055582Y-83116611D01*
X158058313Y-83123053D01*
X158061046Y-83129576D01*
X158063780Y-83136182D01*
X158066516Y-83142870D01*
X158069253Y-83149640D01*
X158071992Y-83156493D01*
X158074732Y-83163428D01*
X158077474Y-83170447D01*
X158080218Y-83177550D01*
X158082964Y-83184736D01*
X158085712Y-83192007D01*
X158088462Y-83199361D01*
X158091214Y-83206801D01*
X158093968Y-83214325D01*
X158096724Y-83221935D01*
X158099483Y-83229630D01*
X158102244Y-83237411D01*
X158105007Y-83245278D01*
X158107773Y-83253231D01*
X158110542Y-83261271D01*
X158113313Y-83269398D01*
X158116087Y-83277612D01*
X158118864Y-83285913D01*
X158121643Y-83294303D01*
X158124426Y-83302780D01*
X158127211Y-83311346D01*
X158130000Y-83320000D01*
X162220000Y-83200000D02*
X162224793Y-83211505D01*
X162229524Y-83222910D01*
X162238841Y-83245529D01*
X162247955Y-83267863D01*
X162256870Y-83289916D01*
X162265588Y-83311694D01*
X162274113Y-83333203D01*
X162282449Y-83354449D01*
X162290599Y-83375438D01*
X162298568Y-83396176D01*
X162306357Y-83416669D01*
X162313973Y-83436926D01*
X162321418Y-83456954D01*
X162328696Y-83476759D01*
X162335812Y-83496351D01*
X162342770Y-83515739D01*
X162349575Y-83534932D01*
X162356230Y-83553941D01*
X162362742Y-83572777D01*
X162369116Y-83591452D01*
X162375356Y-83609982D01*
X162381470Y-83628382D01*
X162387465Y-83646670D01*
X162393347Y-83664866D01*
X162399124Y-83682994D01*
X162404808Y-83701084D01*
X162410409Y-83719170D01*
X162415939Y-83737294D01*
X162421417Y-83755510D01*
X162426863Y-83773886D01*
X162432303Y-83792517D01*
X162437776Y-83811533D01*
X162443336Y-83831130D01*
X162449073Y-83851621D01*
X162455144Y-83873581D01*
X162461902Y-83898293D01*
X162469113Y-83924845D01*
X162474932Y-83946279D01*
X162480567Y-83966904D01*
X162483330Y-83976930D01*
X162486066Y-83986775D01*
X162488781Y-83996445D01*
X162491481Y-84005946D01*
X162494172Y-84015286D01*
X162496860Y-84024472D01*
X162499551Y-84033510D01*
X162502253Y-84042407D01*
X162504970Y-84051170D01*
X162507709Y-84059806D01*
X162510477Y-84068322D01*
X162513279Y-84076724D01*
X162516122Y-84085019D01*
X162519012Y-84093214D01*
X162520477Y-84097277D01*
X162521955Y-84101316D01*
X162523449Y-84105335D01*
X162524958Y-84109332D01*
X162526483Y-84113310D01*
X162528026Y-84117268D01*
X162529586Y-84121209D01*
X162531165Y-84125132D01*
X162532764Y-84129039D01*
X162534383Y-84132930D01*
X162536023Y-84136806D01*
X162537685Y-84140668D01*
X162539369Y-84144517D01*
X162541077Y-84148354D01*
X162542809Y-84152180D01*
X162544566Y-84155995D01*
X162546348Y-84159801D01*
X162548157Y-84163598D01*
X162549994Y-84167386D01*
X162551858Y-84171168D01*
X162553751Y-84174943D01*
X162555674Y-84178713D01*
X162557627Y-84182479D01*
X162559611Y-84186241D01*
X162561627Y-84190000D01*
X162563676Y-84193756D01*
X162565758Y-84197512D01*
X162567874Y-84201268D01*
X162570026Y-84205024D01*
X162572213Y-84208781D01*
X162574436Y-84212541D01*
X162576697Y-84216304D01*
X162578997Y-84220071D01*
X162581335Y-84223842D01*
X162583712Y-84227620D01*
X162586130Y-84231404D01*
X162588590Y-84235195D01*
X162591091Y-84238994D01*
X162593635Y-84242803D01*
X162596223Y-84246621D01*
X162598854Y-84250451D01*
X162601531Y-84254292D01*
X162604254Y-84258145D01*
X162607024Y-84262012D01*
X162609841Y-84265893D01*
X162612706Y-84269789D01*
X162615620Y-84273700D01*
X162618583Y-84277629D01*
X162621598Y-84281575D01*
X162624663Y-84285540D01*
X162627781Y-84289524D01*
X162630951Y-84293528D01*
X162634175Y-84297553D01*
X162637454Y-84301600D01*
X162640787Y-84305670D01*
X162644177Y-84309763D01*
X162647623Y-84313881D01*
X162651127Y-84318024D01*
X162654689Y-84322193D01*
X162658310Y-84326389D01*
X162661991Y-84330613D01*
X162665733Y-84334865D01*
X162669535Y-84339147D01*
X162673400Y-84343460D01*
X162677328Y-84347804D01*
X162681320Y-84352179D01*
X162685376Y-84356588D01*
X162689497Y-84361031D01*
X162693685Y-84365508D01*
X162697939Y-84370020D01*
X162702261Y-84374569D01*
X162706651Y-84379155D01*
X162711110Y-84383779D01*
X162715639Y-84388443D01*
X162720239Y-84393145D01*
X162724910Y-84397889D01*
X162729654Y-84402674D01*
X162734470Y-84407501D01*
X162739360Y-84412371D01*
X162744325Y-84417285D01*
X162749365Y-84422245D01*
X162754481Y-84427250D01*
X162759674Y-84432301D01*
X162764945Y-84437400D01*
X162775723Y-84447743D01*
X162786820Y-84458287D01*
X162798244Y-84469037D01*
X162810000Y-84480000D01*
X159020000Y-84540000D02*
X159031421Y-84532958D01*
X159042968Y-84525801D01*
X159051001Y-84520794D01*
X159059094Y-84515721D01*
X159066102Y-84511304D01*
X159073154Y-84506832D01*
X159079580Y-84502732D01*
X159086042Y-84498584D01*
X159092077Y-84494685D01*
X159098143Y-84490741D01*
X159103891Y-84486978D01*
X159109666Y-84483173D01*
X159115193Y-84479506D01*
X159120745Y-84475798D01*
X159126094Y-84472201D01*
X159131467Y-84468563D01*
X159136670Y-84465014D01*
X159141896Y-84461426D01*
X159146978Y-84457912D01*
X159152080Y-84454358D01*
X159157058Y-84450866D01*
X159162055Y-84447335D01*
X159166944Y-84443856D01*
X159171851Y-84440339D01*
X159176663Y-84436866D01*
X159181492Y-84433354D01*
X159186236Y-84429880D01*
X159190996Y-84426368D01*
X159195680Y-84422887D01*
X159200380Y-84419369D01*
X159205011Y-84415877D01*
X159209657Y-84412348D01*
X159214242Y-84408841D01*
X159218840Y-84405296D01*
X159223383Y-84401771D01*
X159227939Y-84398208D01*
X159232444Y-84394660D01*
X159236962Y-84391075D01*
X159241433Y-84387502D01*
X159245918Y-84383893D01*
X159250359Y-84380292D01*
X159254813Y-84376655D01*
X159259226Y-84373025D01*
X159263653Y-84369358D01*
X159268042Y-84365695D01*
X159272444Y-84361996D01*
X159276812Y-84358299D01*
X159281192Y-84354565D01*
X159285540Y-84350832D01*
X159289900Y-84347062D01*
X159294230Y-84343291D01*
X159298572Y-84339482D01*
X159302887Y-84335671D01*
X159307213Y-84331823D01*
X159311514Y-84327971D01*
X159315826Y-84324081D01*
X159320114Y-84320185D01*
X159324414Y-84316253D01*
X159328691Y-84312312D01*
X159332980Y-84308335D01*
X159337248Y-84304349D01*
X159341526Y-84300325D01*
X159345786Y-84296292D01*
X159350056Y-84292221D01*
X159354308Y-84288138D01*
X159358571Y-84284018D01*
X159362818Y-84279886D01*
X159367074Y-84275716D01*
X159371315Y-84271532D01*
X159375567Y-84267311D01*
X159379804Y-84263075D01*
X159384051Y-84258800D01*
X159388285Y-84254511D01*
X159392529Y-84250182D01*
X159396761Y-84245837D01*
X159401002Y-84241454D01*
X159405232Y-84237053D01*
X159409472Y-84232613D01*
X159413701Y-84228155D01*
X159417940Y-84223658D01*
X159422169Y-84219141D01*
X159426407Y-84214585D01*
X159430637Y-84210009D01*
X159434876Y-84205393D01*
X159439107Y-84200757D01*
X159443347Y-84196080D01*
X159447579Y-84191382D01*
X159451821Y-84186643D01*
X159456056Y-84181882D01*
X159460300Y-84177081D01*
X159464538Y-84172256D01*
X159468785Y-84167390D01*
X159473027Y-84162500D01*
X159477277Y-84157569D01*
X159481522Y-84152613D01*
X159485777Y-84147616D01*
X159490026Y-84142593D01*
X159494285Y-84137528D01*
X159498540Y-84132437D01*
X159502803Y-84127304D01*
X159507063Y-84122144D01*
X159511332Y-84116941D01*
X159515598Y-84111711D01*
X159519872Y-84106438D01*
X159524144Y-84101136D01*
X159528425Y-84095791D01*
X159532703Y-84090417D01*
X159536990Y-84085000D01*
X159541276Y-84079553D01*
X159545569Y-84074062D01*
X159549862Y-84068540D01*
X159554163Y-84062975D01*
X159558464Y-84057378D01*
X159562772Y-84051737D01*
X159567081Y-84046063D01*
X159571397Y-84040345D01*
X159575714Y-84034594D01*
X159580039Y-84028799D01*
X159584364Y-84022969D01*
X159588698Y-84017095D01*
X159593032Y-84011186D01*
X159597374Y-84005231D01*
X159601717Y-83999242D01*
X159606069Y-83993206D01*
X159610422Y-83987135D01*
X159614783Y-83981018D01*
X159619145Y-83974864D01*
X159623516Y-83968664D01*
X159627888Y-83962426D01*
X159632269Y-83956142D01*
X159636652Y-83949819D01*
X159641043Y-83943450D01*
X159645436Y-83937042D01*
X159649838Y-83930586D01*
X159654242Y-83924091D01*
X159658654Y-83917549D01*
X159663069Y-83910966D01*
X159667492Y-83904335D01*
X159671918Y-83897663D01*
X159676353Y-83890942D01*
X159680790Y-83884180D01*
X159685236Y-83877370D01*
X159689685Y-83870517D01*
X159694143Y-83863614D01*
X159698604Y-83856669D01*
X159703073Y-83849674D01*
X159707546Y-83842636D01*
X159712028Y-83835548D01*
X159716513Y-83828415D01*
X159721007Y-83821232D01*
X159725505Y-83814004D01*
X159730011Y-83806725D01*
X159734521Y-83799401D01*
X159739040Y-83792025D01*
X159743563Y-83784603D01*
X159748095Y-83777130D01*
X159752631Y-83769609D01*
X159757175Y-83762037D01*
X159761725Y-83754416D01*
X159766282Y-83746744D01*
X159770845Y-83739022D01*
X159775416Y-83731249D01*
X159779992Y-83723426D01*
X159784577Y-83715549D01*
X159789167Y-83707623D01*
X159793765Y-83699644D01*
X159798369Y-83691614D01*
X159802980Y-83683529D01*
X159807598Y-83675394D01*
X159812224Y-83667204D01*
X159816856Y-83658963D01*
X159821496Y-83650666D01*
X159826142Y-83642317D01*
X159830796Y-83633912D01*
X159835456Y-83625455D01*
X159840125Y-83616941D01*
X159844800Y-83608374D01*
X159849483Y-83599750D01*
X159854173Y-83591072D01*
X159858870Y-83582337D01*
X159863575Y-83573546D01*
X159868287Y-83564699D01*
X159873007Y-83555796D01*
X159877734Y-83546835D01*
X159882469Y-83537817D01*
X159887211Y-83528741D01*
X159891961Y-83519608D01*
X159896719Y-83510416D01*
X159901484Y-83501167D01*
X159906257Y-83491858D01*
X159911037Y-83482490D01*
X159915826Y-83473064D01*
X159920622Y-83463577D01*
X159925426Y-83454031D01*
X159930237Y-83444424D01*
X159935057Y-83434758D01*
X159939885Y-83425030D01*
X159944720Y-83415241D01*
X159949563Y-83405391D01*
X159954414Y-83395479D01*
X159959274Y-83385505D01*
X159964141Y-83375470D01*
X159969016Y-83365371D01*
X159973900Y-83355210D01*
X159978791Y-83344985D01*
X159983691Y-83334698D01*
X159988599Y-83324346D01*
X159993514Y-83313931D01*
X159998439Y-83303450D01*
X160003371Y-83292907D01*
X160008312Y-83282296D01*
X160013260Y-83271622D01*
X160018218Y-83260881D01*
X160023183Y-83250076D01*
X160028157Y-83239203D01*
X160033139Y-83228265D01*
X160038130Y-83217258D01*
X160043128Y-83206187D01*
X160048136Y-83195046D01*
X160053151Y-83183839D01*
X160058176Y-83172562D01*
X160063208Y-83161219D01*
X160068250Y-83149805D01*
X160073300Y-83138325D01*
X160078358Y-83126773D01*
X160083425Y-83115154D01*
X160090000Y-83100000D01*
X164620000Y-83140000D02*
X164634637Y-83173159D01*
X164650396Y-83209045D01*
X164668299Y-83249987D01*
X164685076Y-83288448D01*
X164704312Y-83332539D01*
X164713601Y-83353775D01*
X164722686Y-83374481D01*
X164731580Y-83394664D01*
X164740296Y-83414331D01*
X164748846Y-83433492D01*
X164757243Y-83452152D01*
X164761388Y-83461297D01*
X164765500Y-83470319D01*
X164769579Y-83479221D01*
X164773628Y-83488002D01*
X164777648Y-83496663D01*
X164781641Y-83505206D01*
X164785608Y-83513632D01*
X164789551Y-83521941D01*
X164793472Y-83530134D01*
X164797371Y-83538213D01*
X164801251Y-83546177D01*
X164805113Y-83554029D01*
X164808958Y-83561769D01*
X164812789Y-83569398D01*
X164816607Y-83576917D01*
X164820412Y-83584327D01*
X164824208Y-83591629D01*
X164827996Y-83598823D01*
X164831776Y-83605911D01*
X164835551Y-83612894D01*
X164839322Y-83619772D01*
X164843091Y-83626547D01*
X164846860Y-83633219D01*
X164850629Y-83639789D01*
X164854401Y-83646259D01*
X164858177Y-83652629D01*
X164861958Y-83658901D01*
X164865747Y-83665074D01*
X164869544Y-83671151D01*
X164873351Y-83677131D01*
X164877171Y-83683017D01*
X164881004Y-83688808D01*
X164884852Y-83694506D01*
X164888716Y-83700112D01*
X164892599Y-83705626D01*
X164896501Y-83711050D01*
X164900425Y-83716385D01*
X164904371Y-83721631D01*
X164908342Y-83726789D01*
X164912339Y-83731861D01*
X164916363Y-83736847D01*
X164920417Y-83741749D01*
X164924501Y-83746566D01*
X164928618Y-83751301D01*
X164930688Y-83753637D01*
X164932768Y-83755953D01*
X164934856Y-83758249D01*
X164936954Y-83760525D01*
X164939060Y-83762781D01*
X164941176Y-83765016D01*
X164943302Y-83767232D01*
X164945437Y-83769429D01*
X164947583Y-83771606D01*
X164949739Y-83773763D01*
X164951905Y-83775901D01*
X164954081Y-83778020D01*
X164956269Y-83780119D01*
X164958468Y-83782200D01*
X164960677Y-83784262D01*
X164962898Y-83786305D01*
X164965131Y-83788330D01*
X164967376Y-83790336D01*
X164969632Y-83792323D01*
X164971901Y-83794293D01*
X164974182Y-83796244D01*
X164976476Y-83798177D01*
X164978782Y-83800093D01*
X164981101Y-83801990D01*
X164983434Y-83803870D01*
X164985780Y-83805732D01*
X164988139Y-83807577D01*
X164990512Y-83809404D01*
X164992899Y-83811214D01*
X164995301Y-83813008D01*
X164997716Y-83814784D01*
X165000146Y-83816543D01*
X165002591Y-83818286D01*
X165005051Y-83820011D01*
X165007526Y-83821721D01*
X165010016Y-83823414D01*
X165012521Y-83825091D01*
X165015043Y-83826751D01*
X165017580Y-83828396D01*
X165020133Y-83830024D01*
X165022703Y-83831637D01*
X165025289Y-83833234D01*
X165027892Y-83834815D01*
X165030512Y-83836382D01*
X165033149Y-83837932D01*
X165035803Y-83839468D01*
X165038474Y-83840988D01*
X165041163Y-83842493D01*
X165043870Y-83843984D01*
X165046596Y-83845460D01*
X165049339Y-83846921D01*
X165052101Y-83848367D01*
X165054881Y-83849799D01*
X165057680Y-83851217D01*
X165060499Y-83852621D01*
X165063336Y-83854010D01*
X165066193Y-83855386D01*
X165069070Y-83856748D01*
X165071966Y-83858096D01*
X165074883Y-83859431D01*
X165077819Y-83860752D01*
X165080777Y-83862060D01*
X165083754Y-83863354D01*
X165086753Y-83864635D01*
X165089772Y-83865904D01*
X165092813Y-83867159D01*
X165098958Y-83869632D01*
X165105191Y-83872055D01*
X165111512Y-83874428D01*
X165117924Y-83876753D01*
X165124428Y-83879031D01*
X165131024Y-83881263D01*
X165137716Y-83883449D01*
X165144505Y-83885590D01*
X165151391Y-83887688D01*
X165158377Y-83889743D01*
X165165464Y-83891757D01*
X165172654Y-83893730D01*
X165179949Y-83895662D01*
X165187349Y-83897556D01*
X165194857Y-83899412D01*
X165202474Y-83901231D01*
X165210201Y-83903014D01*
X165218041Y-83904762D01*
X165225995Y-83906475D01*
X165234063Y-83908156D01*
X165242249Y-83909803D01*
X165250553Y-83911420D01*
X165258977Y-83913006D01*
X165267523Y-83914562D01*
X165276192Y-83916090D01*
X165284986Y-83917590D01*
X165293906Y-83919063D01*
X165302953Y-83920511D01*
X165312131Y-83921934D01*
X165321439Y-83923332D01*
X165330880Y-83924708D01*
X165340455Y-83926062D01*
X165350165Y-83927394D01*
X165360013Y-83928707D01*
X165370000Y-83930000D01*
X153720000Y-83940000D02*
X153741156Y-83940716D01*
X153764591Y-83941427D01*
X153790367Y-83942128D01*
X153818519Y-83942812D01*
X153849061Y-83943473D01*
X153881978Y-83944104D01*
X153917228Y-83944699D01*
X153954741Y-83945251D01*
X153994425Y-83945753D01*
X154036162Y-83946201D01*
X154079817Y-83946587D01*
X154102341Y-83946756D01*
X154125239Y-83946908D01*
X154148572Y-83947043D01*
X154172262Y-83947160D01*
X154196320Y-83947258D01*
X154220715Y-83947337D01*
X154245410Y-83947398D01*
X154270423Y-83947439D01*
X154295667Y-83947460D01*
X154321207Y-83947461D01*
X154346913Y-83947442D01*
X154372894Y-83947403D01*
X154398977Y-83947343D01*
X154425313Y-83947263D01*
X154451691Y-83947162D01*
X154478301Y-83947040D01*
X154504897Y-83946898D01*
X154531702Y-83946734D01*
X154558442Y-83946551D01*
X154585371Y-83946346D01*
X154612188Y-83946122D01*
X154639172Y-83945877D01*
X154666002Y-83945612D01*
X154692979Y-83945326D01*
X154719764Y-83945021D01*
X154746677Y-83944695D01*
X154773363Y-83944351D01*
X154800159Y-83943986D01*
X154826699Y-83943604D01*
X154853332Y-83943200D01*
X154879681Y-83942781D01*
X154906108Y-83942339D01*
X154932228Y-83941883D01*
X154958410Y-83941406D01*
X154984265Y-83940914D01*
X155010168Y-83940401D01*
X155035729Y-83939874D01*
X155061323Y-83939327D01*
X155086560Y-83938767D01*
X155111819Y-83938186D01*
X155136709Y-83937594D01*
X155161608Y-83936981D01*
X155186129Y-83936357D01*
X155210650Y-83935713D01*
X155234784Y-83935059D01*
X155258907Y-83934385D01*
X155282639Y-83933701D01*
X155306350Y-83932998D01*
X155329665Y-83932287D01*
X155352952Y-83931556D01*
X155375839Y-83930817D01*
X155398690Y-83930059D01*
X155421140Y-83929295D01*
X155443546Y-83928511D01*
X155465551Y-83927722D01*
X155487505Y-83926914D01*
X155509059Y-83926100D01*
X155530556Y-83925269D01*
X155551653Y-83924433D01*
X155572689Y-83923578D01*
X155593327Y-83922720D01*
X155613898Y-83921845D01*
X155634074Y-83920966D01*
X155654179Y-83920069D01*
X155673892Y-83919170D01*
X155693530Y-83918255D01*
X155712779Y-83917337D01*
X155731950Y-83916403D01*
X155750737Y-83915467D01*
X155769442Y-83914515D01*
X155787767Y-83913562D01*
X155806007Y-83912593D01*
X155823873Y-83911624D01*
X155841652Y-83910640D01*
X155859061Y-83909656D01*
X155876380Y-83908656D01*
X155893336Y-83907658D01*
X155910200Y-83906644D01*
X155926706Y-83905632D01*
X155943119Y-83904605D01*
X155959179Y-83903580D01*
X155975145Y-83902541D01*
X155990765Y-83901505D01*
X156006289Y-83900454D01*
X156021472Y-83899406D01*
X156036560Y-83898345D01*
X156051312Y-83897287D01*
X156065968Y-83896215D01*
X156080296Y-83895148D01*
X156094526Y-83894067D01*
X156108435Y-83892991D01*
X156122246Y-83891902D01*
X156135741Y-83890818D01*
X156149139Y-83889721D01*
X156162227Y-83888629D01*
X156175218Y-83887525D01*
X156187906Y-83886427D01*
X156200496Y-83885317D01*
X156212790Y-83884213D01*
X156224988Y-83883097D01*
X156236894Y-83881988D01*
X156248705Y-83880867D01*
X156260231Y-83879753D01*
X156271662Y-83878628D01*
X156282815Y-83877510D01*
X156293873Y-83876381D01*
X156304660Y-83875260D01*
X156315352Y-83874128D01*
X156325780Y-83873004D01*
X156336114Y-83871870D01*
X156346189Y-83870744D01*
X156356171Y-83869608D01*
X156365901Y-83868481D01*
X156375540Y-83867344D01*
X156384932Y-83866215D01*
X156394234Y-83865077D01*
X156403295Y-83863949D01*
X156412268Y-83862811D01*
X156421005Y-83861682D01*
X156429655Y-83860545D01*
X156438077Y-83859417D01*
X156446412Y-83858281D01*
X156454524Y-83857154D01*
X156462551Y-83856019D01*
X156470361Y-83854895D01*
X156478088Y-83853762D01*
X156485603Y-83852639D01*
X156493036Y-83851509D01*
X156500263Y-83850389D01*
X156507410Y-83849262D01*
X156514357Y-83848146D01*
X156521224Y-83847022D01*
X156527897Y-83845909D01*
X156534492Y-83844789D01*
X156540899Y-83843681D01*
X156547228Y-83842565D01*
X156553375Y-83841462D01*
X156559446Y-83840351D01*
X156565340Y-83839252D01*
X156571160Y-83838147D01*
X156576807Y-83837054D01*
X156582383Y-83835954D01*
X156587791Y-83834867D01*
X156593128Y-83833774D01*
X156598304Y-83832693D01*
X156603410Y-83831606D01*
X156608359Y-83830531D01*
X156613241Y-83829451D01*
X156617971Y-83828384D01*
X156622634Y-83827311D01*
X156627151Y-83826252D01*
X156631603Y-83825186D01*
X156635912Y-83824135D01*
X156640159Y-83823077D01*
X156644268Y-83822034D01*
X156648316Y-83820985D01*
X156652231Y-83819949D01*
X156656086Y-83818909D01*
X156659812Y-83817883D01*
X156663481Y-83816851D01*
X156667025Y-83815834D01*
X156670513Y-83814812D01*
X156673881Y-83813804D01*
X156677194Y-83812791D01*
X156680392Y-83811793D01*
X156683536Y-83810790D01*
X156686570Y-83809802D01*
X156689551Y-83808809D01*
X156692425Y-83807831D01*
X156695249Y-83806848D01*
X156697970Y-83805880D01*
X156700642Y-83804908D01*
X156703215Y-83803951D01*
X156705741Y-83802990D01*
X156708171Y-83802043D01*
X156710556Y-83801093D01*
X156712849Y-83800158D01*
X156715098Y-83799218D01*
X156717259Y-83798294D01*
X156719377Y-83797366D01*
X156721412Y-83796453D01*
X156723404Y-83795537D01*
X156725317Y-83794635D01*
X156727189Y-83793730D01*
X156728984Y-83792840D01*
X156730741Y-83791946D01*
X156732424Y-83791068D01*
X156734069Y-83790186D01*
X156735644Y-83789319D01*
X156737183Y-83788449D01*
X156738656Y-83787594D01*
X156740093Y-83786735D01*
X156741466Y-83785892D01*
X156742806Y-83785045D01*
X156744085Y-83784213D01*
X156745331Y-83783378D01*
X156746521Y-83782557D01*
X156747678Y-83781734D01*
X156748781Y-83780925D01*
X156749853Y-83780113D01*
X156750000Y-83780000D01*
X158130000Y-83320000D02*
X158133465Y-83330876D01*
X158136940Y-83341717D01*
X158140421Y-83352510D01*
X158143911Y-83363268D01*
X158147407Y-83373978D01*
X158150912Y-83384653D01*
X158154422Y-83395278D01*
X158157942Y-83405867D01*
X158161465Y-83416406D01*
X158164998Y-83426909D01*
X158168535Y-83437361D01*
X158172080Y-83447776D01*
X158175629Y-83458140D01*
X158179186Y-83468466D01*
X158182746Y-83478740D01*
X158186315Y-83488977D01*
X158189886Y-83499160D01*
X158193465Y-83509306D01*
X158197046Y-83519397D01*
X158200635Y-83529451D01*
X158204226Y-83539449D01*
X158207824Y-83549410D01*
X158211423Y-83559314D01*
X158215030Y-83569180D01*
X158218637Y-83578990D01*
X158222251Y-83588761D01*
X158225865Y-83598474D01*
X158229487Y-83608150D01*
X158233108Y-83617766D01*
X158236735Y-83627344D01*
X158240362Y-83636863D01*
X158243995Y-83646343D01*
X158247627Y-83655763D01*
X158251265Y-83665145D01*
X158254901Y-83674465D01*
X158258544Y-83683747D01*
X158262183Y-83692967D01*
X158265829Y-83702149D01*
X158269472Y-83711268D01*
X158273121Y-83720348D01*
X158276766Y-83729365D01*
X158280417Y-83738344D01*
X158284063Y-83747258D01*
X158287716Y-83756134D01*
X158291363Y-83764946D01*
X158295016Y-83773718D01*
X158298664Y-83782426D01*
X158302317Y-83791095D01*
X158305964Y-83799699D01*
X158309616Y-83808263D01*
X158313263Y-83816762D01*
X158316914Y-83825221D01*
X158320558Y-83833615D01*
X158324207Y-83841969D01*
X158327849Y-83850256D01*
X158331495Y-83858504D01*
X158335134Y-83866686D01*
X158338777Y-83874828D01*
X158342412Y-83882903D01*
X158346051Y-83890938D01*
X158349682Y-83898906D01*
X158353317Y-83906834D01*
X158356942Y-83914695D01*
X158360572Y-83922516D01*
X158364192Y-83930269D01*
X158367815Y-83937983D01*
X158371429Y-83945628D01*
X158375046Y-83953234D01*
X158378653Y-83960772D01*
X158382263Y-83968270D01*
X158385862Y-83975700D01*
X158389464Y-83983090D01*
X158393056Y-83990411D01*
X158396650Y-83997694D01*
X158400233Y-84004907D01*
X158403818Y-84012081D01*
X158407391Y-84019186D01*
X158410967Y-84026252D01*
X158414531Y-84033250D01*
X158418097Y-84040207D01*
X158421651Y-84047096D01*
X158425206Y-84053946D01*
X158428749Y-84060727D01*
X158432294Y-84067470D01*
X158435825Y-84074143D01*
X158439358Y-84080777D01*
X158442877Y-84087343D01*
X158446399Y-84093869D01*
X158449906Y-84100328D01*
X158453414Y-84106747D01*
X158456908Y-84113098D01*
X158460404Y-84119410D01*
X158463885Y-84125654D01*
X158467367Y-84131860D01*
X158470834Y-84137998D01*
X158474303Y-84144097D01*
X158477755Y-84150128D01*
X158481210Y-84156121D01*
X158484648Y-84162046D01*
X158488087Y-84167934D01*
X158491510Y-84173754D01*
X158494934Y-84179536D01*
X158498341Y-84185251D01*
X158501750Y-84190928D01*
X158505142Y-84196539D01*
X158508534Y-84202112D01*
X158511909Y-84207618D01*
X158515285Y-84213087D01*
X158518644Y-84218490D01*
X158522003Y-84223856D01*
X158525345Y-84229156D01*
X158528687Y-84234420D01*
X158532011Y-84239618D01*
X158535336Y-84244779D01*
X158538643Y-84249875D01*
X158541950Y-84254935D01*
X158545238Y-84259931D01*
X158548527Y-84264890D01*
X158551797Y-84269785D01*
X158555068Y-84274644D01*
X158558320Y-84279439D01*
X158561571Y-84284199D01*
X158564804Y-84288896D01*
X158568037Y-84293557D01*
X158571251Y-84298155D01*
X158574464Y-84302719D01*
X158577658Y-84307220D01*
X158580852Y-84311686D01*
X158584027Y-84316091D01*
X158587202Y-84320461D01*
X158590356Y-84324770D01*
X158593511Y-84329044D01*
X158596646Y-84333258D01*
X158599780Y-84337438D01*
X158602894Y-84341558D01*
X158606008Y-84345644D01*
X158609102Y-84349671D01*
X158612196Y-84353665D01*
X158615269Y-84357600D01*
X158618342Y-84361501D01*
X158621395Y-84365344D01*
X158624446Y-84369154D01*
X158627478Y-84372908D01*
X158630509Y-84376628D01*
X158633520Y-84380291D01*
X158636530Y-84383922D01*
X158639519Y-84387497D01*
X158642508Y-84391040D01*
X158645476Y-84394527D01*
X158648443Y-84397982D01*
X158651390Y-84401383D01*
X158654336Y-84404752D01*
X158657261Y-84408068D01*
X158660185Y-84411351D01*
X158663089Y-84414582D01*
X158665992Y-84417781D01*
X158668874Y-84420928D01*
X158671755Y-84424044D01*
X158674616Y-84427109D01*
X158677475Y-84430142D01*
X158680314Y-84433125D01*
X158683151Y-84436078D01*
X158685969Y-84438980D01*
X158688784Y-84441852D01*
X158691580Y-84444674D01*
X158694374Y-84447467D01*
X158697148Y-84450211D01*
X158699920Y-84452926D01*
X158702672Y-84455592D01*
X158705423Y-84458230D01*
X158708154Y-84460820D01*
X158710882Y-84463381D01*
X158713591Y-84465896D01*
X158716298Y-84468381D01*
X158718986Y-84470822D01*
X158721671Y-84473233D01*
X158724337Y-84475600D01*
X158727001Y-84477939D01*
X158729645Y-84480234D01*
X158732288Y-84482500D01*
X158734911Y-84484724D01*
X158737532Y-84486919D01*
X158740133Y-84489072D01*
X158742733Y-84491198D01*
X158745313Y-84493281D01*
X158747892Y-84495338D01*
X158750451Y-84497353D01*
X158753009Y-84499342D01*
X158755547Y-84501290D01*
X158758084Y-84503212D01*
X158760601Y-84505094D01*
X158763117Y-84506950D01*
X158765614Y-84508767D01*
X158768108Y-84510557D01*
X158770585Y-84512310D01*
X158773059Y-84514037D01*
X158775515Y-84515726D01*
X158777969Y-84517390D01*
X158780405Y-84519017D01*
X158782838Y-84520619D01*
X158785254Y-84522185D01*
X158787668Y-84523725D01*
X158790064Y-84525231D01*
X158792458Y-84526711D01*
X158794834Y-84528158D01*
X158797208Y-84529579D01*
X158799565Y-84530967D01*
X158801920Y-84532330D01*
X158804258Y-84533660D01*
X158806593Y-84534966D01*
X158808912Y-84536239D01*
X158811229Y-84537489D01*
X158813529Y-84538707D01*
X158815826Y-84539901D01*
X158818108Y-84541063D01*
X158820387Y-84542203D01*
X158822651Y-84543312D01*
X158824912Y-84544397D01*
X158827157Y-84545453D01*
X158829401Y-84546485D01*
X158831628Y-84547488D01*
X158833854Y-84548469D01*
X158836064Y-84549420D01*
X158838272Y-84550349D01*
X158840465Y-84551250D01*
X158842656Y-84552129D01*
X158844833Y-84552979D01*
X158847007Y-84553808D01*
X158849167Y-84554610D01*
X158851325Y-84555389D01*
X158853468Y-84556142D01*
X158855610Y-84556873D01*
X158857738Y-84557578D01*
X158859863Y-84558262D01*
X158861975Y-84558920D01*
X158864085Y-84559556D01*
X158866182Y-84560168D01*
X158868277Y-84560758D01*
X158870359Y-84561323D01*
X158872439Y-84561867D01*
X158874507Y-84562388D01*
X158876572Y-84562887D01*
X158878626Y-84563362D01*
X158880677Y-84563817D01*
X158882717Y-84564248D01*
X158884754Y-84564659D01*
X158886780Y-84565046D01*
X158888804Y-84565413D01*
X158890817Y-84565758D01*
X158892828Y-84566082D01*
X158894828Y-84566384D01*
X158896826Y-84566665D01*
X158898814Y-84566925D01*
X158900799Y-84567164D01*
X158902775Y-84567381D01*
X158904749Y-84567579D01*
X158906713Y-84567755D01*
X158908675Y-84567911D01*
X158910628Y-84568046D01*
X158912579Y-84568161D01*
X158914521Y-84568256D01*
X158916460Y-84568330D01*
X158918392Y-84568384D01*
X158920321Y-84568418D01*
X158922243Y-84568431D01*
X158924162Y-84568425D01*
X158926074Y-84568398D01*
X158927983Y-84568352D01*
X158929886Y-84568286D01*
X158931786Y-84568199D01*
X158933679Y-84568093D01*
X158935570Y-84567967D01*
X158937455Y-84567822D01*
X158939338Y-84567656D01*
X158941215Y-84567471D01*
X158943089Y-84567266D01*
X158944958Y-84567042D01*
X158946824Y-84566797D01*
X158948685Y-84566534D01*
X158950544Y-84566250D01*
X158952398Y-84565946D01*
X158954250Y-84565623D01*
X158956098Y-84565281D01*
X158957943Y-84564918D01*
X158959784Y-84564536D01*
X158961622Y-84564133D01*
X158963457Y-84563711D01*
X158965290Y-84563270D01*
X158967119Y-84562808D01*
X158968946Y-84562326D01*
X158970770Y-84561825D01*
X158972591Y-84561303D01*
X158974410Y-84560761D01*
X158976226Y-84560199D01*
X158979852Y-84559015D01*
X158983469Y-84557749D01*
X158987077Y-84556401D01*
X158990678Y-84554970D01*
X158994272Y-84553456D01*
X158997859Y-84551857D01*
X159001440Y-84550174D01*
X159005015Y-84548405D01*
X159008586Y-84546548D01*
X159012151Y-84544604D01*
X159015713Y-84542570D01*
X159019271Y-84540447D01*
X159020000Y-84540000D01*
X160090000Y-83100000D02*
X160098492Y-83079181D01*
X160106920Y-83058573D01*
X160115286Y-83038170D01*
X160123588Y-83017975D01*
X160131831Y-82997977D01*
X160140010Y-82978183D01*
X160148133Y-82958580D01*
X160156194Y-82939177D01*
X160164200Y-82919958D01*
X160172146Y-82900936D01*
X160180039Y-82882092D01*
X160187873Y-82863440D01*
X160195656Y-82844959D01*
X160203382Y-82826668D01*
X160211060Y-82808540D01*
X160218680Y-82790598D01*
X160226256Y-82772813D01*
X160233776Y-82755212D01*
X160241253Y-82737759D01*
X160248674Y-82720486D01*
X160256057Y-82703356D01*
X160263384Y-82686402D01*
X160270676Y-82669583D01*
X160277913Y-82652938D01*
X160285117Y-82636420D01*
X160292267Y-82620074D01*
X160299387Y-82603846D01*
X160306456Y-82587787D01*
X160313496Y-82571840D01*
X160320485Y-82556058D01*
X160327451Y-82540379D01*
X160334365Y-82524863D01*
X160341259Y-82509443D01*
X160348103Y-82494182D01*
X160361707Y-82463992D01*
X160375188Y-82434270D01*
X160388553Y-82404993D01*
X160401813Y-82376136D01*
X160414979Y-82347674D01*
X160428061Y-82319581D01*
X160441071Y-82291830D01*
X160454021Y-82264391D01*
X160466926Y-82237233D01*
X160479800Y-82210324D01*
X160492660Y-82183627D01*
X160505523Y-82157103D01*
X160518412Y-82130708D01*
X160531349Y-82104394D01*
X160544361Y-82078104D01*
X160557480Y-82051775D01*
X160570744Y-82025331D01*
X160584199Y-81998680D01*
X160597902Y-81971711D01*
X160611926Y-81944282D01*
X160626368Y-81916207D01*
X160641360Y-81887232D01*
X160657095Y-81856988D01*
X160673873Y-81824903D01*
X160692220Y-81789981D01*
X160713223Y-81750158D01*
X160743401Y-81693104D01*
X160771269Y-81640420D01*
X160785158Y-81614108D01*
X160799037Y-81587750D01*
X160812919Y-81561297D01*
X160826820Y-81534699D01*
X160840754Y-81507909D01*
X160854735Y-81480876D01*
X160861747Y-81467254D01*
X160868777Y-81453552D01*
X160875825Y-81439766D01*
X160882894Y-81425888D01*
X160889986Y-81411913D01*
X160897102Y-81397834D01*
X160904245Y-81383645D01*
X160911415Y-81369341D01*
X160918615Y-81354915D01*
X160925847Y-81340360D01*
X160933112Y-81325672D01*
X160940412Y-81310843D01*
X160947749Y-81295867D01*
X160955125Y-81280739D01*
X160962541Y-81265452D01*
X160970000Y-81250000D01*
X161690000Y-81450000D02*
X161696098Y-81469545D01*
X161702084Y-81488801D01*
X161713814Y-81526729D01*
X161725209Y-81563841D01*
X161736291Y-81600198D01*
X161747080Y-81635864D01*
X161757599Y-81670907D01*
X161767872Y-81705402D01*
X161777924Y-81739432D01*
X161787786Y-81773091D01*
X161797489Y-81806484D01*
X161807070Y-81839740D01*
X161816577Y-81873015D01*
X161826064Y-81906503D01*
X161835605Y-81940467D01*
X161845303Y-81975269D01*
X161855309Y-82011461D01*
X161865874Y-82049959D01*
X161877491Y-82092564D01*
X161891450Y-82144019D01*
X161897376Y-82165902D01*
X161911206Y-82216944D01*
X161918092Y-82242285D01*
X161924990Y-82267586D01*
X161931925Y-82292906D01*
X161938920Y-82318303D01*
X161945998Y-82343838D01*
X161953185Y-82369569D01*
X161960503Y-82395556D01*
X161967977Y-82421857D01*
X161975630Y-82448532D01*
X161983486Y-82475641D01*
X161987498Y-82489377D01*
X161991569Y-82503242D01*
X161995704Y-82517246D01*
X161999904Y-82531395D01*
X162004172Y-82545697D01*
X162008513Y-82560159D01*
X162012927Y-82574789D01*
X162017420Y-82589593D01*
X162021993Y-82604580D01*
X162026650Y-82619756D01*
X162031393Y-82635130D01*
X162036226Y-82650708D01*
X162041151Y-82666498D01*
X162046172Y-82682508D01*
X162051292Y-82698744D01*
X162056512Y-82715215D01*
X162061838Y-82731927D01*
X162067270Y-82748888D01*
X162072813Y-82766105D01*
X162078470Y-82783586D01*
X162084243Y-82801338D01*
X162090135Y-82819369D01*
X162096149Y-82837686D01*
X162102289Y-82856296D01*
X162108557Y-82875207D01*
X162114957Y-82894426D01*
X162121490Y-82913961D01*
X162128161Y-82933819D01*
X162134972Y-82954007D01*
X162141927Y-82974533D01*
X162149027Y-82995404D01*
X162156276Y-83016628D01*
X162163678Y-83038212D01*
X162171235Y-83060163D01*
X162178950Y-83082489D01*
X162186826Y-83105197D01*
X162194866Y-83128295D01*
X162203073Y-83151790D01*
X162211450Y-83175689D01*
X162220000Y-83200000D01*
X165370000Y-83930000D02*
X165378634Y-83932314D01*
X165387298Y-83934616D01*
X165395985Y-83936903D01*
X165404703Y-83939177D01*
X165413445Y-83941437D01*
X165422219Y-83943684D01*
X165431019Y-83945917D01*
X165439850Y-83948138D01*
X165448710Y-83950345D01*
X165457601Y-83952539D01*
X165466522Y-83954720D01*
X165475475Y-83956889D01*
X165484459Y-83959044D01*
X165493476Y-83961186D01*
X165502525Y-83963316D01*
X165511608Y-83965433D01*
X165520725Y-83967537D01*
X165529875Y-83969628D01*
X165539062Y-83971708D01*
X165548282Y-83973774D01*
X165557540Y-83975828D01*
X165566833Y-83977869D01*
X165576164Y-83979899D01*
X165585531Y-83981915D01*
X165594938Y-83983920D01*
X165604380Y-83985912D01*
X165613865Y-83987892D01*
X165623386Y-83989859D01*
X165632950Y-83991815D01*
X165642552Y-83993758D01*
X165652198Y-83995690D01*
X165661882Y-83997609D01*
X165681381Y-84001411D01*
X165701053Y-84005165D01*
X165720902Y-84008871D01*
X165740933Y-84012530D01*
X165761150Y-84016141D01*
X165781558Y-84019705D01*
X165802162Y-84023221D01*
X165822965Y-84026690D01*
X165843974Y-84030112D01*
X165865191Y-84033487D01*
X165886624Y-84036814D01*
X165908275Y-84040094D01*
X165930150Y-84043327D01*
X165952255Y-84046513D01*
X165974594Y-84049652D01*
X165997172Y-84052743D01*
X166019995Y-84055787D01*
X166043068Y-84058783D01*
X166066397Y-84061731D01*
X166089986Y-84064631D01*
X166113842Y-84067484D01*
X166137971Y-84070288D01*
X166162378Y-84073043D01*
X166187068Y-84075750D01*
X166212049Y-84078408D01*
X166237326Y-84081017D01*
X166262905Y-84083577D01*
X166288793Y-84086086D01*
X166314996Y-84088546D01*
X166341520Y-84090955D01*
X166368373Y-84093313D01*
X166395562Y-84095621D01*
X166423092Y-84097876D01*
X166450972Y-84100080D01*
X166479208Y-84102232D01*
X166507809Y-84104331D01*
X166536780Y-84106376D01*
X166566131Y-84108368D01*
X166595868Y-84110306D01*
X166626001Y-84112189D01*
X166656537Y-84114017D01*
X166687484Y-84115790D01*
X166718851Y-84117506D01*
X166750647Y-84119165D01*
X166782880Y-84120766D01*
X166815560Y-84122309D01*
X166848696Y-84123794D01*
X166882298Y-84125219D01*
X166916374Y-84126584D01*
X166950936Y-84127888D01*
X166985993Y-84129131D01*
X167021556Y-84130311D01*
X167057636Y-84131428D01*
X167094242Y-84132481D01*
X167131387Y-84133469D01*
X167169082Y-84134392D01*
X167207339Y-84135248D01*
X167246169Y-84136037D01*
X167285585Y-84136757D01*
X167325600Y-84137408D01*
X167366226Y-84137989D01*
X167407477Y-84138498D01*
X167449366Y-84138936D01*
X167491907Y-84139299D01*
X167535115Y-84139589D01*
X167579005Y-84139802D01*
X167623591Y-84139939D01*
X167668888Y-84139998D01*
X167680000Y-84140000D01*
X163760000Y-83300000D02*
X163763129Y-83290645D01*
X163766254Y-83281365D01*
X163769366Y-83272186D01*
X163772474Y-83263080D01*
X163775569Y-83254075D01*
X163778660Y-83245143D01*
X163781738Y-83236310D01*
X163784812Y-83227548D01*
X163787873Y-83218884D01*
X163790930Y-83210291D01*
X163793974Y-83201795D01*
X163797014Y-83193368D01*
X163800040Y-83185038D01*
X163803063Y-83176776D01*
X163806073Y-83168609D01*
X163809079Y-83160509D01*
X163812071Y-83152504D01*
X163815060Y-83144565D01*
X163818035Y-83136719D01*
X163821007Y-83128938D01*
X163823965Y-83121249D01*
X163826920Y-83113626D01*
X163829861Y-83106092D01*
X163832798Y-83098623D01*
X163835722Y-83091243D01*
X163838642Y-83083926D01*
X163841548Y-83076697D01*
X163844451Y-83069531D01*
X163847340Y-83062451D01*
X163850226Y-83055433D01*
X163853098Y-83048501D01*
X163855966Y-83041630D01*
X163858821Y-83034843D01*
X163861672Y-83028117D01*
X163864510Y-83021474D01*
X163867343Y-83014890D01*
X163870164Y-83008389D01*
X163872980Y-83001946D01*
X163875783Y-82995584D01*
X163878582Y-82989280D01*
X163881368Y-82983055D01*
X163884150Y-82976888D01*
X163886918Y-82970800D01*
X163889683Y-82964768D01*
X163892434Y-82958813D01*
X163895182Y-82952914D01*
X163897915Y-82947092D01*
X163900646Y-82941325D01*
X163903362Y-82935632D01*
X163906075Y-82929994D01*
X163908774Y-82924431D01*
X163911470Y-82918920D01*
X163914152Y-82913483D01*
X163916831Y-82908098D01*
X163919496Y-82902786D01*
X163922157Y-82897525D01*
X163924804Y-82892335D01*
X163927449Y-82887197D01*
X163930079Y-82882128D01*
X163932706Y-82877110D01*
X163935319Y-82872160D01*
X163937929Y-82867261D01*
X163940525Y-82862429D01*
X163943118Y-82857646D01*
X163945697Y-82852930D01*
X163948272Y-82848262D01*
X163950834Y-82843660D01*
X163953393Y-82839105D01*
X163955938Y-82834616D01*
X163958479Y-82830173D01*
X163961007Y-82825793D01*
X163963531Y-82821460D01*
X163966042Y-82817189D01*
X163968550Y-82812964D01*
X163971044Y-82808801D01*
X163973535Y-82804682D01*
X163976012Y-82800624D01*
X163978486Y-82796610D01*
X163980946Y-82792656D01*
X163983403Y-82788745D01*
X163985847Y-82784893D01*
X163988287Y-82781084D01*
X163990714Y-82777332D01*
X163993138Y-82773622D01*
X163995548Y-82769970D01*
X163997955Y-82766358D01*
X164000349Y-82762802D01*
X164002739Y-82759287D01*
X164005116Y-82755827D01*
X164007490Y-82752407D01*
X164009851Y-82749041D01*
X164012209Y-82745715D01*
X164014553Y-82742441D01*
X164016895Y-82739206D01*
X164019223Y-82736023D01*
X164021548Y-82732879D01*
X164023860Y-82729786D01*
X164026169Y-82726730D01*
X164028465Y-82723724D01*
X164030758Y-82720756D01*
X164033038Y-82717836D01*
X164035315Y-82714954D01*
X164037579Y-82712119D01*
X164039840Y-82709320D01*
X164042089Y-82706569D01*
X164044334Y-82703853D01*
X164046567Y-82701184D01*
X164048797Y-82698550D01*
X164051015Y-82695961D01*
X164053229Y-82693406D01*
X164055431Y-82690896D01*
X164057630Y-82688420D01*
X164059817Y-82685987D01*
X164062000Y-82683588D01*
X164064172Y-82681232D01*
X164066341Y-82678909D01*
X164068497Y-82676627D01*
X164070651Y-82674378D01*
X164072793Y-82672170D01*
X164074932Y-82669994D01*
X164077059Y-82667859D01*
X164079184Y-82665754D01*
X164081296Y-82663689D01*
X164083406Y-82661655D01*
X164085505Y-82659660D01*
X164087600Y-82657695D01*
X164089685Y-82655767D01*
X164091766Y-82653870D01*
X164093836Y-82652010D01*
X164095904Y-82650179D01*
X164097961Y-82648385D01*
X164100014Y-82646619D01*
X164102058Y-82644889D01*
X164104098Y-82643188D01*
X164106127Y-82641521D01*
X164108154Y-82639883D01*
X164110171Y-82638279D01*
X164112185Y-82636702D01*
X164114189Y-82635159D01*
X164116189Y-82633643D01*
X164118180Y-82632159D01*
X164120169Y-82630703D01*
X164122147Y-82629278D01*
X164124123Y-82627880D01*
X164126089Y-82626513D01*
X164128053Y-82625173D01*
X164130008Y-82623862D01*
X164131959Y-82622578D01*
X164133902Y-82621324D01*
X164135842Y-82620095D01*
X164137774Y-82618895D01*
X164139702Y-82617720D01*
X164141622Y-82616574D01*
X164143540Y-82615453D01*
X164145450Y-82614359D01*
X164147356Y-82613290D01*
X164149255Y-82612249D01*
X164151151Y-82611231D01*
X164153040Y-82610241D01*
X164154926Y-82609274D01*
X164156805Y-82608333D01*
X164158681Y-82607417D01*
X164160550Y-82606525D01*
X164162416Y-82605657D01*
X164164277Y-82604815D01*
X164166134Y-82603995D01*
X164167985Y-82603200D01*
X164169833Y-82602428D01*
X164171676Y-82601679D01*
X164173515Y-82600954D01*
X164175350Y-82600252D01*
X164177181Y-82599573D01*
X164179007Y-82598916D01*
X164180831Y-82598282D01*
X164182650Y-82597671D01*
X164184466Y-82597082D01*
X164186278Y-82596515D01*
X164188087Y-82595970D01*
X164189892Y-82595447D01*
X164191694Y-82594945D01*
X164193493Y-82594466D01*
X164195289Y-82594007D01*
X164197081Y-82593570D01*
X164198871Y-82593154D01*
X164200659Y-82592760D01*
X164202443Y-82592386D01*
X164204225Y-82592033D01*
X164206004Y-82591702D01*
X164207782Y-82591390D01*
X164209556Y-82591100D01*
X164211329Y-82590830D01*
X164213099Y-82590581D01*
X164214868Y-82590352D01*
X164216634Y-82590143D01*
X164220163Y-82589787D01*
X164223685Y-82589511D01*
X164227201Y-82589315D01*
X164230714Y-82589200D01*
X164234223Y-82589165D01*
X164237729Y-82589209D01*
X164241233Y-82589333D01*
X164244736Y-82589537D01*
X164248238Y-82589821D01*
X164251742Y-82590184D01*
X164255247Y-82590629D01*
X164258754Y-82591153D01*
X164262264Y-82591759D01*
X164265778Y-82592447D01*
X164269297Y-82593217D01*
X164272821Y-82594069D01*
X164276351Y-82595006D01*
X164279889Y-82596026D01*
X164283434Y-82597132D01*
X164286988Y-82598325D01*
X164290550Y-82599604D01*
X164294123Y-82600972D01*
X164297706Y-82602430D01*
X164301300Y-82603978D01*
X164304906Y-82605618D01*
X164308524Y-82607351D01*
X164312155Y-82609179D01*
X164315800Y-82611104D01*
X164319459Y-82613126D01*
X164323132Y-82615247D01*
X164326821Y-82617470D01*
X164330524Y-82619794D01*
X164334244Y-82622224D01*
X164337981Y-82624759D01*
X164341734Y-82627402D01*
X164345504Y-82630155D01*
X164349292Y-82633019D01*
X164353097Y-82635997D01*
X164356921Y-82639091D01*
X164360763Y-82642302D01*
X164364624Y-82645633D01*
X164368503Y-82649085D01*
X164372402Y-82652661D01*
X164376320Y-82656364D01*
X164380257Y-82660194D01*
X164384214Y-82664154D01*
X164388190Y-82668247D01*
X164392186Y-82672475D01*
X164396201Y-82676839D01*
X164400236Y-82681343D01*
X164404291Y-82685988D01*
X164408365Y-82690776D01*
X164412459Y-82695710D01*
X164416572Y-82700793D01*
X164420704Y-82706025D01*
X164424854Y-82711411D01*
X164429024Y-82716951D01*
X164433212Y-82722648D01*
X164437418Y-82728504D01*
X164441642Y-82734521D01*
X164445883Y-82740701D01*
X164450142Y-82747047D01*
X164454417Y-82753561D01*
X164458707Y-82760243D01*
X164463013Y-82767097D01*
X164467334Y-82774123D01*
X164471669Y-82781324D01*
X164476018Y-82788702D01*
X164480378Y-82796256D01*
X164484751Y-82803990D01*
X164489134Y-82811904D01*
X164493527Y-82820000D01*
X164497928Y-82828277D01*
X164502337Y-82836737D01*
X164506752Y-82845379D01*
X164511172Y-82854205D01*
X164515594Y-82863214D01*
X164520019Y-82872405D01*
X164524442Y-82881778D01*
X164528864Y-82891330D01*
X164533281Y-82901061D01*
X164537691Y-82910967D01*
X164542092Y-82921046D01*
X164546481Y-82931293D01*
X164550854Y-82941704D01*
X164555209Y-82952273D01*
X164559541Y-82962993D01*
X164563846Y-82973855D01*
X164568119Y-82984849D01*
X164572356Y-82995963D01*
X164576549Y-83007182D01*
X164580693Y-83018488D01*
X164584778Y-83029860D01*
X164588796Y-83041271D01*
X164592735Y-83052689D01*
X164596581Y-83064072D01*
X164600319Y-83075370D01*
X164603928Y-83086515D01*
X164607380Y-83097418D01*
X164610640Y-83107952D01*
X164613656Y-83117935D01*
X164616345Y-83127069D01*
X164618558Y-83134800D01*
X164619921Y-83139706D01*
X164620000Y-83140000D01*
D11*
X122738094Y-76414819D02*
X122738094Y-75414819D01*
X122738094Y-75414819D02*
X122499999Y-75414819D01*
X122499999Y-75414819D02*
X122357142Y-75462438D01*
X122357142Y-75462438D02*
X122261904Y-75557676D01*
X122261904Y-75557676D02*
X122214285Y-75652914D01*
X122214285Y-75652914D02*
X122166666Y-75843390D01*
X122166666Y-75843390D02*
X122166666Y-75986247D01*
X122166666Y-75986247D02*
X122214285Y-76176723D01*
X122214285Y-76176723D02*
X122261904Y-76271961D01*
X122261904Y-76271961D02*
X122357142Y-76367200D01*
X122357142Y-76367200D02*
X122499999Y-76414819D01*
X122499999Y-76414819D02*
X122738094Y-76414819D01*
X121214285Y-76414819D02*
X121785713Y-76414819D01*
X121499999Y-76414819D02*
X121499999Y-75414819D01*
X121499999Y-75414819D02*
X121595237Y-75557676D01*
X121595237Y-75557676D02*
X121690475Y-75652914D01*
X121690475Y-75652914D02*
X121785713Y-75700533D01*
X154738094Y-76624819D02*
X154738094Y-75624819D01*
X154738094Y-75624819D02*
X154499999Y-75624819D01*
X154499999Y-75624819D02*
X154357142Y-75672438D01*
X154357142Y-75672438D02*
X154261904Y-75767676D01*
X154261904Y-75767676D02*
X154214285Y-75862914D01*
X154214285Y-75862914D02*
X154166666Y-76053390D01*
X154166666Y-76053390D02*
X154166666Y-76196247D01*
X154166666Y-76196247D02*
X154214285Y-76386723D01*
X154214285Y-76386723D02*
X154261904Y-76481961D01*
X154261904Y-76481961D02*
X154357142Y-76577200D01*
X154357142Y-76577200D02*
X154499999Y-76624819D01*
X154499999Y-76624819D02*
X154738094Y-76624819D01*
X153785713Y-75720057D02*
X153738094Y-75672438D01*
X153738094Y-75672438D02*
X153642856Y-75624819D01*
X153642856Y-75624819D02*
X153404761Y-75624819D01*
X153404761Y-75624819D02*
X153309523Y-75672438D01*
X153309523Y-75672438D02*
X153261904Y-75720057D01*
X153261904Y-75720057D02*
X153214285Y-75815295D01*
X153214285Y-75815295D02*
X153214285Y-75910533D01*
X153214285Y-75910533D02*
X153261904Y-76053390D01*
X153261904Y-76053390D02*
X153833332Y-76624819D01*
X153833332Y-76624819D02*
X153214285Y-76624819D01*
D12*
%TO.C,D1*%
X120440000Y-71920000D02*
X120440000Y-71764000D01*
X120440000Y-74236000D02*
X120440000Y-74080000D01*
X120440000Y-71764484D02*
G75*
G02*
X123671397Y-71919939I1560000J-1235516D01*
G01*
X120959039Y-71920000D02*
G75*
G02*
X123040910Y-71919951I1040961J-1080000D01*
G01*
X123040910Y-74080049D02*
G75*
G02*
X120959039Y-74080000I-1040910J1080049D01*
G01*
X123671397Y-74080061D02*
G75*
G02*
X120440000Y-74235516I-1671397J1080061D01*
G01*
%TO.C,D2*%
X151540000Y-72040000D02*
X150620000Y-72040000D01*
X151540000Y-72040000D02*
X151540000Y-70740000D01*
X151540000Y-73960000D02*
X150620000Y-73960000D01*
X151540000Y-75260000D02*
X151540000Y-73960000D01*
X151540000Y-75260000D02*
X156410000Y-75260000D01*
X156410000Y-70740000D02*
X151540000Y-70740000D01*
X156410000Y-71940000D02*
X156410000Y-70740000D01*
X156410000Y-75260000D02*
X156410000Y-74060000D01*
%TD*%
M02*
