%TF.GenerationSoftware,KiCad,Pcbnew,9.0.1*%
%TF.CreationDate,2025-10-23T13:46:40-06:00*%
%TF.ProjectId,lasertagpcb,6c617365-7274-4616-9770-63622e6b6963,rev?*%
%TF.SameCoordinates,Original*%
%TF.FileFunction,Soldermask,Top*%
%TF.FilePolarity,Negative*%
%FSLAX46Y46*%
G04 Gerber Fmt 4.6, Leading zero omitted, Abs format (unit mm)*
G04 Created by KiCad (PCBNEW 9.0.1) date 2025-10-23 13:46:40*
%MOMM*%
%LPD*%
G01*
G04 APERTURE LIST*
G04 Aperture macros list*
%AMRoundRect*
0 Rectangle with rounded corners*
0 $1 Rounding radius*
0 $2 $3 $4 $5 $6 $7 $8 $9 X,Y pos of 4 corners*
0 Add a 4 corners polygon primitive as box body*
4,1,4,$2,$3,$4,$5,$6,$7,$8,$9,$2,$3,0*
0 Add four circle primitives for the rounded corners*
1,1,$1+$1,$2,$3*
1,1,$1+$1,$4,$5*
1,1,$1+$1,$6,$7*
1,1,$1+$1,$8,$9*
0 Add four rect primitives between the rounded corners*
20,1,$1+$1,$2,$3,$4,$5,0*
20,1,$1+$1,$4,$5,$6,$7,0*
20,1,$1+$1,$6,$7,$8,$9,0*
20,1,$1+$1,$8,$9,$2,$3,0*%
G04 Aperture macros list end*
%ADD10R,2.000000X2.000000*%
%ADD11RoundRect,0.250000X-0.450000X0.350000X-0.450000X-0.350000X0.450000X-0.350000X0.450000X0.350000X0*%
%ADD12RoundRect,0.250000X-0.475000X0.337500X-0.475000X-0.337500X0.475000X-0.337500X0.475000X0.337500X0*%
%ADD13R,1.700000X1.700000*%
%ADD14C,1.700000*%
%ADD15RoundRect,0.250000X0.350000X0.450000X-0.350000X0.450000X-0.350000X-0.450000X0.350000X-0.450000X0*%
%ADD16RoundRect,0.250000X0.337500X0.475000X-0.337500X0.475000X-0.337500X-0.475000X0.337500X-0.475000X0*%
%ADD17C,2.200000*%
%ADD18C,2.000000*%
%ADD19RoundRect,0.250000X-0.337500X-0.475000X0.337500X-0.475000X0.337500X0.475000X-0.337500X0.475000X0*%
%ADD20RoundRect,0.250000X-0.350000X-0.450000X0.350000X-0.450000X0.350000X0.450000X-0.350000X0.450000X0*%
%ADD21RoundRect,0.250000X0.450000X-0.350000X0.450000X0.350000X-0.450000X0.350000X-0.450000X-0.350000X0*%
%ADD22RoundRect,0.250000X-0.350000X-0.625000X0.350000X-0.625000X0.350000X0.625000X-0.350000X0.625000X0*%
%ADD23O,1.200000X1.750000*%
%ADD24R,1.500000X1.050000*%
%ADD25O,1.500000X1.050000*%
%ADD26RoundRect,0.250000X0.550000X0.550000X-0.550000X0.550000X-0.550000X-0.550000X0.550000X-0.550000X0*%
%ADD27C,1.600000*%
%ADD28R,1.800000X1.800000*%
%ADD29C,1.800000*%
%ADD30RoundRect,0.249200X-0.600800X-0.450800X0.600800X-0.450800X0.600800X0.450800X-0.600800X0.450800X0*%
%ADD31O,1.700000X1.400000*%
G04 APERTURE END LIST*
D10*
%TO.C,TP4*%
X111520000Y-64160000D03*
%TD*%
%TO.C,TP5*%
X116020000Y-64160000D03*
%TD*%
%TO.C,TP3*%
X119110000Y-86130000D03*
%TD*%
%TO.C,TP2*%
X108090000Y-80030000D03*
%TD*%
%TO.C,TP1*%
X138810000Y-83820000D03*
%TD*%
D11*
%TO.C,R9*%
X126220000Y-74360000D03*
X126220000Y-76360000D03*
%TD*%
%TO.C,R10*%
X131150000Y-62980000D03*
X131150000Y-64980000D03*
%TD*%
D12*
%TO.C,C4*%
X128690000Y-74362500D03*
X128690000Y-76437500D03*
%TD*%
D11*
%TO.C,R12*%
X148330000Y-70730000D03*
X148330000Y-72730000D03*
%TD*%
D13*
%TO.C,J1*%
X105680000Y-68820000D03*
D14*
X105680000Y-71360000D03*
X105680000Y-73900000D03*
X105680000Y-76440000D03*
%TD*%
D12*
%TO.C,C2*%
X141340000Y-75692500D03*
X141340000Y-77767500D03*
%TD*%
D11*
%TO.C,R11*%
X133710000Y-59230000D03*
X133710000Y-61230000D03*
%TD*%
D13*
%TO.C,J2*%
X122970000Y-81665000D03*
D14*
X122970000Y-84205000D03*
%TD*%
D15*
%TO.C,R7*%
X142770000Y-80750000D03*
X140770000Y-80750000D03*
%TD*%
D16*
%TO.C,C1*%
X143677500Y-72750000D03*
X141602500Y-72750000D03*
%TD*%
D17*
%TO.C,REF\u002A\u002A*%
X169000000Y-73000000D03*
%TD*%
D10*
%TO.C,C7*%
X137827349Y-62530000D03*
D18*
X142827349Y-62530000D03*
%TD*%
D19*
%TO.C,C6*%
X123962500Y-69240000D03*
X126037500Y-69240000D03*
%TD*%
%TO.C,C8*%
X144072500Y-68240000D03*
X146147500Y-68240000D03*
%TD*%
D17*
%TO.C,REF\u002A\u002A*%
X99000000Y-73000000D03*
%TD*%
D20*
%TO.C,R6*%
X141640000Y-70390000D03*
X143640000Y-70390000D03*
%TD*%
D11*
%TO.C,R8*%
X128760000Y-69970000D03*
X128760000Y-71970000D03*
%TD*%
D21*
%TO.C,R4*%
X146160000Y-77730000D03*
X146160000Y-75730000D03*
%TD*%
D22*
%TO.C,J3*%
X154280000Y-63910000D03*
D23*
X156280000Y-63910000D03*
%TD*%
D16*
%TO.C,C3*%
X138567500Y-80750000D03*
X136492500Y-80750000D03*
%TD*%
D21*
%TO.C,R2*%
X115440000Y-84005000D03*
X115440000Y-82005000D03*
%TD*%
D20*
%TO.C,R3*%
X108750000Y-68620000D03*
X110750000Y-68620000D03*
%TD*%
D10*
%TO.C,C5*%
X122037349Y-62570000D03*
D18*
X127037349Y-62570000D03*
%TD*%
D24*
%TO.C,Q1*%
X113240000Y-71730000D03*
D25*
X113240000Y-73000000D03*
X113240000Y-74270000D03*
%TD*%
D26*
%TO.C,U1*%
X138825000Y-78030000D03*
D27*
X138825000Y-75490000D03*
X138825000Y-72950000D03*
X138825000Y-70410000D03*
X131205000Y-70410000D03*
X131205000Y-72950000D03*
X131205000Y-75490000D03*
X131205000Y-78030000D03*
%TD*%
D11*
%TO.C,R5*%
X143720000Y-75670000D03*
X143720000Y-77670000D03*
%TD*%
D21*
%TO.C,R1*%
X111470000Y-84075000D03*
X111470000Y-82075000D03*
%TD*%
D28*
%TO.C,D1*%
X120730000Y-73000000D03*
D29*
X123270000Y-73000000D03*
%TD*%
D30*
%TO.C,D2*%
X151460000Y-73000000D03*
D31*
X156540000Y-73000000D03*
%TD*%
M02*
