%TF.GenerationSoftware,KiCad,Pcbnew,9.0.1*%
%TF.CreationDate,2025-10-23T13:46:40-06:00*%
%TF.ProjectId,lasertagpcb,6c617365-7274-4616-9770-63622e6b6963,rev?*%
%TF.SameCoordinates,Original*%
%TF.FileFunction,Copper,L2,Bot*%
%TF.FilePolarity,Positive*%
%FSLAX46Y46*%
G04 Gerber Fmt 4.6, Leading zero omitted, Abs format (unit mm)*
G04 Created by KiCad (PCBNEW 9.0.1) date 2025-10-23 13:46:40*
%MOMM*%
%LPD*%
G01*
G04 APERTURE LIST*
G04 Aperture macros list*
%AMRoundRect*
0 Rectangle with rounded corners*
0 $1 Rounding radius*
0 $2 $3 $4 $5 $6 $7 $8 $9 X,Y pos of 4 corners*
0 Add a 4 corners polygon primitive as box body*
4,1,4,$2,$3,$4,$5,$6,$7,$8,$9,$2,$3,0*
0 Add four circle primitives for the rounded corners*
1,1,$1+$1,$2,$3*
1,1,$1+$1,$4,$5*
1,1,$1+$1,$6,$7*
1,1,$1+$1,$8,$9*
0 Add four rect primitives between the rounded corners*
20,1,$1+$1,$2,$3,$4,$5,0*
20,1,$1+$1,$4,$5,$6,$7,0*
20,1,$1+$1,$6,$7,$8,$9,0*
20,1,$1+$1,$8,$9,$2,$3,0*%
G04 Aperture macros list end*
%TA.AperFunction,ComponentPad*%
%ADD10R,1.700000X1.700000*%
%TD*%
%TA.AperFunction,ComponentPad*%
%ADD11C,1.700000*%
%TD*%
%TA.AperFunction,ComponentPad*%
%ADD12R,2.000000X2.000000*%
%TD*%
%TA.AperFunction,ComponentPad*%
%ADD13C,2.000000*%
%TD*%
%TA.AperFunction,ComponentPad*%
%ADD14RoundRect,0.250000X-0.350000X-0.625000X0.350000X-0.625000X0.350000X0.625000X-0.350000X0.625000X0*%
%TD*%
%TA.AperFunction,ComponentPad*%
%ADD15O,1.200000X1.750000*%
%TD*%
%TA.AperFunction,ComponentPad*%
%ADD16R,1.500000X1.050000*%
%TD*%
%TA.AperFunction,ComponentPad*%
%ADD17O,1.500000X1.050000*%
%TD*%
%TA.AperFunction,ComponentPad*%
%ADD18RoundRect,0.250000X0.550000X0.550000X-0.550000X0.550000X-0.550000X-0.550000X0.550000X-0.550000X0*%
%TD*%
%TA.AperFunction,ComponentPad*%
%ADD19C,1.600000*%
%TD*%
%TA.AperFunction,ComponentPad*%
%ADD20R,1.800000X1.800000*%
%TD*%
%TA.AperFunction,ComponentPad*%
%ADD21C,1.800000*%
%TD*%
%TA.AperFunction,ComponentPad*%
%ADD22RoundRect,0.249200X-0.600800X-0.450800X0.600800X-0.450800X0.600800X0.450800X-0.600800X0.450800X0*%
%TD*%
%TA.AperFunction,ComponentPad*%
%ADD23O,1.700000X1.400000*%
%TD*%
%TA.AperFunction,ViaPad*%
%ADD24C,0.600000*%
%TD*%
%TA.AperFunction,Conductor*%
%ADD25C,0.500000*%
%TD*%
%TA.AperFunction,Conductor*%
%ADD26C,0.200000*%
%TD*%
G04 APERTURE END LIST*
D10*
%TO.P,J1,1,Pin_1*%
%TO.N,/Tx*%
X105680000Y-68820000D03*
D11*
%TO.P,J1,2,Pin_2*%
%TO.N,GND*%
X105680000Y-71360000D03*
%TO.P,J1,3,Pin_3*%
%TO.N,/Rx*%
X105680000Y-73900000D03*
%TO.P,J1,4,Pin_4*%
%TO.N,+3V3*%
X105680000Y-76440000D03*
%TD*%
D10*
%TO.P,J2,1,Pin_1*%
%TO.N,Net-(D1-K)*%
X122970000Y-81665000D03*
D11*
%TO.P,J2,2,Pin_2*%
%TO.N,Net-(J2-Pin_2)*%
X122970000Y-84205000D03*
%TD*%
D12*
%TO.P,C7,1*%
%TO.N,/a_gnd*%
X137827349Y-62530000D03*
D13*
%TO.P,C7,2*%
%TO.N,GND*%
X142827349Y-62530000D03*
%TD*%
D14*
%TO.P,J3,1,Pin_1*%
%TO.N,/sigin*%
X154280000Y-63910000D03*
D15*
%TO.P,J3,2,Pin_2*%
%TO.N,GND*%
X156280000Y-63910000D03*
%TD*%
D12*
%TO.P,C5,1*%
%TO.N,+3V3*%
X122037349Y-62570000D03*
D13*
%TO.P,C5,2*%
%TO.N,/a_gnd*%
X127037349Y-62570000D03*
%TD*%
D16*
%TO.P,Q1,1,S*%
%TO.N,GND*%
X113240000Y-71730000D03*
D17*
%TO.P,Q1,2,G*%
%TO.N,Net-(Q1-G)*%
X113240000Y-73000000D03*
%TO.P,Q1,3,D*%
%TO.N,Net-(Q1-D)*%
X113240000Y-74270000D03*
%TD*%
D18*
%TO.P,U1,1*%
%TO.N,Net-(C2-Pad2)*%
X138825000Y-78030000D03*
D19*
%TO.P,U1,2,-*%
%TO.N,Net-(U1A--)*%
X138825000Y-75490000D03*
%TO.P,U1,3,+*%
%TO.N,Net-(U1A-+)*%
X138825000Y-72950000D03*
%TO.P,U1,4,V-*%
%TO.N,GND*%
X138825000Y-70410000D03*
%TO.P,U1,5,+*%
%TO.N,Net-(U1B-+)*%
X131205000Y-70410000D03*
%TO.P,U1,6,-*%
%TO.N,Net-(U1B--)*%
X131205000Y-72950000D03*
%TO.P,U1,7*%
%TO.N,/Rx*%
X131205000Y-75490000D03*
%TO.P,U1,8,V+*%
%TO.N,+3V3*%
X131205000Y-78030000D03*
%TD*%
D20*
%TO.P,D1,1,K*%
%TO.N,Net-(D1-K)*%
X120730000Y-73000000D03*
D21*
%TO.P,D1,2,A*%
%TO.N,+3V3*%
X123270000Y-73000000D03*
%TD*%
D22*
%TO.P,D2,1,K*%
%TO.N,/sigin*%
X151460000Y-73000000D03*
D23*
%TO.P,D2,2,A*%
%TO.N,GND*%
X156540000Y-73000000D03*
%TD*%
D24*
%TO.N,GND*%
X115940000Y-66760000D03*
X113650000Y-64150000D03*
X149110000Y-63610000D03*
X114610000Y-75300000D03*
%TO.N,Net-(D1-K)*%
X120730000Y-78000000D03*
%TO.N,GND*%
X126930000Y-81490000D03*
X145340000Y-69910000D03*
X120680000Y-69890000D03*
X142240000Y-87900000D03*
X133030000Y-79950000D03*
X161250000Y-58030000D03*
X98171421Y-87900000D03*
X98171421Y-58030000D03*
X169800000Y-80670000D03*
X127250000Y-70940000D03*
X115500000Y-87900000D03*
X137460000Y-68770000D03*
X141850000Y-84140000D03*
X113430000Y-80540000D03*
X108900000Y-64110000D03*
X109490000Y-70490000D03*
X137440000Y-71580000D03*
X114680000Y-77790000D03*
X141320000Y-58030000D03*
X119400000Y-77880000D03*
X125170000Y-87900000D03*
X142780000Y-60730000D03*
X144920000Y-74280000D03*
X110110000Y-74910000D03*
X159540000Y-82810000D03*
X156290000Y-65990000D03*
X98171421Y-65440000D03*
X162170000Y-87900000D03*
X169800000Y-87900000D03*
X117730000Y-77880000D03*
X124250000Y-58030000D03*
X131260000Y-84160000D03*
X98171421Y-80340000D03*
X137510000Y-74250000D03*
X113410000Y-83150000D03*
X111590000Y-77820000D03*
X152500000Y-87900000D03*
X165020000Y-61650000D03*
X148280000Y-82650000D03*
X151580000Y-58030000D03*
X148110000Y-74370000D03*
X122420000Y-77770000D03*
X146760000Y-71670000D03*
X164310000Y-77550000D03*
X148250000Y-68160000D03*
X118190000Y-73060000D03*
X140300000Y-69090000D03*
X111500000Y-66180000D03*
X154530000Y-80630000D03*
X122670000Y-60490000D03*
X102900000Y-83340000D03*
X161110000Y-72990000D03*
X113290000Y-69930000D03*
X115640000Y-71810000D03*
X140280000Y-74130000D03*
X133430000Y-87900000D03*
X107800000Y-72720000D03*
X169800000Y-58030000D03*
X104320000Y-58030000D03*
X140190000Y-71540000D03*
X125490000Y-71620000D03*
X101920000Y-61580000D03*
X137440000Y-65830000D03*
X164480000Y-67352122D03*
X114580000Y-58030000D03*
X122210000Y-65130000D03*
X148120000Y-78710000D03*
X169800000Y-65770000D03*
X159340000Y-63830000D03*
X139590000Y-67140000D03*
X105240000Y-87900000D03*
X142600000Y-74270000D03*
X119120000Y-81710000D03*
X109220000Y-83060000D03*
X127180000Y-72890000D03*
X136630000Y-83550000D03*
X102710000Y-74440000D03*
X103460000Y-70300000D03*
X145040000Y-71600000D03*
X128800000Y-78700000D03*
X142760000Y-64950000D03*
X156510000Y-75060000D03*
X131750000Y-58220000D03*
%TO.N,Net-(Q1-D)*%
X116300000Y-77940000D03*
X117050000Y-81400000D03*
%TO.N,/a_gnd*%
X133360000Y-64120000D03*
X141750000Y-68500000D03*
X145040000Y-81840000D03*
X129120000Y-68270000D03*
X133380000Y-63390000D03*
X127420000Y-67650000D03*
X146530000Y-79580000D03*
%TD*%
D25*
%TO.N,+3V3*%
X121890000Y-76440000D02*
X121990000Y-76440000D01*
X121990000Y-76440000D02*
X123270000Y-75160000D01*
X123270000Y-75160000D02*
X123270000Y-73000000D01*
%TO.N,/a_gnd*%
X138390000Y-64420000D02*
X138890000Y-64420000D01*
X138890000Y-64420000D02*
X141750000Y-67280000D01*
X141750000Y-67280000D02*
X141750000Y-68500000D01*
D26*
%TO.N,Net-(D1-K)*%
X122970000Y-81665000D02*
X120730000Y-79425000D01*
X120730000Y-79425000D02*
X120730000Y-78000000D01*
D25*
%TO.N,+3V3*%
X129880000Y-78030000D02*
X131205000Y-78030000D01*
X121890000Y-76440000D02*
X128290000Y-76440000D01*
X105680000Y-76440000D02*
X121890000Y-76440000D01*
X128290000Y-76440000D02*
X129880000Y-78030000D01*
D26*
%TO.N,Net-(Q1-D)*%
X117050000Y-78890000D02*
X117060000Y-78880000D01*
X117050000Y-81400000D02*
X117050000Y-78890000D01*
X116300000Y-78120000D02*
X116300000Y-77940000D01*
X117060000Y-78880000D02*
X116300000Y-78120000D01*
%TD*%
%TA.AperFunction,Conductor*%
%TO.N,GND*%
G36*
X170442539Y-57520185D02*
G01*
X170488294Y-57572989D01*
X170499500Y-57624500D01*
X170499500Y-72461773D01*
X170479815Y-72528812D01*
X170427011Y-72574567D01*
X170357853Y-72584511D01*
X170294297Y-72555486D01*
X170257570Y-72500094D01*
X170251557Y-72481588D01*
X170155051Y-72292184D01*
X170155049Y-72292181D01*
X170155048Y-72292179D01*
X170030109Y-72120213D01*
X169879786Y-71969890D01*
X169707820Y-71844951D01*
X169518414Y-71748444D01*
X169518413Y-71748443D01*
X169518412Y-71748443D01*
X169316243Y-71682754D01*
X169316241Y-71682753D01*
X169316240Y-71682753D01*
X169148601Y-71656202D01*
X169106287Y-71649500D01*
X168893713Y-71649500D01*
X168851399Y-71656202D01*
X168683760Y-71682753D01*
X168481585Y-71748444D01*
X168292179Y-71844951D01*
X168120213Y-71969890D01*
X167969890Y-72120213D01*
X167844951Y-72292179D01*
X167748444Y-72481585D01*
X167682753Y-72683760D01*
X167649500Y-72893713D01*
X167649500Y-73106286D01*
X167680408Y-73301436D01*
X167682754Y-73316243D01*
X167739462Y-73490772D01*
X167748444Y-73518414D01*
X167844951Y-73707820D01*
X167969890Y-73879786D01*
X168120213Y-74030109D01*
X168292179Y-74155048D01*
X168292181Y-74155049D01*
X168292184Y-74155051D01*
X168481588Y-74251557D01*
X168683757Y-74317246D01*
X168893713Y-74350500D01*
X168893714Y-74350500D01*
X169106286Y-74350500D01*
X169106287Y-74350500D01*
X169316243Y-74317246D01*
X169518412Y-74251557D01*
X169707816Y-74155051D01*
X169766954Y-74112085D01*
X169879786Y-74030109D01*
X169879788Y-74030106D01*
X169879792Y-74030104D01*
X170030104Y-73879792D01*
X170030106Y-73879788D01*
X170030109Y-73879786D01*
X170149135Y-73715959D01*
X170155051Y-73707816D01*
X170251557Y-73518412D01*
X170257569Y-73499907D01*
X170297006Y-73442232D01*
X170361365Y-73415034D01*
X170430211Y-73426949D01*
X170481687Y-73474193D01*
X170499500Y-73538226D01*
X170499500Y-88375500D01*
X170479815Y-88442539D01*
X170427011Y-88488294D01*
X170375500Y-88499500D01*
X97624500Y-88499500D01*
X97557461Y-88479815D01*
X97511706Y-88427011D01*
X97500500Y-88375500D01*
X97500500Y-73538226D01*
X97520185Y-73471187D01*
X97572989Y-73425432D01*
X97642147Y-73415488D01*
X97705703Y-73444513D01*
X97742431Y-73499908D01*
X97748444Y-73518414D01*
X97844951Y-73707820D01*
X97969890Y-73879786D01*
X98120213Y-74030109D01*
X98292179Y-74155048D01*
X98292181Y-74155049D01*
X98292184Y-74155051D01*
X98481588Y-74251557D01*
X98683757Y-74317246D01*
X98893713Y-74350500D01*
X98893714Y-74350500D01*
X99106286Y-74350500D01*
X99106287Y-74350500D01*
X99316243Y-74317246D01*
X99518412Y-74251557D01*
X99707816Y-74155051D01*
X99766954Y-74112085D01*
X99879786Y-74030109D01*
X99879788Y-74030106D01*
X99879792Y-74030104D01*
X100030104Y-73879792D01*
X100136011Y-73734023D01*
X100149135Y-73715959D01*
X100149136Y-73715958D01*
X100150724Y-73713771D01*
X100155051Y-73707816D01*
X100251557Y-73518412D01*
X100317246Y-73316243D01*
X100350500Y-73106287D01*
X100350500Y-72893713D01*
X100317246Y-72683757D01*
X100251557Y-72481588D01*
X100155051Y-72292184D01*
X100155049Y-72292181D01*
X100155048Y-72292179D01*
X100030109Y-72120213D01*
X99879786Y-71969890D01*
X99707820Y-71844951D01*
X99518414Y-71748444D01*
X99518413Y-71748443D01*
X99518412Y-71748443D01*
X99316243Y-71682754D01*
X99316241Y-71682753D01*
X99316240Y-71682753D01*
X99148601Y-71656202D01*
X99106287Y-71649500D01*
X98893713Y-71649500D01*
X98851399Y-71656202D01*
X98683760Y-71682753D01*
X98481585Y-71748444D01*
X98292179Y-71844951D01*
X98120213Y-71969890D01*
X97969890Y-72120213D01*
X97844951Y-72292179D01*
X97748445Y-72481582D01*
X97748443Y-72481587D01*
X97748443Y-72481588D01*
X97742429Y-72500094D01*
X97702992Y-72557768D01*
X97638633Y-72584965D01*
X97569787Y-72573050D01*
X97518312Y-72525805D01*
X97500500Y-72461773D01*
X97500500Y-67922135D01*
X104329500Y-67922135D01*
X104329500Y-69717870D01*
X104329501Y-69717876D01*
X104335908Y-69777483D01*
X104386202Y-69912328D01*
X104386206Y-69912335D01*
X104472452Y-70027544D01*
X104472455Y-70027547D01*
X104587664Y-70113793D01*
X104587671Y-70113797D01*
X104632618Y-70130561D01*
X104722517Y-70164091D01*
X104782127Y-70170500D01*
X104792685Y-70170499D01*
X104859723Y-70190179D01*
X104880372Y-70206818D01*
X105550591Y-70877037D01*
X105487007Y-70894075D01*
X105372993Y-70959901D01*
X105279901Y-71052993D01*
X105214075Y-71167007D01*
X105197037Y-71230591D01*
X104564728Y-70598282D01*
X104564727Y-70598282D01*
X104525380Y-70652439D01*
X104428904Y-70841782D01*
X104363242Y-71043869D01*
X104363242Y-71043872D01*
X104330000Y-71253753D01*
X104330000Y-71466246D01*
X104363242Y-71676127D01*
X104363242Y-71676130D01*
X104428904Y-71878217D01*
X104525375Y-72067550D01*
X104564728Y-72121716D01*
X105197037Y-71489408D01*
X105214075Y-71552993D01*
X105279901Y-71667007D01*
X105372993Y-71760099D01*
X105487007Y-71825925D01*
X105550590Y-71842962D01*
X104918282Y-72475269D01*
X104918282Y-72475270D01*
X104972452Y-72514626D01*
X104972451Y-72514626D01*
X104981495Y-72519234D01*
X105032292Y-72567208D01*
X105049087Y-72635029D01*
X105026550Y-72701164D01*
X104981499Y-72740202D01*
X104972182Y-72744949D01*
X104800213Y-72869890D01*
X104649890Y-73020213D01*
X104524951Y-73192179D01*
X104428444Y-73381585D01*
X104362753Y-73583760D01*
X104343104Y-73707820D01*
X104329500Y-73793713D01*
X104329500Y-74006287D01*
X104330803Y-74014514D01*
X104361850Y-74210540D01*
X104362754Y-74216243D01*
X104422622Y-74400498D01*
X104428444Y-74418414D01*
X104524951Y-74607820D01*
X104649890Y-74779786D01*
X104800213Y-74930109D01*
X104972182Y-75055050D01*
X104980946Y-75059516D01*
X105031742Y-75107491D01*
X105048536Y-75175312D01*
X105025998Y-75241447D01*
X104980946Y-75280484D01*
X104972182Y-75284949D01*
X104800213Y-75409890D01*
X104649890Y-75560213D01*
X104524951Y-75732179D01*
X104428444Y-75921585D01*
X104362753Y-76123760D01*
X104329500Y-76333713D01*
X104329500Y-76546286D01*
X104360181Y-76740001D01*
X104362754Y-76756243D01*
X104411315Y-76905699D01*
X104428444Y-76958414D01*
X104524951Y-77147820D01*
X104649890Y-77319786D01*
X104800213Y-77470109D01*
X104972179Y-77595048D01*
X104972181Y-77595049D01*
X104972184Y-77595051D01*
X105161588Y-77691557D01*
X105363757Y-77757246D01*
X105573713Y-77790500D01*
X105573714Y-77790500D01*
X105786286Y-77790500D01*
X105786287Y-77790500D01*
X105996243Y-77757246D01*
X106198412Y-77691557D01*
X106387816Y-77595051D01*
X106476284Y-77530776D01*
X106559786Y-77470109D01*
X106559788Y-77470106D01*
X106559792Y-77470104D01*
X106710104Y-77319792D01*
X106731309Y-77290606D01*
X106766903Y-77241615D01*
X106822233Y-77198949D01*
X106867221Y-77190500D01*
X115618059Y-77190500D01*
X115685098Y-77210185D01*
X115730853Y-77262989D01*
X115740797Y-77332147D01*
X115711772Y-77395703D01*
X115705740Y-77402181D01*
X115678213Y-77429707D01*
X115678210Y-77429711D01*
X115590609Y-77560814D01*
X115590602Y-77560827D01*
X115530264Y-77706498D01*
X115530261Y-77706510D01*
X115499500Y-77861153D01*
X115499500Y-78018846D01*
X115530261Y-78173489D01*
X115530264Y-78173501D01*
X115590602Y-78319172D01*
X115590609Y-78319185D01*
X115678210Y-78450288D01*
X115678213Y-78450292D01*
X115789710Y-78561789D01*
X115920815Y-78649390D01*
X115920821Y-78649394D01*
X115920823Y-78649395D01*
X115920827Y-78649397D01*
X115999328Y-78681912D01*
X116039557Y-78708792D01*
X116413181Y-79082416D01*
X116446666Y-79143739D01*
X116449500Y-79170097D01*
X116449500Y-80820234D01*
X116429815Y-80887273D01*
X116428602Y-80889125D01*
X116340609Y-81020814D01*
X116340602Y-81020827D01*
X116280264Y-81166498D01*
X116280261Y-81166510D01*
X116249500Y-81321153D01*
X116249500Y-81478846D01*
X116280261Y-81633489D01*
X116280264Y-81633501D01*
X116340602Y-81779172D01*
X116340609Y-81779185D01*
X116428210Y-81910288D01*
X116428213Y-81910292D01*
X116539707Y-82021786D01*
X116539711Y-82021789D01*
X116670814Y-82109390D01*
X116670827Y-82109397D01*
X116816498Y-82169735D01*
X116816503Y-82169737D01*
X116971153Y-82200499D01*
X116971156Y-82200500D01*
X116971158Y-82200500D01*
X117128844Y-82200500D01*
X117128845Y-82200499D01*
X117283497Y-82169737D01*
X117429179Y-82109394D01*
X117560289Y-82021789D01*
X117671789Y-81910289D01*
X117759394Y-81779179D01*
X117819737Y-81633497D01*
X117850500Y-81478842D01*
X117850500Y-81321158D01*
X117850500Y-81321155D01*
X117850499Y-81321153D01*
X117819738Y-81166510D01*
X117819737Y-81166503D01*
X117819735Y-81166498D01*
X117759397Y-81020827D01*
X117759390Y-81020814D01*
X117671398Y-80889125D01*
X117650520Y-80822447D01*
X117650500Y-80820234D01*
X117650500Y-79012702D01*
X117650533Y-79009843D01*
X117650875Y-78994974D01*
X117660500Y-78959057D01*
X117660500Y-78800943D01*
X117660381Y-78800500D01*
X117619577Y-78648215D01*
X117540519Y-78511284D01*
X117136819Y-78107584D01*
X117103334Y-78046261D01*
X117100500Y-78019903D01*
X117100500Y-77861155D01*
X117100499Y-77861153D01*
X117073509Y-77725466D01*
X117069737Y-77706503D01*
X117034244Y-77620814D01*
X117009397Y-77560827D01*
X117009390Y-77560814D01*
X116921789Y-77429711D01*
X116921786Y-77429707D01*
X116894260Y-77402181D01*
X116860775Y-77340858D01*
X116865759Y-77271166D01*
X116907631Y-77215233D01*
X116973095Y-77190816D01*
X116981941Y-77190500D01*
X120108059Y-77190500D01*
X120175098Y-77210185D01*
X120220853Y-77262989D01*
X120230797Y-77332147D01*
X120201772Y-77395703D01*
X120195740Y-77402181D01*
X120108213Y-77489707D01*
X120108210Y-77489711D01*
X120020609Y-77620814D01*
X120020602Y-77620827D01*
X119960264Y-77766498D01*
X119960261Y-77766510D01*
X119929500Y-77921153D01*
X119929500Y-78078846D01*
X119960261Y-78233489D01*
X119960264Y-78233501D01*
X120020602Y-78379172D01*
X120020609Y-78379185D01*
X120108602Y-78510874D01*
X120129480Y-78577551D01*
X120129500Y-78579765D01*
X120129500Y-79338330D01*
X120129499Y-79338348D01*
X120129499Y-79504054D01*
X120129498Y-79504054D01*
X120170423Y-79656785D01*
X120171598Y-79658819D01*
X120171605Y-79658846D01*
X120171611Y-79658843D01*
X120249475Y-79793709D01*
X120249481Y-79793717D01*
X120368349Y-79912585D01*
X120368355Y-79912590D01*
X121583181Y-81127416D01*
X121616666Y-81188739D01*
X121619500Y-81215097D01*
X121619500Y-82562870D01*
X121619501Y-82562876D01*
X121625908Y-82622483D01*
X121676202Y-82757328D01*
X121676206Y-82757335D01*
X121762452Y-82872544D01*
X121762455Y-82872547D01*
X121877664Y-82958793D01*
X121877671Y-82958797D01*
X122009082Y-83007810D01*
X122065016Y-83049681D01*
X122089433Y-83115145D01*
X122074582Y-83183418D01*
X122053431Y-83211673D01*
X121939889Y-83325215D01*
X121814951Y-83497179D01*
X121718444Y-83686585D01*
X121652753Y-83888760D01*
X121619500Y-84098713D01*
X121619500Y-84311286D01*
X121652753Y-84521239D01*
X121718444Y-84723414D01*
X121814951Y-84912820D01*
X121939890Y-85084786D01*
X122090213Y-85235109D01*
X122262179Y-85360048D01*
X122262181Y-85360049D01*
X122262184Y-85360051D01*
X122451588Y-85456557D01*
X122653757Y-85522246D01*
X122863713Y-85555500D01*
X122863714Y-85555500D01*
X123076286Y-85555500D01*
X123076287Y-85555500D01*
X123286243Y-85522246D01*
X123488412Y-85456557D01*
X123677816Y-85360051D01*
X123699789Y-85344086D01*
X123849786Y-85235109D01*
X123849788Y-85235106D01*
X123849792Y-85235104D01*
X124000104Y-85084792D01*
X124000106Y-85084788D01*
X124000109Y-85084786D01*
X124125048Y-84912820D01*
X124125047Y-84912820D01*
X124125051Y-84912816D01*
X124221557Y-84723412D01*
X124287246Y-84521243D01*
X124320500Y-84311287D01*
X124320500Y-84098713D01*
X124287246Y-83888757D01*
X124221557Y-83686588D01*
X124125051Y-83497184D01*
X124125049Y-83497181D01*
X124125048Y-83497179D01*
X124000109Y-83325213D01*
X123886569Y-83211673D01*
X123853084Y-83150350D01*
X123858068Y-83080658D01*
X123899940Y-83024725D01*
X123930915Y-83007810D01*
X124062331Y-82958796D01*
X124177546Y-82872546D01*
X124263796Y-82757331D01*
X124314091Y-82622483D01*
X124320500Y-82562873D01*
X124320499Y-80767128D01*
X124314091Y-80707517D01*
X124263796Y-80572669D01*
X124263795Y-80572668D01*
X124263793Y-80572664D01*
X124177547Y-80457455D01*
X124177544Y-80457452D01*
X124062335Y-80371206D01*
X124062328Y-80371202D01*
X123927482Y-80320908D01*
X123927483Y-80320908D01*
X123867883Y-80314501D01*
X123867881Y-80314500D01*
X123867873Y-80314500D01*
X123867865Y-80314500D01*
X122520097Y-80314500D01*
X122453058Y-80294815D01*
X122432416Y-80278181D01*
X121366819Y-79212584D01*
X121333334Y-79151261D01*
X121330500Y-79124903D01*
X121330500Y-78579765D01*
X121350185Y-78512726D01*
X121351398Y-78510874D01*
X121439390Y-78379185D01*
X121439390Y-78379184D01*
X121439394Y-78379179D01*
X121499737Y-78233497D01*
X121530500Y-78078842D01*
X121530500Y-77921158D01*
X121530500Y-77921155D01*
X121530499Y-77921153D01*
X121518565Y-77861158D01*
X121499737Y-77766503D01*
X121482739Y-77725465D01*
X121439397Y-77620827D01*
X121439390Y-77620814D01*
X121351789Y-77489711D01*
X121351786Y-77489707D01*
X121264260Y-77402181D01*
X121230775Y-77340858D01*
X121235759Y-77271166D01*
X121277631Y-77215233D01*
X121343095Y-77190816D01*
X121351941Y-77190500D01*
X121816082Y-77190500D01*
X121916083Y-77190500D01*
X122063917Y-77190500D01*
X127927770Y-77190500D01*
X127994809Y-77210185D01*
X128015451Y-77226819D01*
X129401579Y-78612947D01*
X129401582Y-78612949D01*
X129401585Y-78612952D01*
X129427113Y-78630009D01*
X129427114Y-78630010D01*
X129524508Y-78695086D01*
X129574665Y-78715861D01*
X129581080Y-78718518D01*
X129661088Y-78751659D01*
X129777241Y-78774763D01*
X129800380Y-78779365D01*
X129806081Y-78780500D01*
X129806082Y-78780500D01*
X129806083Y-78780500D01*
X129953918Y-78780500D01*
X130079582Y-78780500D01*
X130146621Y-78800185D01*
X130179900Y-78831615D01*
X130213028Y-78877212D01*
X130213032Y-78877217D01*
X130357786Y-79021971D01*
X130490973Y-79118735D01*
X130523390Y-79142287D01*
X130639607Y-79201503D01*
X130705776Y-79235218D01*
X130705778Y-79235218D01*
X130705781Y-79235220D01*
X130810137Y-79269127D01*
X130900465Y-79298477D01*
X131001557Y-79314488D01*
X131102648Y-79330500D01*
X131102649Y-79330500D01*
X131307351Y-79330500D01*
X131307352Y-79330500D01*
X131509534Y-79298477D01*
X131704219Y-79235220D01*
X131886610Y-79142287D01*
X131979590Y-79074732D01*
X132052213Y-79021971D01*
X132052215Y-79021968D01*
X132052219Y-79021966D01*
X132196966Y-78877219D01*
X132196968Y-78877215D01*
X132196971Y-78877213D01*
X132271404Y-78774763D01*
X132317287Y-78711610D01*
X132410220Y-78529219D01*
X132473477Y-78334534D01*
X132505500Y-78132352D01*
X132505500Y-77927648D01*
X132473477Y-77725466D01*
X132410220Y-77530781D01*
X132410218Y-77530778D01*
X132410218Y-77530776D01*
X132358720Y-77429707D01*
X132317287Y-77348390D01*
X132275305Y-77290606D01*
X132196971Y-77182786D01*
X132052213Y-77038028D01*
X131886614Y-76917715D01*
X131863031Y-76905699D01*
X131793917Y-76870483D01*
X131743123Y-76822511D01*
X131726328Y-76754690D01*
X131748865Y-76688555D01*
X131793917Y-76649516D01*
X131886610Y-76602287D01*
X131963688Y-76546287D01*
X132052213Y-76481971D01*
X132052215Y-76481968D01*
X132052219Y-76481966D01*
X132196966Y-76337219D01*
X132217270Y-76309271D01*
X132272597Y-76266605D01*
X132342210Y-76260623D01*
X132404007Y-76293226D01*
X132432618Y-76335844D01*
X133255262Y-78379185D01*
X133863853Y-79890847D01*
X133898545Y-79960851D01*
X133898548Y-79960856D01*
X133898551Y-79960862D01*
X133918106Y-79993674D01*
X133963177Y-80057504D01*
X133963183Y-80057512D01*
X136152517Y-82698457D01*
X136171887Y-82720488D01*
X136171906Y-82720508D01*
X136181729Y-82731046D01*
X136202372Y-82751940D01*
X136202375Y-82751942D01*
X136202376Y-82751943D01*
X136319503Y-82835488D01*
X136319505Y-82835489D01*
X136319508Y-82835491D01*
X136381585Y-82867556D01*
X136381587Y-82867557D01*
X136517517Y-82914723D01*
X141104561Y-83802538D01*
X141183790Y-83811468D01*
X141183800Y-83811468D01*
X141183807Y-83811469D01*
X141222749Y-83812766D01*
X141222753Y-83812765D01*
X141222762Y-83812766D01*
X141302406Y-83809128D01*
X146503017Y-83157818D01*
X146552287Y-83149152D01*
X146576188Y-83143717D01*
X146624355Y-83130227D01*
X146752933Y-83065658D01*
X146752935Y-83065656D01*
X146752938Y-83065655D01*
X146775881Y-83049681D01*
X146810274Y-83025736D01*
X146915452Y-82927560D01*
X147719472Y-81927209D01*
X147725835Y-81919124D01*
X147728915Y-81915128D01*
X147735107Y-81906924D01*
X147803268Y-81780213D01*
X147824871Y-81721162D01*
X147825447Y-81719829D01*
X147827274Y-81714597D01*
X147827275Y-81714595D01*
X147856976Y-81573814D01*
X147971769Y-79813660D01*
X147972574Y-79797193D01*
X147972837Y-79789106D01*
X147973104Y-79772604D01*
X147952608Y-79630192D01*
X147932914Y-79563155D01*
X147932913Y-79563152D01*
X147932911Y-79563147D01*
X147873126Y-79432285D01*
X147873125Y-79432283D01*
X147593896Y-78997927D01*
X147293762Y-78531052D01*
X147274069Y-78464017D01*
X147293744Y-78396975D01*
X147316437Y-78377305D01*
X147313972Y-78374749D01*
X147349999Y-78340000D01*
X147350000Y-78340000D01*
X147410000Y-76680000D01*
X147404459Y-75638385D01*
X147400000Y-74799999D01*
X139950784Y-74741344D01*
X139883901Y-74721132D01*
X139851441Y-74690232D01*
X139816969Y-74642784D01*
X139672213Y-74498028D01*
X139506614Y-74377715D01*
X139493441Y-74371003D01*
X139413917Y-74330483D01*
X139363123Y-74282511D01*
X139346328Y-74214690D01*
X139368865Y-74148555D01*
X139413917Y-74109516D01*
X139506610Y-74062287D01*
X139550900Y-74030109D01*
X139672213Y-73941971D01*
X139672215Y-73941968D01*
X139672219Y-73941966D01*
X139816966Y-73797219D01*
X139816968Y-73797215D01*
X139816971Y-73797213D01*
X139876005Y-73715958D01*
X139937287Y-73631610D01*
X140030220Y-73449219D01*
X140093477Y-73254534D01*
X140125500Y-73052352D01*
X140125500Y-72847648D01*
X140093477Y-72645466D01*
X140093476Y-72645462D01*
X140093476Y-72645461D01*
X140057391Y-72534403D01*
X140045964Y-72499234D01*
X150109500Y-72499234D01*
X150109500Y-73500765D01*
X150119990Y-73603435D01*
X150175114Y-73769791D01*
X150175119Y-73769802D01*
X150267117Y-73918952D01*
X150267120Y-73918956D01*
X150391043Y-74042879D01*
X150391047Y-74042882D01*
X150540197Y-74134880D01*
X150540200Y-74134881D01*
X150540206Y-74134885D01*
X150706565Y-74190010D01*
X150809242Y-74200500D01*
X150809247Y-74200500D01*
X152110753Y-74200500D01*
X152110758Y-74200500D01*
X152213435Y-74190010D01*
X152379794Y-74134885D01*
X152528956Y-74042880D01*
X152652880Y-73918956D01*
X152744885Y-73769794D01*
X152800010Y-73603435D01*
X152810500Y-73500758D01*
X152810500Y-73250000D01*
X155214638Y-73250000D01*
X155219548Y-73281002D01*
X155277914Y-73460637D01*
X155363670Y-73628940D01*
X155474685Y-73781741D01*
X155474689Y-73781746D01*
X155608253Y-73915310D01*
X155608258Y-73915314D01*
X155761059Y-74026329D01*
X155929362Y-74112085D01*
X156108996Y-74170451D01*
X156290000Y-74199119D01*
X156290000Y-74199118D01*
X156790000Y-74199118D01*
X156971001Y-74170451D01*
X156971004Y-74170451D01*
X157150637Y-74112085D01*
X157318940Y-74026329D01*
X157471741Y-73915314D01*
X157471746Y-73915310D01*
X157605310Y-73781746D01*
X157605314Y-73781741D01*
X157716329Y-73628940D01*
X157802085Y-73460637D01*
X157860451Y-73281002D01*
X157865362Y-73250000D01*
X156790000Y-73250000D01*
X156790000Y-74199118D01*
X156290000Y-74199118D01*
X156290000Y-73250000D01*
X155214638Y-73250000D01*
X152810500Y-73250000D01*
X152810500Y-72953922D01*
X156190000Y-72953922D01*
X156190000Y-73046078D01*
X156213852Y-73135095D01*
X156259930Y-73214905D01*
X156325095Y-73280070D01*
X156404905Y-73326148D01*
X156493922Y-73350000D01*
X156586078Y-73350000D01*
X156675095Y-73326148D01*
X156754905Y-73280070D01*
X156820070Y-73214905D01*
X156866148Y-73135095D01*
X156890000Y-73046078D01*
X156890000Y-72953922D01*
X156866148Y-72864905D01*
X156820070Y-72785095D01*
X156784975Y-72750000D01*
X156790000Y-72750000D01*
X157865362Y-72750000D01*
X157860451Y-72718997D01*
X157802085Y-72539362D01*
X157716329Y-72371059D01*
X157605314Y-72218258D01*
X157605310Y-72218253D01*
X157471746Y-72084689D01*
X157471741Y-72084685D01*
X157318940Y-71973670D01*
X157150637Y-71887914D01*
X156971003Y-71829548D01*
X156790000Y-71800879D01*
X156790000Y-72750000D01*
X156784975Y-72750000D01*
X156754905Y-72719930D01*
X156675095Y-72673852D01*
X156586078Y-72650000D01*
X156493922Y-72650000D01*
X156404905Y-72673852D01*
X156325095Y-72719930D01*
X156259930Y-72785095D01*
X156213852Y-72864905D01*
X156190000Y-72953922D01*
X152810500Y-72953922D01*
X152810500Y-72750000D01*
X155214638Y-72750000D01*
X156290000Y-72750000D01*
X156290000Y-71800879D01*
X156108997Y-71829548D01*
X156108994Y-71829548D01*
X155929362Y-71887914D01*
X155761059Y-71973670D01*
X155608258Y-72084685D01*
X155608253Y-72084689D01*
X155474689Y-72218253D01*
X155474685Y-72218258D01*
X155363670Y-72371059D01*
X155277914Y-72539362D01*
X155219548Y-72718997D01*
X155214638Y-72750000D01*
X152810500Y-72750000D01*
X152810500Y-72499242D01*
X152800010Y-72396565D01*
X152744885Y-72230206D01*
X152744881Y-72230200D01*
X152744880Y-72230197D01*
X152652882Y-72081047D01*
X152652879Y-72081043D01*
X152528956Y-71957120D01*
X152528952Y-71957117D01*
X152379802Y-71865119D01*
X152379796Y-71865116D01*
X152379794Y-71865115D01*
X152213435Y-71809990D01*
X152110765Y-71799500D01*
X152110758Y-71799500D01*
X150809242Y-71799500D01*
X150809234Y-71799500D01*
X150706564Y-71809990D01*
X150540208Y-71865114D01*
X150540197Y-71865119D01*
X150391047Y-71957117D01*
X150391043Y-71957120D01*
X150267120Y-72081043D01*
X150267117Y-72081047D01*
X150175119Y-72230197D01*
X150175114Y-72230208D01*
X150119990Y-72396564D01*
X150109500Y-72499234D01*
X140045964Y-72499234D01*
X140033993Y-72462393D01*
X140030220Y-72450781D01*
X140030218Y-72450778D01*
X140030218Y-72450776D01*
X139996503Y-72384607D01*
X139937287Y-72268390D01*
X139929556Y-72257749D01*
X139816971Y-72102786D01*
X139672213Y-71958028D01*
X139506611Y-71837713D01*
X139413369Y-71790203D01*
X139362574Y-71742229D01*
X139345779Y-71674407D01*
X139368317Y-71608273D01*
X139413371Y-71569234D01*
X139506346Y-71521861D01*
X139506347Y-71521861D01*
X139550921Y-71489474D01*
X138871447Y-70810000D01*
X138877661Y-70810000D01*
X138979394Y-70782741D01*
X139070606Y-70730080D01*
X139145080Y-70655606D01*
X139197741Y-70564394D01*
X139225000Y-70462661D01*
X139225000Y-70456447D01*
X139904474Y-71135921D01*
X139936859Y-71091349D01*
X140029755Y-70909031D01*
X140092990Y-70714417D01*
X140125000Y-70512317D01*
X140125000Y-70307682D01*
X140092990Y-70105582D01*
X140029755Y-69910968D01*
X139936859Y-69728650D01*
X139904474Y-69684077D01*
X139904474Y-69684076D01*
X139225000Y-70363551D01*
X139225000Y-70357339D01*
X139197741Y-70255606D01*
X139145080Y-70164394D01*
X139070606Y-70089920D01*
X138979394Y-70037259D01*
X138877661Y-70010000D01*
X138871446Y-70010000D01*
X139550922Y-69330524D01*
X139550921Y-69330523D01*
X139506359Y-69298147D01*
X139506350Y-69298141D01*
X139324031Y-69205244D01*
X139129417Y-69142009D01*
X138927317Y-69110000D01*
X138722683Y-69110000D01*
X138520582Y-69142009D01*
X138325968Y-69205244D01*
X138143644Y-69298143D01*
X138099077Y-69330523D01*
X138099077Y-69330524D01*
X138778554Y-70010000D01*
X138772339Y-70010000D01*
X138670606Y-70037259D01*
X138579394Y-70089920D01*
X138504920Y-70164394D01*
X138452259Y-70255606D01*
X138425000Y-70357339D01*
X138425000Y-70363553D01*
X137745524Y-69684077D01*
X137745523Y-69684077D01*
X137713143Y-69728644D01*
X137620244Y-69910968D01*
X137557009Y-70105582D01*
X137525000Y-70307682D01*
X137525000Y-70512317D01*
X137557009Y-70714417D01*
X137620244Y-70909031D01*
X137713141Y-71091350D01*
X137713147Y-71091359D01*
X137745523Y-71135921D01*
X137745524Y-71135922D01*
X138425000Y-70456446D01*
X138425000Y-70462661D01*
X138452259Y-70564394D01*
X138504920Y-70655606D01*
X138579394Y-70730080D01*
X138670606Y-70782741D01*
X138772339Y-70810000D01*
X138778553Y-70810000D01*
X138099076Y-71489474D01*
X138143652Y-71521861D01*
X138236628Y-71569234D01*
X138287425Y-71617208D01*
X138304220Y-71685029D01*
X138281683Y-71751164D01*
X138236630Y-71790203D01*
X138143388Y-71837713D01*
X137977786Y-71958028D01*
X137833028Y-72102786D01*
X137712715Y-72268386D01*
X137619781Y-72450776D01*
X137556522Y-72645465D01*
X137524500Y-72847648D01*
X137524500Y-73052351D01*
X137556522Y-73254534D01*
X137619781Y-73449223D01*
X137683691Y-73574653D01*
X137701978Y-73610542D01*
X137712715Y-73631613D01*
X137833028Y-73797213D01*
X137977786Y-73941971D01*
X138099100Y-74030109D01*
X138143390Y-74062287D01*
X138234840Y-74108883D01*
X138236080Y-74109515D01*
X138286876Y-74157490D01*
X138303671Y-74225311D01*
X138281134Y-74291446D01*
X138236080Y-74330485D01*
X138143386Y-74377715D01*
X137977786Y-74498028D01*
X137833028Y-74642786D01*
X137712715Y-74808386D01*
X137619781Y-74990776D01*
X137556522Y-75185465D01*
X137533914Y-75328211D01*
X137503985Y-75391346D01*
X137444673Y-75428277D01*
X137374811Y-75427279D01*
X137316578Y-75388669D01*
X137288464Y-75324705D01*
X137287998Y-75320558D01*
X137284610Y-75284949D01*
X136975974Y-72040993D01*
X136975418Y-72029594D01*
X136975375Y-72013909D01*
X136957261Y-65402334D01*
X136976762Y-65335243D01*
X137029441Y-65289343D01*
X137083688Y-65278020D01*
X138668779Y-65309100D01*
X138735418Y-65330095D01*
X138754027Y-65345395D01*
X140963181Y-67554549D01*
X140996666Y-67615872D01*
X140999500Y-67642230D01*
X140999500Y-68195396D01*
X140990062Y-68242844D01*
X140980263Y-68266503D01*
X140980262Y-68266506D01*
X140980260Y-68266511D01*
X140949500Y-68421153D01*
X140949500Y-68578846D01*
X140980261Y-68733489D01*
X140980264Y-68733501D01*
X141040602Y-68879172D01*
X141040609Y-68879185D01*
X141128210Y-69010288D01*
X141128213Y-69010292D01*
X141239707Y-69121786D01*
X141239711Y-69121789D01*
X141370814Y-69209390D01*
X141370827Y-69209397D01*
X141516498Y-69269735D01*
X141516503Y-69269737D01*
X141634268Y-69293162D01*
X141671153Y-69300499D01*
X141671156Y-69300500D01*
X141671158Y-69300500D01*
X141828844Y-69300500D01*
X141828845Y-69300499D01*
X141983497Y-69269737D01*
X142129179Y-69209394D01*
X142260289Y-69121789D01*
X142371789Y-69010289D01*
X142459394Y-68879179D01*
X142519737Y-68733497D01*
X142550500Y-68578842D01*
X142550500Y-68421158D01*
X142550500Y-68421155D01*
X142550499Y-68421153D01*
X142519739Y-68266511D01*
X142519738Y-68266508D01*
X142519737Y-68266503D01*
X142509937Y-68242844D01*
X142500500Y-68195396D01*
X142500500Y-67206079D01*
X142471659Y-67061092D01*
X142471658Y-67061091D01*
X142471658Y-67061087D01*
X142415084Y-66924505D01*
X142382186Y-66875270D01*
X142382185Y-66875268D01*
X142332956Y-66801589D01*
X142332952Y-66801584D01*
X140853859Y-65322491D01*
X140820374Y-65261168D01*
X140825358Y-65191476D01*
X140846186Y-65155540D01*
X140847820Y-65153573D01*
X140847827Y-65153568D01*
X140939803Y-65042929D01*
X140996885Y-64910857D01*
X141015195Y-64843429D01*
X141015195Y-64843427D01*
X141016054Y-64836981D01*
X141016122Y-64835888D01*
X141032755Y-64700622D01*
X141012455Y-63707934D01*
X140985952Y-62411947D01*
X141327349Y-62411947D01*
X141327349Y-62648052D01*
X141364283Y-62881247D01*
X141437246Y-63105802D01*
X141544436Y-63316174D01*
X141604687Y-63399104D01*
X141604689Y-63399105D01*
X142344386Y-62659408D01*
X142361424Y-62722993D01*
X142427250Y-62837007D01*
X142520342Y-62930099D01*
X142634356Y-62995925D01*
X142697939Y-63012962D01*
X141958242Y-63752658D01*
X142041177Y-63812914D01*
X142251546Y-63920102D01*
X142476101Y-63993065D01*
X142476100Y-63993065D01*
X142709297Y-64030000D01*
X142945401Y-64030000D01*
X143178596Y-63993065D01*
X143403151Y-63920102D01*
X143613512Y-63812918D01*
X143613518Y-63812914D01*
X143696453Y-63752658D01*
X143696454Y-63752658D01*
X142956757Y-63012962D01*
X143020342Y-62995925D01*
X143134356Y-62930099D01*
X143227448Y-62837007D01*
X143293274Y-62722993D01*
X143310311Y-62659408D01*
X144050007Y-63399105D01*
X144050007Y-63399104D01*
X144110263Y-63316169D01*
X144110267Y-63316163D01*
X144151631Y-63234983D01*
X153179500Y-63234983D01*
X153179500Y-64585001D01*
X153179501Y-64585018D01*
X153190000Y-64687796D01*
X153190001Y-64687799D01*
X153239074Y-64835888D01*
X153245186Y-64854334D01*
X153337288Y-65003656D01*
X153461344Y-65127712D01*
X153610666Y-65219814D01*
X153777203Y-65274999D01*
X153879991Y-65285500D01*
X154680008Y-65285499D01*
X154680016Y-65285498D01*
X154680019Y-65285498D01*
X154753223Y-65278020D01*
X154782797Y-65274999D01*
X154949334Y-65219814D01*
X155098656Y-65127712D01*
X155222712Y-65003656D01*
X155262581Y-64939016D01*
X155314525Y-64892294D01*
X155383488Y-64881071D01*
X155447570Y-64908914D01*
X155455799Y-64916434D01*
X155563397Y-65024032D01*
X155703475Y-65125804D01*
X155857744Y-65204408D01*
X156022415Y-65257914D01*
X156022414Y-65257914D01*
X156029999Y-65259115D01*
X156030000Y-65259114D01*
X156030000Y-64190330D01*
X156049745Y-64210075D01*
X156135255Y-64259444D01*
X156230630Y-64285000D01*
X156329370Y-64285000D01*
X156424745Y-64259444D01*
X156510255Y-64210075D01*
X156530000Y-64190330D01*
X156530000Y-65259115D01*
X156537584Y-65257914D01*
X156702255Y-65204408D01*
X156856524Y-65125804D01*
X156996602Y-65024032D01*
X157119032Y-64901602D01*
X157220804Y-64761524D01*
X157299408Y-64607257D01*
X157352914Y-64442584D01*
X157380000Y-64271571D01*
X157380000Y-64160000D01*
X156560330Y-64160000D01*
X156580075Y-64140255D01*
X156629444Y-64054745D01*
X156655000Y-63959370D01*
X156655000Y-63860630D01*
X156629444Y-63765255D01*
X156580075Y-63679745D01*
X156560330Y-63660000D01*
X157380000Y-63660000D01*
X157380000Y-63548428D01*
X157352914Y-63377415D01*
X157299408Y-63212742D01*
X157220804Y-63058475D01*
X157119032Y-62918397D01*
X156996602Y-62795967D01*
X156856524Y-62694195D01*
X156702257Y-62615591D01*
X156537589Y-62562087D01*
X156537581Y-62562085D01*
X156530000Y-62560884D01*
X156530000Y-63629670D01*
X156510255Y-63609925D01*
X156424745Y-63560556D01*
X156329370Y-63535000D01*
X156230630Y-63535000D01*
X156135255Y-63560556D01*
X156049745Y-63609925D01*
X156030000Y-63629670D01*
X156030000Y-62560884D01*
X156029999Y-62560884D01*
X156022418Y-62562085D01*
X156022410Y-62562087D01*
X155857742Y-62615591D01*
X155703475Y-62694195D01*
X155563401Y-62795964D01*
X155455799Y-62903566D01*
X155394476Y-62937050D01*
X155324784Y-62932066D01*
X155268851Y-62890194D01*
X155262585Y-62880988D01*
X155222712Y-62816344D01*
X155098656Y-62692288D01*
X154949334Y-62600186D01*
X154782797Y-62545001D01*
X154782795Y-62545000D01*
X154680010Y-62534500D01*
X153879998Y-62534500D01*
X153879980Y-62534501D01*
X153777203Y-62545000D01*
X153777200Y-62545001D01*
X153610668Y-62600185D01*
X153610663Y-62600187D01*
X153461342Y-62692289D01*
X153337289Y-62816342D01*
X153245187Y-62965663D01*
X153245186Y-62965666D01*
X153190001Y-63132203D01*
X153190001Y-63132204D01*
X153190000Y-63132204D01*
X153179500Y-63234983D01*
X144151631Y-63234983D01*
X144181919Y-63175539D01*
X144217451Y-63105802D01*
X144290414Y-62881247D01*
X144327349Y-62648052D01*
X144327349Y-62411947D01*
X144290414Y-62178752D01*
X144217451Y-61954197D01*
X144110263Y-61743828D01*
X144050007Y-61660894D01*
X144050007Y-61660893D01*
X143310311Y-62400590D01*
X143293274Y-62337007D01*
X143227448Y-62222993D01*
X143134356Y-62129901D01*
X143020342Y-62064075D01*
X142956758Y-62047037D01*
X143696454Y-61307340D01*
X143696453Y-61307338D01*
X143613523Y-61247087D01*
X143403151Y-61139897D01*
X143178596Y-61066934D01*
X143178597Y-61066934D01*
X142945401Y-61030000D01*
X142709297Y-61030000D01*
X142476101Y-61066934D01*
X142251546Y-61139897D01*
X142041179Y-61247084D01*
X141958243Y-61307340D01*
X142697940Y-62047037D01*
X142634356Y-62064075D01*
X142520342Y-62129901D01*
X142427250Y-62222993D01*
X142361424Y-62337007D01*
X142344386Y-62400590D01*
X141604689Y-61660894D01*
X141544433Y-61743830D01*
X141437246Y-61954197D01*
X141364283Y-62178752D01*
X141327349Y-62411947D01*
X140985952Y-62411947D01*
X140985904Y-62409610D01*
X140964381Y-61357134D01*
X140937868Y-60060653D01*
X140937867Y-60060645D01*
X140925517Y-59959462D01*
X140914535Y-59910915D01*
X140882136Y-59814274D01*
X140882135Y-59814270D01*
X140804823Y-59692926D01*
X140759276Y-59639943D01*
X140759268Y-59639936D01*
X140759263Y-59639931D01*
X140650913Y-59545297D01*
X140650908Y-59545294D01*
X140520272Y-59485013D01*
X140520270Y-59485012D01*
X140458718Y-59466676D01*
X140456767Y-59465997D01*
X140453310Y-59465064D01*
X140453304Y-59465063D01*
X140343897Y-59448895D01*
X140310963Y-59444028D01*
X140310964Y-59444028D01*
X130222365Y-59404504D01*
X130220456Y-59404501D01*
X130220255Y-59404501D01*
X130219712Y-59404501D01*
X130219033Y-59404502D01*
X130217822Y-59404504D01*
X130217821Y-59404503D01*
X124672938Y-59423789D01*
X124593817Y-59424065D01*
X124562133Y-59427695D01*
X124482921Y-59436773D01*
X124429893Y-59448895D01*
X124429884Y-59448897D01*
X124429880Y-59448899D01*
X124384338Y-59464770D01*
X124324501Y-59485624D01*
X124204846Y-59565522D01*
X124152853Y-59612196D01*
X124060557Y-59722564D01*
X124003091Y-59854466D01*
X124003091Y-59854467D01*
X123984755Y-59921220D01*
X123984592Y-59921798D01*
X123984582Y-59921847D01*
X123966607Y-60064605D01*
X123996606Y-61774500D01*
X124008647Y-62460814D01*
X124027308Y-63524500D01*
X124044456Y-64501972D01*
X124044474Y-64504686D01*
X124024965Y-68991788D01*
X124024965Y-68991806D01*
X124029347Y-69060446D01*
X124029349Y-69060461D01*
X124033771Y-69093801D01*
X124033777Y-69093839D01*
X124047439Y-69161244D01*
X124047440Y-69161247D01*
X124094704Y-69269737D01*
X124104906Y-69293154D01*
X124104910Y-69293162D01*
X124134921Y-69341712D01*
X124138184Y-69348451D01*
X124233943Y-69462960D01*
X124281941Y-69495008D01*
X124353602Y-69542858D01*
X124353608Y-69542861D01*
X124353610Y-69542862D01*
X124416638Y-69572993D01*
X124459588Y-69586426D01*
X124553956Y-69615943D01*
X128737859Y-70292610D01*
X128800896Y-70322745D01*
X128837634Y-70382177D01*
X128841071Y-70430662D01*
X128487052Y-73214540D01*
X128459068Y-73278560D01*
X128433769Y-73301436D01*
X128010700Y-73589123D01*
X127944195Y-73610542D01*
X127942876Y-73610569D01*
X124823249Y-73658415D01*
X124823249Y-73658416D01*
X124720000Y-73660000D01*
X124831857Y-75561589D01*
X124831873Y-75564939D01*
X124812492Y-75632067D01*
X124759895Y-75678060D01*
X124707874Y-75689500D01*
X124048588Y-75689500D01*
X123981549Y-75669815D01*
X123935794Y-75617011D01*
X123925850Y-75547853D01*
X123934027Y-75518048D01*
X123991656Y-75378917D01*
X123991658Y-75378913D01*
X124008250Y-75295500D01*
X124020500Y-75233920D01*
X124020500Y-74249024D01*
X124040185Y-74181985D01*
X124071616Y-74148705D01*
X124071823Y-74148555D01*
X124182365Y-74068242D01*
X124338242Y-73912365D01*
X124467815Y-73734022D01*
X124567895Y-73537606D01*
X124636015Y-73327951D01*
X124670500Y-73110222D01*
X124670500Y-72889778D01*
X124636015Y-72672049D01*
X124584742Y-72514244D01*
X124567896Y-72462396D01*
X124567895Y-72462393D01*
X124516933Y-72362376D01*
X124467815Y-72265978D01*
X124363004Y-72121717D01*
X124338247Y-72087641D01*
X124338243Y-72087636D01*
X124182363Y-71931756D01*
X124182358Y-71931752D01*
X124004025Y-71802187D01*
X124004024Y-71802186D01*
X124004022Y-71802185D01*
X123941096Y-71770122D01*
X123807606Y-71702104D01*
X123807603Y-71702103D01*
X123597952Y-71633985D01*
X123435612Y-71608273D01*
X123380222Y-71599500D01*
X123159778Y-71599500D01*
X123104388Y-71608273D01*
X122942047Y-71633985D01*
X122732396Y-71702103D01*
X122732393Y-71702104D01*
X122535974Y-71802187D01*
X122357641Y-71931752D01*
X122357636Y-71931756D01*
X122307463Y-71981929D01*
X122246140Y-72015413D01*
X122176448Y-72010428D01*
X122120515Y-71968557D01*
X122103601Y-71937580D01*
X122073797Y-71857671D01*
X122073793Y-71857664D01*
X121987547Y-71742455D01*
X121987544Y-71742452D01*
X121872335Y-71656206D01*
X121872328Y-71656202D01*
X121737482Y-71605908D01*
X121737483Y-71605908D01*
X121677883Y-71599501D01*
X121677881Y-71599500D01*
X121677873Y-71599500D01*
X121677864Y-71599500D01*
X119782129Y-71599500D01*
X119782123Y-71599501D01*
X119722516Y-71605908D01*
X119587671Y-71656202D01*
X119587664Y-71656206D01*
X119472455Y-71742452D01*
X119472452Y-71742455D01*
X119386206Y-71857664D01*
X119386202Y-71857671D01*
X119335908Y-71992517D01*
X119329501Y-72052116D01*
X119329500Y-72052135D01*
X119329500Y-73947870D01*
X119329501Y-73947876D01*
X119335908Y-74007483D01*
X119386202Y-74142328D01*
X119386206Y-74142335D01*
X119472452Y-74257544D01*
X119472455Y-74257547D01*
X119587664Y-74343793D01*
X119587671Y-74343797D01*
X119722517Y-74394091D01*
X119722516Y-74394091D01*
X119729444Y-74394835D01*
X119782127Y-74400500D01*
X121677872Y-74400499D01*
X121737483Y-74394091D01*
X121872331Y-74343796D01*
X121987546Y-74257546D01*
X122073796Y-74142331D01*
X122101428Y-74068245D01*
X122103601Y-74062420D01*
X122120919Y-74039284D01*
X122135809Y-74014514D01*
X122141600Y-74011656D01*
X122145471Y-74006486D01*
X122172549Y-73996385D01*
X122198467Y-73983598D01*
X122204884Y-73984325D01*
X122210936Y-73982068D01*
X122239177Y-73988211D01*
X122267892Y-73991465D01*
X122274471Y-73995888D01*
X122279209Y-73996919D01*
X122298142Y-74009648D01*
X122303010Y-74013617D01*
X122357635Y-74068242D01*
X122471191Y-74150745D01*
X122473859Y-74152920D01*
X122491746Y-74179000D01*
X122511051Y-74204035D01*
X122511856Y-74208322D01*
X122513377Y-74210540D01*
X122513586Y-74217536D01*
X122519500Y-74249024D01*
X122519500Y-74797770D01*
X122499815Y-74864809D01*
X122483181Y-74885451D01*
X121715451Y-75653181D01*
X121654128Y-75686666D01*
X121627770Y-75689500D01*
X106867221Y-75689500D01*
X106800182Y-75669815D01*
X106766903Y-75638385D01*
X106710107Y-75560211D01*
X106559786Y-75409890D01*
X106387820Y-75284951D01*
X106387115Y-75284591D01*
X106379054Y-75280485D01*
X106328259Y-75232512D01*
X106311463Y-75164692D01*
X106333999Y-75098556D01*
X106379054Y-75059515D01*
X106387816Y-75055051D01*
X106476284Y-74990776D01*
X106559786Y-74930109D01*
X106559788Y-74930106D01*
X106559792Y-74930104D01*
X106710104Y-74779792D01*
X106710106Y-74779788D01*
X106710109Y-74779786D01*
X106835048Y-74607820D01*
X106835047Y-74607820D01*
X106835051Y-74607816D01*
X106931557Y-74418412D01*
X106997246Y-74216243D01*
X107030500Y-74006287D01*
X107030500Y-73793713D01*
X106997246Y-73583757D01*
X106931557Y-73381588D01*
X106835051Y-73192184D01*
X106835049Y-73192181D01*
X106835048Y-73192179D01*
X106710109Y-73020213D01*
X106588888Y-72898992D01*
X111989500Y-72898992D01*
X111989500Y-73101007D01*
X112028907Y-73299119D01*
X112028909Y-73299127D01*
X112106213Y-73485755D01*
X112159904Y-73566109D01*
X112180782Y-73632787D01*
X112162297Y-73700167D01*
X112159904Y-73703891D01*
X112106213Y-73784244D01*
X112028909Y-73970872D01*
X112028907Y-73970880D01*
X111989500Y-74168992D01*
X111989500Y-74371007D01*
X112028907Y-74569119D01*
X112028909Y-74569127D01*
X112106212Y-74755752D01*
X112106217Y-74755762D01*
X112218441Y-74923718D01*
X112361281Y-75066558D01*
X112529237Y-75178782D01*
X112529241Y-75178784D01*
X112529244Y-75178786D01*
X112715873Y-75256091D01*
X112913992Y-75295499D01*
X112913996Y-75295500D01*
X112913997Y-75295500D01*
X113566004Y-75295500D01*
X113566005Y-75295499D01*
X113764127Y-75256091D01*
X113950756Y-75178786D01*
X114118718Y-75066558D01*
X114261558Y-74923718D01*
X114300920Y-74864809D01*
X114373782Y-74755762D01*
X114373782Y-74755761D01*
X114373786Y-74755756D01*
X114451091Y-74569127D01*
X114490500Y-74371003D01*
X114490500Y-74168997D01*
X114451091Y-73970873D01*
X114386230Y-73814286D01*
X114373787Y-73784246D01*
X114372117Y-73781746D01*
X114320094Y-73703889D01*
X114299217Y-73637214D01*
X114317701Y-73569834D01*
X114320078Y-73566134D01*
X114373786Y-73485756D01*
X114451091Y-73299127D01*
X114490500Y-73101003D01*
X114490500Y-72898997D01*
X114451091Y-72700873D01*
X114417451Y-72619661D01*
X114409983Y-72550194D01*
X114429592Y-72505144D01*
X114429101Y-72504876D01*
X114432102Y-72499379D01*
X114432748Y-72497896D01*
X114433352Y-72497089D01*
X114483597Y-72362376D01*
X114483598Y-72362372D01*
X114489999Y-72302844D01*
X114490000Y-72302827D01*
X114490000Y-71980000D01*
X113605866Y-71980000D01*
X113581674Y-71977617D01*
X113566004Y-71974500D01*
X113566003Y-71974500D01*
X113525830Y-71974500D01*
X113540075Y-71960255D01*
X113589444Y-71874745D01*
X113615000Y-71779370D01*
X113615000Y-71680630D01*
X113589444Y-71585255D01*
X113540075Y-71499745D01*
X113520330Y-71480000D01*
X114490000Y-71480000D01*
X114490000Y-71157172D01*
X114489999Y-71157155D01*
X114483598Y-71097627D01*
X114483596Y-71097620D01*
X114433354Y-70962913D01*
X114433350Y-70962906D01*
X114347190Y-70847812D01*
X114347187Y-70847809D01*
X114232093Y-70761649D01*
X114232086Y-70761645D01*
X114097379Y-70711403D01*
X114097372Y-70711401D01*
X114037844Y-70705000D01*
X113490000Y-70705000D01*
X113490000Y-71449670D01*
X113470255Y-71429925D01*
X113384745Y-71380556D01*
X113289370Y-71355000D01*
X113190630Y-71355000D01*
X113095255Y-71380556D01*
X113009745Y-71429925D01*
X112990000Y-71449670D01*
X112990000Y-70705000D01*
X112442155Y-70705000D01*
X112382627Y-70711401D01*
X112382620Y-70711403D01*
X112247913Y-70761645D01*
X112247906Y-70761649D01*
X112132812Y-70847809D01*
X112132809Y-70847812D01*
X112046649Y-70962906D01*
X112046645Y-70962913D01*
X111996403Y-71097620D01*
X111996401Y-71097627D01*
X111990000Y-71157155D01*
X111990000Y-71480000D01*
X112959670Y-71480000D01*
X112939925Y-71499745D01*
X112890556Y-71585255D01*
X112865000Y-71680630D01*
X112865000Y-71779370D01*
X112890556Y-71874745D01*
X112939925Y-71960255D01*
X112954170Y-71974500D01*
X112913997Y-71974500D01*
X112913996Y-71974500D01*
X112898326Y-71977617D01*
X112874134Y-71980000D01*
X111990000Y-71980000D01*
X111990000Y-72302844D01*
X111996401Y-72362372D01*
X111996403Y-72362379D01*
X112046645Y-72497086D01*
X112047251Y-72497895D01*
X112047604Y-72498841D01*
X112050897Y-72504872D01*
X112050030Y-72505345D01*
X112071670Y-72563359D01*
X112062547Y-72619661D01*
X112028910Y-72700868D01*
X112028907Y-72700880D01*
X111989500Y-72898992D01*
X106588888Y-72898992D01*
X106559786Y-72869890D01*
X106387817Y-72744949D01*
X106378504Y-72740204D01*
X106327707Y-72692230D01*
X106310912Y-72624409D01*
X106333449Y-72558274D01*
X106378507Y-72519232D01*
X106387555Y-72514622D01*
X106441716Y-72475270D01*
X106441717Y-72475270D01*
X105809408Y-71842962D01*
X105872993Y-71825925D01*
X105987007Y-71760099D01*
X106080099Y-71667007D01*
X106145925Y-71552993D01*
X106162962Y-71489408D01*
X106795270Y-72121717D01*
X106795270Y-72121716D01*
X106834622Y-72067554D01*
X106931095Y-71878217D01*
X106996757Y-71676130D01*
X106996757Y-71676127D01*
X107030000Y-71466246D01*
X107030000Y-71253754D01*
X107017249Y-71173249D01*
X106996757Y-71043872D01*
X106996757Y-71043869D01*
X106931095Y-70841782D01*
X106834624Y-70652449D01*
X106795270Y-70598282D01*
X106795269Y-70598282D01*
X106162962Y-71230590D01*
X106145925Y-71167007D01*
X106080099Y-71052993D01*
X105987007Y-70959901D01*
X105872993Y-70894075D01*
X105809409Y-70877037D01*
X106479627Y-70206818D01*
X106540950Y-70173333D01*
X106567307Y-70170499D01*
X106577872Y-70170499D01*
X106637483Y-70164091D01*
X106772331Y-70113796D01*
X106887546Y-70027546D01*
X106973796Y-69912331D01*
X107024091Y-69777483D01*
X107030500Y-69717873D01*
X107030499Y-67922128D01*
X107024091Y-67862517D01*
X106973796Y-67727669D01*
X106973795Y-67727668D01*
X106973793Y-67727664D01*
X106887547Y-67612455D01*
X106887544Y-67612452D01*
X106772335Y-67526206D01*
X106772328Y-67526202D01*
X106637482Y-67475908D01*
X106637483Y-67475908D01*
X106577883Y-67469501D01*
X106577881Y-67469500D01*
X106577873Y-67469500D01*
X106577864Y-67469500D01*
X104782129Y-67469500D01*
X104782123Y-67469501D01*
X104722516Y-67475908D01*
X104587671Y-67526202D01*
X104587664Y-67526206D01*
X104472455Y-67612452D01*
X104472452Y-67612455D01*
X104386206Y-67727664D01*
X104386202Y-67727671D01*
X104335908Y-67862517D01*
X104329501Y-67922116D01*
X104329501Y-67922123D01*
X104329500Y-67922135D01*
X97500500Y-67922135D01*
X97500500Y-61522135D01*
X120536849Y-61522135D01*
X120536849Y-63617870D01*
X120536850Y-63617876D01*
X120543257Y-63677483D01*
X120593551Y-63812328D01*
X120593555Y-63812335D01*
X120679801Y-63927544D01*
X120679804Y-63927547D01*
X120795013Y-64013793D01*
X120795020Y-64013797D01*
X120929866Y-64064091D01*
X120929865Y-64064091D01*
X120936793Y-64064835D01*
X120989476Y-64070500D01*
X123085221Y-64070499D01*
X123144832Y-64064091D01*
X123279680Y-64013796D01*
X123394895Y-63927546D01*
X123481145Y-63812331D01*
X123531440Y-63677483D01*
X123537849Y-63617873D01*
X123537848Y-61522128D01*
X123531440Y-61462517D01*
X123481145Y-61327669D01*
X123481144Y-61327668D01*
X123481142Y-61327664D01*
X123394896Y-61212455D01*
X123394893Y-61212452D01*
X123279684Y-61126206D01*
X123279677Y-61126202D01*
X123144831Y-61075908D01*
X123144832Y-61075908D01*
X123085232Y-61069501D01*
X123085230Y-61069500D01*
X123085222Y-61069500D01*
X123085213Y-61069500D01*
X120989478Y-61069500D01*
X120989472Y-61069501D01*
X120929865Y-61075908D01*
X120795020Y-61126202D01*
X120795013Y-61126206D01*
X120679804Y-61212452D01*
X120679801Y-61212455D01*
X120593555Y-61327664D01*
X120593551Y-61327671D01*
X120543257Y-61462517D01*
X120536850Y-61522116D01*
X120536850Y-61522123D01*
X120536849Y-61522135D01*
X97500500Y-61522135D01*
X97500500Y-57624500D01*
X97520185Y-57557461D01*
X97572989Y-57511706D01*
X97624500Y-57500500D01*
X170375500Y-57500500D01*
X170442539Y-57520185D01*
G37*
%TD.AperFunction*%
%TD*%
%TA.AperFunction,Conductor*%
%TO.N,/a_gnd*%
G36*
X140308989Y-59949525D02*
G01*
X140375948Y-59969472D01*
X140421495Y-60022455D01*
X140432474Y-60070989D01*
X140527361Y-64710958D01*
X140509051Y-64778386D01*
X140457194Y-64825211D01*
X140400956Y-64837469D01*
X136450000Y-64759999D01*
X136450000Y-64760000D01*
X136470000Y-72060000D01*
X136940000Y-77000000D01*
X136940001Y-77000003D01*
X137629999Y-79410000D01*
X143119994Y-79510000D01*
X143119994Y-79509999D01*
X143120000Y-79510000D01*
X146571115Y-78505862D01*
X146640981Y-78506034D01*
X146699666Y-78543953D01*
X146710060Y-78557871D01*
X147447910Y-79705638D01*
X147467604Y-79772675D01*
X147467341Y-79780762D01*
X147352548Y-81540916D01*
X147328542Y-81606532D01*
X147325462Y-81610528D01*
X146521442Y-82610879D01*
X146464101Y-82650801D01*
X146440200Y-82656236D01*
X141239589Y-83307546D01*
X141200617Y-83306248D01*
X136613573Y-82418433D01*
X136551496Y-82386368D01*
X136541673Y-82375830D01*
X135849532Y-81540916D01*
X134352341Y-79734887D01*
X134332777Y-79702060D01*
X132790000Y-75870000D01*
X132029800Y-74073881D01*
X132021799Y-74004474D01*
X132052592Y-73941756D01*
X132056267Y-73937917D01*
X132196966Y-73797219D01*
X132317287Y-73631610D01*
X132410220Y-73449219D01*
X132473477Y-73254534D01*
X132505500Y-73052352D01*
X132505500Y-72847648D01*
X132499720Y-72811158D01*
X132473477Y-72645465D01*
X132410218Y-72450776D01*
X132348370Y-72329394D01*
X132317287Y-72268390D01*
X132303486Y-72249394D01*
X132196971Y-72102786D01*
X132052213Y-71958028D01*
X131886614Y-71837715D01*
X131839083Y-71813497D01*
X131793917Y-71790483D01*
X131743123Y-71742511D01*
X131726328Y-71674690D01*
X131748865Y-71608555D01*
X131793917Y-71569516D01*
X131886610Y-71522287D01*
X132004683Y-71436503D01*
X132052213Y-71401971D01*
X132052215Y-71401968D01*
X132052219Y-71401966D01*
X132196966Y-71257219D01*
X132196968Y-71257215D01*
X132196971Y-71257213D01*
X132257793Y-71173497D01*
X132317287Y-71091610D01*
X132410220Y-70909219D01*
X132473477Y-70714534D01*
X132505500Y-70512352D01*
X132505500Y-70307648D01*
X132473477Y-70105466D01*
X132410220Y-69910781D01*
X132410218Y-69910778D01*
X132410218Y-69910776D01*
X132376503Y-69844607D01*
X132317287Y-69728390D01*
X132305226Y-69711789D01*
X132196971Y-69562786D01*
X132052213Y-69418028D01*
X131886613Y-69297715D01*
X131886612Y-69297714D01*
X131886610Y-69297713D01*
X131829653Y-69268691D01*
X131704223Y-69204781D01*
X131509534Y-69141522D01*
X131334995Y-69113878D01*
X131307352Y-69109500D01*
X131102648Y-69109500D01*
X131078329Y-69113351D01*
X130900465Y-69141522D01*
X130705776Y-69204781D01*
X130523386Y-69297715D01*
X130357786Y-69418028D01*
X130213028Y-69562786D01*
X130092713Y-69728388D01*
X130065692Y-69781419D01*
X130017717Y-69832215D01*
X129950514Y-69849034D01*
X128927594Y-69810287D01*
X128912491Y-69808785D01*
X124634662Y-69116927D01*
X124571625Y-69086792D01*
X124534887Y-69027360D01*
X124530460Y-68993986D01*
X124550000Y-64500000D01*
X124541808Y-64033065D01*
X124536800Y-63747574D01*
X124514069Y-62451947D01*
X125537349Y-62451947D01*
X125537349Y-62688052D01*
X125574283Y-62921247D01*
X125647246Y-63145802D01*
X125754436Y-63356174D01*
X125814687Y-63439104D01*
X125814689Y-63439105D01*
X126554386Y-62699408D01*
X126571424Y-62762993D01*
X126637250Y-62877007D01*
X126730342Y-62970099D01*
X126844356Y-63035925D01*
X126907939Y-63052962D01*
X126168242Y-63792658D01*
X126251177Y-63852914D01*
X126461546Y-63960102D01*
X126686101Y-64033065D01*
X126686100Y-64033065D01*
X126919297Y-64070000D01*
X127155401Y-64070000D01*
X127388596Y-64033065D01*
X127613151Y-63960102D01*
X127823512Y-63852918D01*
X127823518Y-63852914D01*
X127906453Y-63792658D01*
X127906454Y-63792658D01*
X127166757Y-63052962D01*
X127230342Y-63035925D01*
X127344356Y-62970099D01*
X127437448Y-62877007D01*
X127503274Y-62762993D01*
X127520311Y-62699409D01*
X128260007Y-63439105D01*
X128260007Y-63439104D01*
X128320263Y-63356169D01*
X128320267Y-63356163D01*
X128427451Y-63145802D01*
X128500414Y-62921247D01*
X128533993Y-62709240D01*
X128533993Y-62709239D01*
X128537349Y-62688050D01*
X128537349Y-62451947D01*
X128500414Y-62218752D01*
X128427451Y-61994197D01*
X128320263Y-61783828D01*
X128260007Y-61700894D01*
X128260007Y-61700893D01*
X127520311Y-62440590D01*
X127503274Y-62377007D01*
X127437448Y-62262993D01*
X127344356Y-62169901D01*
X127230342Y-62104075D01*
X127166758Y-62087037D01*
X127771640Y-61482155D01*
X136327349Y-61482155D01*
X136327349Y-62280000D01*
X137394337Y-62280000D01*
X137361424Y-62337007D01*
X137327349Y-62464174D01*
X137327349Y-62595826D01*
X137361424Y-62722993D01*
X137394337Y-62780000D01*
X136327349Y-62780000D01*
X136327349Y-63577844D01*
X136333750Y-63637372D01*
X136333752Y-63637379D01*
X136383994Y-63772086D01*
X136383998Y-63772093D01*
X136470158Y-63887187D01*
X136470161Y-63887190D01*
X136585255Y-63973350D01*
X136585262Y-63973354D01*
X136719969Y-64023596D01*
X136719976Y-64023598D01*
X136779504Y-64029999D01*
X136779521Y-64030000D01*
X137577349Y-64030000D01*
X137577349Y-62963012D01*
X137634356Y-62995925D01*
X137761523Y-63030000D01*
X137893175Y-63030000D01*
X138020342Y-62995925D01*
X138077349Y-62963012D01*
X138077349Y-64030000D01*
X138875177Y-64030000D01*
X138875193Y-64029999D01*
X138934721Y-64023598D01*
X138934728Y-64023596D01*
X139069435Y-63973354D01*
X139069442Y-63973350D01*
X139184536Y-63887190D01*
X139184539Y-63887187D01*
X139270699Y-63772093D01*
X139270703Y-63772086D01*
X139320945Y-63637379D01*
X139320947Y-63637372D01*
X139327348Y-63577844D01*
X139327349Y-63577827D01*
X139327349Y-62780000D01*
X138260361Y-62780000D01*
X138293274Y-62722993D01*
X138327349Y-62595826D01*
X138327349Y-62464174D01*
X138293274Y-62337007D01*
X138260361Y-62280000D01*
X139327349Y-62280000D01*
X139327349Y-61482172D01*
X139327348Y-61482155D01*
X139320947Y-61422627D01*
X139320945Y-61422620D01*
X139270703Y-61287913D01*
X139270699Y-61287906D01*
X139184539Y-61172812D01*
X139184536Y-61172809D01*
X139069442Y-61086649D01*
X139069435Y-61086645D01*
X138934728Y-61036403D01*
X138934721Y-61036401D01*
X138875193Y-61030000D01*
X138077349Y-61030000D01*
X138077349Y-62096988D01*
X138020342Y-62064075D01*
X137893175Y-62030000D01*
X137761523Y-62030000D01*
X137634356Y-62064075D01*
X137577349Y-62096988D01*
X137577349Y-61030000D01*
X136779504Y-61030000D01*
X136719976Y-61036401D01*
X136719969Y-61036403D01*
X136585262Y-61086645D01*
X136585255Y-61086649D01*
X136470161Y-61172809D01*
X136470158Y-61172812D01*
X136383998Y-61287906D01*
X136383994Y-61287913D01*
X136333752Y-61422620D01*
X136333750Y-61422627D01*
X136327349Y-61482155D01*
X127771640Y-61482155D01*
X127862625Y-61391170D01*
X127906454Y-61347340D01*
X127906453Y-61347338D01*
X127823523Y-61287087D01*
X127613151Y-61179897D01*
X127388596Y-61106934D01*
X127388597Y-61106934D01*
X127155401Y-61070000D01*
X126919297Y-61070000D01*
X126686101Y-61106934D01*
X126461546Y-61179897D01*
X126251179Y-61287084D01*
X126168243Y-61347340D01*
X126907940Y-62087037D01*
X126844356Y-62104075D01*
X126730342Y-62169901D01*
X126637250Y-62262993D01*
X126571424Y-62377007D01*
X126554386Y-62440591D01*
X125814689Y-61700894D01*
X125754433Y-61783830D01*
X125647246Y-61994197D01*
X125574283Y-62218752D01*
X125537349Y-62451947D01*
X124514069Y-62451947D01*
X124514022Y-62449250D01*
X124509938Y-62216446D01*
X124472030Y-60055734D01*
X124490536Y-59988362D01*
X124542529Y-59941688D01*
X124595575Y-59929562D01*
X130219712Y-59910001D01*
X130220255Y-59910001D01*
X140308989Y-59949525D01*
G37*
%TD.AperFunction*%
%TD*%
M02*
