%TF.GenerationSoftware,KiCad,Pcbnew,9.0.1*%
%TF.CreationDate,2025-10-23T13:46:40-06:00*%
%TF.ProjectId,lasertagpcb,6c617365-7274-4616-9770-63622e6b6963,rev?*%
%TF.SameCoordinates,Original*%
%TF.FileFunction,Copper,L1,Top*%
%TF.FilePolarity,Positive*%
%FSLAX46Y46*%
G04 Gerber Fmt 4.6, Leading zero omitted, Abs format (unit mm)*
G04 Created by KiCad (PCBNEW 9.0.1) date 2025-10-23 13:46:40*
%MOMM*%
%LPD*%
G01*
G04 APERTURE LIST*
G04 Aperture macros list*
%AMRoundRect*
0 Rectangle with rounded corners*
0 $1 Rounding radius*
0 $2 $3 $4 $5 $6 $7 $8 $9 X,Y pos of 4 corners*
0 Add a 4 corners polygon primitive as box body*
4,1,4,$2,$3,$4,$5,$6,$7,$8,$9,$2,$3,0*
0 Add four circle primitives for the rounded corners*
1,1,$1+$1,$2,$3*
1,1,$1+$1,$4,$5*
1,1,$1+$1,$6,$7*
1,1,$1+$1,$8,$9*
0 Add four rect primitives between the rounded corners*
20,1,$1+$1,$2,$3,$4,$5,0*
20,1,$1+$1,$4,$5,$6,$7,0*
20,1,$1+$1,$6,$7,$8,$9,0*
20,1,$1+$1,$8,$9,$2,$3,0*%
G04 Aperture macros list end*
%TA.AperFunction,SMDPad,CuDef*%
%ADD10R,2.000000X2.000000*%
%TD*%
%TA.AperFunction,SMDPad,CuDef*%
%ADD11RoundRect,0.250000X-0.450000X0.350000X-0.450000X-0.350000X0.450000X-0.350000X0.450000X0.350000X0*%
%TD*%
%TA.AperFunction,SMDPad,CuDef*%
%ADD12RoundRect,0.250000X-0.475000X0.337500X-0.475000X-0.337500X0.475000X-0.337500X0.475000X0.337500X0*%
%TD*%
%TA.AperFunction,ComponentPad*%
%ADD13R,1.700000X1.700000*%
%TD*%
%TA.AperFunction,ComponentPad*%
%ADD14C,1.700000*%
%TD*%
%TA.AperFunction,SMDPad,CuDef*%
%ADD15RoundRect,0.250000X0.350000X0.450000X-0.350000X0.450000X-0.350000X-0.450000X0.350000X-0.450000X0*%
%TD*%
%TA.AperFunction,SMDPad,CuDef*%
%ADD16RoundRect,0.250000X0.337500X0.475000X-0.337500X0.475000X-0.337500X-0.475000X0.337500X-0.475000X0*%
%TD*%
%TA.AperFunction,ComponentPad*%
%ADD17R,2.000000X2.000000*%
%TD*%
%TA.AperFunction,ComponentPad*%
%ADD18C,2.000000*%
%TD*%
%TA.AperFunction,SMDPad,CuDef*%
%ADD19RoundRect,0.250000X-0.337500X-0.475000X0.337500X-0.475000X0.337500X0.475000X-0.337500X0.475000X0*%
%TD*%
%TA.AperFunction,SMDPad,CuDef*%
%ADD20RoundRect,0.250000X-0.350000X-0.450000X0.350000X-0.450000X0.350000X0.450000X-0.350000X0.450000X0*%
%TD*%
%TA.AperFunction,SMDPad,CuDef*%
%ADD21RoundRect,0.250000X0.450000X-0.350000X0.450000X0.350000X-0.450000X0.350000X-0.450000X-0.350000X0*%
%TD*%
%TA.AperFunction,ComponentPad*%
%ADD22RoundRect,0.250000X-0.350000X-0.625000X0.350000X-0.625000X0.350000X0.625000X-0.350000X0.625000X0*%
%TD*%
%TA.AperFunction,ComponentPad*%
%ADD23O,1.200000X1.750000*%
%TD*%
%TA.AperFunction,ComponentPad*%
%ADD24R,1.500000X1.050000*%
%TD*%
%TA.AperFunction,ComponentPad*%
%ADD25O,1.500000X1.050000*%
%TD*%
%TA.AperFunction,ComponentPad*%
%ADD26RoundRect,0.250000X0.550000X0.550000X-0.550000X0.550000X-0.550000X-0.550000X0.550000X-0.550000X0*%
%TD*%
%TA.AperFunction,ComponentPad*%
%ADD27C,1.600000*%
%TD*%
%TA.AperFunction,ComponentPad*%
%ADD28R,1.800000X1.800000*%
%TD*%
%TA.AperFunction,ComponentPad*%
%ADD29C,1.800000*%
%TD*%
%TA.AperFunction,ComponentPad*%
%ADD30RoundRect,0.249200X-0.600800X-0.450800X0.600800X-0.450800X0.600800X0.450800X-0.600800X0.450800X0*%
%TD*%
%TA.AperFunction,ComponentPad*%
%ADD31O,1.700000X1.400000*%
%TD*%
%TA.AperFunction,ViaPad*%
%ADD32C,0.600000*%
%TD*%
%TA.AperFunction,Conductor*%
%ADD33C,0.500000*%
%TD*%
%TA.AperFunction,Conductor*%
%ADD34C,0.200000*%
%TD*%
G04 APERTURE END LIST*
D10*
%TO.P,TP4,1,1*%
%TO.N,GND*%
X111520000Y-64160000D03*
%TD*%
%TO.P,TP5,1,1*%
%TO.N,+3V3*%
X116020000Y-64160000D03*
%TD*%
%TO.P,TP3,1,1*%
%TO.N,Net-(J2-Pin_2)*%
X119110000Y-86130000D03*
%TD*%
%TO.P,TP2,1,1*%
%TO.N,/Rx*%
X108090000Y-80030000D03*
%TD*%
%TO.P,TP1,1,1*%
%TO.N,Net-(C2-Pad2)*%
X138810000Y-83820000D03*
%TD*%
D11*
%TO.P,R9,1*%
%TO.N,Net-(U1B--)*%
X126220000Y-74360000D03*
%TO.P,R9,2*%
%TO.N,/Rx*%
X126220000Y-76360000D03*
%TD*%
%TO.P,R10,1*%
%TO.N,/a_gnd*%
X131150000Y-62980000D03*
%TO.P,R10,2*%
%TO.N,+3V3*%
X131150000Y-64980000D03*
%TD*%
D12*
%TO.P,C4,1*%
%TO.N,Net-(U1B--)*%
X128690000Y-74362500D03*
%TO.P,C4,2*%
%TO.N,/Rx*%
X128690000Y-76437500D03*
%TD*%
D11*
%TO.P,R12,1*%
%TO.N,GND*%
X148330000Y-70730000D03*
%TO.P,R12,2*%
%TO.N,/sigin*%
X148330000Y-72730000D03*
%TD*%
D13*
%TO.P,J1,1,Pin_1*%
%TO.N,/Tx*%
X105680000Y-68820000D03*
D14*
%TO.P,J1,2,Pin_2*%
%TO.N,GND*%
X105680000Y-71360000D03*
%TO.P,J1,3,Pin_3*%
%TO.N,/Rx*%
X105680000Y-73900000D03*
%TO.P,J1,4,Pin_4*%
%TO.N,+3V3*%
X105680000Y-76440000D03*
%TD*%
D12*
%TO.P,C2,1*%
%TO.N,Net-(U1A--)*%
X141340000Y-75692500D03*
%TO.P,C2,2*%
%TO.N,Net-(C2-Pad2)*%
X141340000Y-77767500D03*
%TD*%
D11*
%TO.P,R11,1*%
%TO.N,GND*%
X133710000Y-59230000D03*
%TO.P,R11,2*%
%TO.N,/a_gnd*%
X133710000Y-61230000D03*
%TD*%
D13*
%TO.P,J2,1,Pin_1*%
%TO.N,Net-(D1-K)*%
X122970000Y-81665000D03*
D14*
%TO.P,J2,2,Pin_2*%
%TO.N,Net-(J2-Pin_2)*%
X122970000Y-84205000D03*
%TD*%
D15*
%TO.P,R7,1*%
%TO.N,/a_gnd*%
X142770000Y-80750000D03*
%TO.P,R7,2*%
%TO.N,Net-(C2-Pad2)*%
X140770000Y-80750000D03*
%TD*%
D16*
%TO.P,C1,1*%
%TO.N,/sigin*%
X143677500Y-72750000D03*
%TO.P,C1,2*%
%TO.N,Net-(U1A-+)*%
X141602500Y-72750000D03*
%TD*%
D17*
%TO.P,C7,1*%
%TO.N,/a_gnd*%
X137827349Y-62530000D03*
D18*
%TO.P,C7,2*%
%TO.N,GND*%
X142827349Y-62530000D03*
%TD*%
D19*
%TO.P,C6,1*%
%TO.N,+3V3*%
X123962500Y-69240000D03*
%TO.P,C6,2*%
%TO.N,/a_gnd*%
X126037500Y-69240000D03*
%TD*%
%TO.P,C8,1*%
%TO.N,/a_gnd*%
X144072500Y-68240000D03*
%TO.P,C8,2*%
%TO.N,GND*%
X146147500Y-68240000D03*
%TD*%
D20*
%TO.P,R6,1*%
%TO.N,/a_gnd*%
X141640000Y-70390000D03*
%TO.P,R6,2*%
%TO.N,/sigin*%
X143640000Y-70390000D03*
%TD*%
D11*
%TO.P,R8,1*%
%TO.N,/a_gnd*%
X128760000Y-69970000D03*
%TO.P,R8,2*%
%TO.N,Net-(U1B--)*%
X128760000Y-71970000D03*
%TD*%
D21*
%TO.P,R4,1*%
%TO.N,/a_gnd*%
X146160000Y-77730000D03*
%TO.P,R4,2*%
%TO.N,Net-(U1A--)*%
X146160000Y-75730000D03*
%TD*%
D22*
%TO.P,J3,1,Pin_1*%
%TO.N,/sigin*%
X154280000Y-63910000D03*
D23*
%TO.P,J3,2,Pin_2*%
%TO.N,GND*%
X156280000Y-63910000D03*
%TD*%
D16*
%TO.P,C3,1*%
%TO.N,Net-(C2-Pad2)*%
X138567500Y-80750000D03*
%TO.P,C3,2*%
%TO.N,Net-(U1B-+)*%
X136492500Y-80750000D03*
%TD*%
D21*
%TO.P,R2,1*%
%TO.N,Net-(J2-Pin_2)*%
X115440000Y-84005000D03*
%TO.P,R2,2*%
%TO.N,Net-(Q1-D)*%
X115440000Y-82005000D03*
%TD*%
D20*
%TO.P,R3,1*%
%TO.N,/Tx*%
X108750000Y-68620000D03*
%TO.P,R3,2*%
%TO.N,Net-(Q1-G)*%
X110750000Y-68620000D03*
%TD*%
D17*
%TO.P,C5,1*%
%TO.N,+3V3*%
X122037349Y-62570000D03*
D18*
%TO.P,C5,2*%
%TO.N,/a_gnd*%
X127037349Y-62570000D03*
%TD*%
D24*
%TO.P,Q1,1,S*%
%TO.N,GND*%
X113240000Y-71730000D03*
D25*
%TO.P,Q1,2,G*%
%TO.N,Net-(Q1-G)*%
X113240000Y-73000000D03*
%TO.P,Q1,3,D*%
%TO.N,Net-(Q1-D)*%
X113240000Y-74270000D03*
%TD*%
D26*
%TO.P,U1,1*%
%TO.N,Net-(C2-Pad2)*%
X138825000Y-78030000D03*
D27*
%TO.P,U1,2,-*%
%TO.N,Net-(U1A--)*%
X138825000Y-75490000D03*
%TO.P,U1,3,+*%
%TO.N,Net-(U1A-+)*%
X138825000Y-72950000D03*
%TO.P,U1,4,V-*%
%TO.N,GND*%
X138825000Y-70410000D03*
%TO.P,U1,5,+*%
%TO.N,Net-(U1B-+)*%
X131205000Y-70410000D03*
%TO.P,U1,6,-*%
%TO.N,Net-(U1B--)*%
X131205000Y-72950000D03*
%TO.P,U1,7*%
%TO.N,/Rx*%
X131205000Y-75490000D03*
%TO.P,U1,8,V+*%
%TO.N,+3V3*%
X131205000Y-78030000D03*
%TD*%
D11*
%TO.P,R5,1*%
%TO.N,Net-(U1A--)*%
X143720000Y-75670000D03*
%TO.P,R5,2*%
%TO.N,Net-(C2-Pad2)*%
X143720000Y-77670000D03*
%TD*%
D21*
%TO.P,R1,1*%
%TO.N,Net-(J2-Pin_2)*%
X111470000Y-84075000D03*
%TO.P,R1,2*%
%TO.N,Net-(Q1-D)*%
X111470000Y-82075000D03*
%TD*%
D28*
%TO.P,D1,1,K*%
%TO.N,Net-(D1-K)*%
X120730000Y-73000000D03*
D29*
%TO.P,D1,2,A*%
%TO.N,+3V3*%
X123270000Y-73000000D03*
%TD*%
D30*
%TO.P,D2,1,K*%
%TO.N,/sigin*%
X151460000Y-73000000D03*
D31*
%TO.P,D2,2,A*%
%TO.N,GND*%
X156540000Y-73000000D03*
%TD*%
D32*
%TO.N,GND*%
X115940000Y-66760000D03*
X113650000Y-64150000D03*
X149110000Y-63610000D03*
X114610000Y-75300000D03*
%TO.N,Net-(D1-K)*%
X120730000Y-78000000D03*
%TO.N,GND*%
X126930000Y-81490000D03*
X145340000Y-69910000D03*
X120680000Y-69890000D03*
X142240000Y-87900000D03*
X133030000Y-79950000D03*
X161250000Y-58030000D03*
X98171421Y-87900000D03*
X98171421Y-58030000D03*
X169800000Y-80670000D03*
X127250000Y-70940000D03*
X115500000Y-87900000D03*
X137460000Y-68770000D03*
X141850000Y-84140000D03*
X113430000Y-80540000D03*
X108900000Y-64110000D03*
X109490000Y-70490000D03*
X137440000Y-71580000D03*
X114680000Y-77790000D03*
X141320000Y-58030000D03*
X119400000Y-77880000D03*
X125170000Y-87900000D03*
X142780000Y-60730000D03*
X144920000Y-74280000D03*
X110110000Y-74910000D03*
X159540000Y-82810000D03*
X156290000Y-65990000D03*
X98171421Y-65440000D03*
X162170000Y-87900000D03*
X169800000Y-87900000D03*
X117730000Y-77880000D03*
X124250000Y-58030000D03*
X131260000Y-84160000D03*
X98171421Y-80340000D03*
X137510000Y-74250000D03*
X113410000Y-83150000D03*
X111590000Y-77820000D03*
X152500000Y-87900000D03*
X165020000Y-61650000D03*
X148280000Y-82650000D03*
X151580000Y-58030000D03*
X148110000Y-74370000D03*
X122420000Y-77770000D03*
X146760000Y-71670000D03*
X164310000Y-77550000D03*
X148250000Y-68160000D03*
X118190000Y-73060000D03*
X140300000Y-69090000D03*
X111500000Y-66180000D03*
X154530000Y-80630000D03*
X122670000Y-60490000D03*
X102900000Y-83340000D03*
X161110000Y-72990000D03*
X113290000Y-69930000D03*
X115640000Y-71810000D03*
X140280000Y-74130000D03*
X133430000Y-87900000D03*
X107800000Y-72720000D03*
X169800000Y-58030000D03*
X104320000Y-58030000D03*
X140190000Y-71540000D03*
X125490000Y-71620000D03*
X101920000Y-61580000D03*
X137440000Y-65830000D03*
X164480000Y-67352122D03*
X114580000Y-58030000D03*
X122210000Y-65130000D03*
X148120000Y-78710000D03*
X169800000Y-65770000D03*
X159340000Y-63830000D03*
X139590000Y-67140000D03*
X105240000Y-87900000D03*
X142600000Y-74270000D03*
X119120000Y-81710000D03*
X109220000Y-83060000D03*
X127180000Y-72890000D03*
X136630000Y-83550000D03*
X102710000Y-74440000D03*
X103460000Y-70300000D03*
X145040000Y-71600000D03*
X128800000Y-78700000D03*
X142760000Y-64950000D03*
X156510000Y-75060000D03*
X131750000Y-58220000D03*
%TO.N,Net-(Q1-D)*%
X116300000Y-77940000D03*
X117050000Y-81400000D03*
%TO.N,/a_gnd*%
X133360000Y-64120000D03*
X141750000Y-68500000D03*
X145040000Y-81840000D03*
X129120000Y-68270000D03*
X133380000Y-63390000D03*
X127420000Y-67650000D03*
X146530000Y-79580000D03*
%TD*%
D33*
%TO.N,/a_gnd*%
X133360000Y-64120000D02*
X132290000Y-64120000D01*
X132290000Y-64120000D02*
X131150000Y-62980000D01*
%TO.N,+3V3*%
X116020000Y-64160000D02*
X120447349Y-64160000D01*
X120447349Y-64160000D02*
X122037349Y-62570000D01*
D34*
%TO.N,Net-(C2-Pad2)*%
X138810000Y-83820000D02*
X138810000Y-80992500D01*
X138810000Y-80992500D02*
X138567500Y-80750000D01*
%TO.N,Net-(J2-Pin_2)*%
X115440000Y-84005000D02*
X119480000Y-84005000D01*
X119110000Y-86130000D02*
X119110000Y-84375000D01*
X119110000Y-84375000D02*
X119480000Y-84005000D01*
%TO.N,/Rx*%
X111110000Y-79130000D02*
X110495000Y-78515000D01*
X108090000Y-80030000D02*
X109605000Y-78515000D01*
X109605000Y-78515000D02*
X110495000Y-78515000D01*
X110495000Y-78515000D02*
X108860000Y-76880000D01*
%TO.N,/sigin*%
X148330000Y-72730000D02*
X143697500Y-72730000D01*
%TO.N,Net-(U1B-+)*%
X131205000Y-70410000D02*
X133410000Y-70410000D01*
X134940000Y-71940000D02*
X134940000Y-79197500D01*
X133410000Y-70410000D02*
X134940000Y-71940000D01*
X134940000Y-79197500D02*
X136492500Y-80750000D01*
%TO.N,Net-(C2-Pad2)*%
X138567500Y-80750000D02*
X137998406Y-80180906D01*
X137998406Y-80180906D02*
X137998406Y-78856594D01*
X137998406Y-78856594D02*
X138825000Y-78030000D01*
%TO.N,Net-(J2-Pin_2)*%
X119480000Y-84005000D02*
X122770000Y-84005000D01*
X122770000Y-84005000D02*
X122970000Y-84205000D01*
D33*
%TO.N,+3V3*%
X122037349Y-62570000D02*
X123890000Y-64422651D01*
X123890000Y-64422651D02*
X123890000Y-65412349D01*
X123890000Y-65412349D02*
X123962500Y-65484849D01*
%TO.N,/a_gnd*%
X133380000Y-63390000D02*
X133710000Y-63060000D01*
X133710000Y-63060000D02*
X133710000Y-61230000D01*
D34*
%TO.N,Net-(D1-K)*%
X120730000Y-78000000D02*
X120730000Y-73000000D01*
D33*
%TO.N,+3V3*%
X123270000Y-69932500D02*
X123962500Y-69240000D01*
X124467349Y-64980000D02*
X131150000Y-64980000D01*
X123962500Y-65484849D02*
X124467349Y-64980000D01*
X123270000Y-73000000D02*
X123270000Y-69932500D01*
X123962500Y-69240000D02*
X123962500Y-65484849D01*
D34*
%TO.N,/Tx*%
X108550000Y-68820000D02*
X108750000Y-68620000D01*
X105680000Y-68820000D02*
X108550000Y-68820000D01*
%TO.N,/Rx*%
X126220000Y-76360000D02*
X126220000Y-78900000D01*
X131205000Y-75490000D02*
X129637500Y-75490000D01*
X126220000Y-78900000D02*
X126175000Y-78945000D01*
X126175000Y-78945000D02*
X125990000Y-79130000D01*
X107290000Y-73900000D02*
X105680000Y-73900000D01*
X128690000Y-76437500D02*
X128682500Y-76437500D01*
X108860000Y-76880000D02*
X108860000Y-75470000D01*
X129637500Y-75490000D02*
X128690000Y-76437500D01*
X128682500Y-76437500D02*
X126175000Y-78945000D01*
X125990000Y-79130000D02*
X111110000Y-79130000D01*
X108860000Y-75470000D02*
X107290000Y-73900000D01*
%TO.N,Net-(J2-Pin_2)*%
X111470000Y-84075000D02*
X111596000Y-84201000D01*
X115244000Y-84201000D02*
X115440000Y-84005000D01*
X111596000Y-84201000D02*
X115244000Y-84201000D01*
%TO.N,Net-(Q1-G)*%
X110750000Y-72160000D02*
X111590000Y-73000000D01*
X110750000Y-68620000D02*
X110750000Y-72160000D01*
X111590000Y-73000000D02*
X113240000Y-73000000D01*
%TO.N,Net-(Q1-D)*%
X116445000Y-82005000D02*
X117050000Y-81400000D01*
X116310000Y-77300000D02*
X116310000Y-75470000D01*
X116310000Y-75470000D02*
X115110000Y-74270000D01*
X115110000Y-74270000D02*
X113240000Y-74270000D01*
X116300000Y-77940000D02*
X116300000Y-77310000D01*
X116300000Y-77310000D02*
X116310000Y-77300000D01*
X115440000Y-82005000D02*
X116445000Y-82005000D01*
X115370000Y-82075000D02*
X115440000Y-82005000D01*
X111470000Y-82075000D02*
X115370000Y-82075000D01*
%TO.N,/sigin*%
X148600000Y-73000000D02*
X148330000Y-72730000D01*
X154280000Y-63910000D02*
X154280000Y-70180000D01*
X143290000Y-70740000D02*
X143640000Y-70390000D01*
X151460000Y-73000000D02*
X148600000Y-73000000D01*
X143677500Y-72750000D02*
X143290000Y-72362500D01*
X154280000Y-70180000D02*
X151460000Y-73000000D01*
X143290000Y-72362500D02*
X143290000Y-70740000D01*
%TO.N,Net-(U1A-+)*%
X139025000Y-72750000D02*
X138825000Y-72950000D01*
X141602500Y-72750000D02*
X139025000Y-72750000D01*
%TO.N,Net-(C2-Pad2)*%
X138825000Y-78030000D02*
X141077500Y-78030000D01*
X143720000Y-77670000D02*
X141437500Y-77670000D01*
X138567500Y-80750000D02*
X140770000Y-80750000D01*
X141437500Y-77670000D02*
X141340000Y-77767500D01*
X141077500Y-78030000D02*
X141340000Y-77767500D01*
%TO.N,Net-(U1A--)*%
X143697500Y-75692500D02*
X143720000Y-75670000D01*
X141340000Y-75692500D02*
X143697500Y-75692500D01*
X141137500Y-75490000D02*
X141340000Y-75692500D01*
X143720000Y-75670000D02*
X143840000Y-75670000D01*
X138825000Y-75490000D02*
X141137500Y-75490000D01*
X143840000Y-75670000D02*
X143900000Y-75730000D01*
X143900000Y-75730000D02*
X146160000Y-75730000D01*
%TO.N,Net-(U1B--)*%
X128690000Y-74362500D02*
X126222500Y-74362500D01*
X128690000Y-74362500D02*
X128690000Y-72040000D01*
X131205000Y-72950000D02*
X129792500Y-74362500D01*
X129792500Y-74362500D02*
X128690000Y-74362500D01*
X126222500Y-74362500D02*
X126220000Y-74360000D01*
X128690000Y-72040000D02*
X128760000Y-71970000D01*
%TO.N,/a_gnd*%
X128760000Y-68630000D02*
X129120000Y-68270000D01*
X126037500Y-69240000D02*
X126037500Y-69032500D01*
X128760000Y-69970000D02*
X128760000Y-68630000D01*
X142970000Y-80780000D02*
X143980000Y-80780000D01*
X143980000Y-80780000D02*
X145040000Y-81840000D01*
X146160000Y-79210000D02*
X146530000Y-79580000D01*
X126037500Y-69032500D02*
X127420000Y-67650000D01*
D33*
X141640000Y-70390000D02*
X141640000Y-68610000D01*
X144072500Y-68240000D02*
X142010000Y-68240000D01*
X142010000Y-68240000D02*
X141750000Y-68500000D01*
D34*
X141640000Y-68610000D02*
X141750000Y-68500000D01*
X146160000Y-77730000D02*
X146160000Y-79210000D01*
X142800000Y-80780000D02*
X142970000Y-80780000D01*
X142770000Y-80750000D02*
X142800000Y-80780000D01*
%TD*%
%TA.AperFunction,Conductor*%
%TO.N,GND*%
G36*
X114185173Y-82679128D02*
G01*
X114203751Y-82678237D01*
X114232384Y-82688519D01*
X114262221Y-82694454D01*
X114277684Y-82704786D01*
X114295189Y-82711072D01*
X114317706Y-82731527D01*
X114343003Y-82748430D01*
X114360060Y-82770003D01*
X114367102Y-82776400D01*
X114373344Y-82784837D01*
X114397288Y-82823656D01*
X114415654Y-82842022D01*
X114426662Y-82856900D01*
X114468100Y-82944775D01*
X114472756Y-83041818D01*
X114439921Y-83133256D01*
X114402566Y-83181065D01*
X114398013Y-83185619D01*
X114397286Y-83186346D01*
X114305185Y-83335667D01*
X114273985Y-83429823D01*
X114226020Y-83514312D01*
X114149374Y-83574015D01*
X114055715Y-83599842D01*
X114037624Y-83600500D01*
X112849180Y-83600500D01*
X112753892Y-83581546D01*
X112673110Y-83527570D01*
X112635587Y-83479480D01*
X112621461Y-83455905D01*
X112604814Y-83405666D01*
X112512712Y-83256344D01*
X112485708Y-83229340D01*
X112469914Y-83202980D01*
X112463705Y-83185619D01*
X112453461Y-83170288D01*
X112447494Y-83140293D01*
X112437197Y-83111500D01*
X112438104Y-83093084D01*
X112434507Y-83075000D01*
X112440473Y-83045006D01*
X112441978Y-83014463D01*
X112449863Y-82997796D01*
X112453461Y-82979712D01*
X112470451Y-82954283D01*
X112483530Y-82926642D01*
X112497191Y-82914263D01*
X112507434Y-82898933D01*
X112512712Y-82893656D01*
X112574315Y-82793780D01*
X112640470Y-82722631D01*
X112728818Y-82682212D01*
X112786243Y-82675500D01*
X114166933Y-82675500D01*
X114185173Y-82679128D01*
G37*
%TD.AperFunction*%
%TA.AperFunction,Conductor*%
G36*
X107690725Y-69439454D02*
G01*
X107771507Y-69493430D01*
X107798282Y-69527294D01*
X107798296Y-69527283D01*
X107807292Y-69538661D01*
X107872093Y-69603461D01*
X107931344Y-69662712D01*
X108080666Y-69754814D01*
X108080669Y-69754815D01*
X108080667Y-69754815D01*
X108244310Y-69809040D01*
X108247203Y-69809999D01*
X108349991Y-69820500D01*
X109150008Y-69820499D01*
X109252797Y-69809999D01*
X109419334Y-69754814D01*
X109568656Y-69662712D01*
X109573933Y-69657434D01*
X109654712Y-69603461D01*
X109750000Y-69584507D01*
X109845288Y-69603461D01*
X109890385Y-69627854D01*
X109909608Y-69640976D01*
X109931344Y-69662712D01*
X110036130Y-69727344D01*
X110040885Y-69730590D01*
X110070936Y-69761243D01*
X110102369Y-69790470D01*
X110104802Y-69795789D01*
X110108899Y-69799968D01*
X110124932Y-69839788D01*
X110142788Y-69878818D01*
X110143663Y-69886311D01*
X110145186Y-69890092D01*
X110145101Y-69898610D01*
X110149500Y-69936243D01*
X110149500Y-72065665D01*
X110149499Y-72065683D01*
X110149499Y-72080943D01*
X110149499Y-72239057D01*
X110156713Y-72265978D01*
X110190422Y-72391784D01*
X110190426Y-72391792D01*
X110218503Y-72440422D01*
X110218504Y-72440423D01*
X110269480Y-72528716D01*
X110381284Y-72640520D01*
X110381286Y-72640521D01*
X111109478Y-73368713D01*
X111109480Y-73368716D01*
X111221284Y-73480520D01*
X111358216Y-73559577D01*
X111470019Y-73589534D01*
X111510942Y-73600500D01*
X111510943Y-73600500D01*
X111815657Y-73600500D01*
X111821640Y-73600788D01*
X111863076Y-73611123D01*
X111904956Y-73619454D01*
X111910008Y-73622830D01*
X111915906Y-73624301D01*
X111950228Y-73649703D01*
X111985738Y-73673430D01*
X111989115Y-73678484D01*
X111993999Y-73682099D01*
X112015986Y-73718700D01*
X112039714Y-73754212D01*
X112040899Y-73760172D01*
X112044029Y-73765382D01*
X112050336Y-73807613D01*
X112058668Y-73849500D01*
X112057482Y-73855461D01*
X112058380Y-73861472D01*
X112048044Y-73902908D01*
X112039714Y-73944787D01*
X112028909Y-73970873D01*
X111989500Y-74168997D01*
X111989500Y-74371003D01*
X112009874Y-74473429D01*
X112028909Y-74569128D01*
X112106211Y-74755751D01*
X112106217Y-74755761D01*
X112218437Y-74923712D01*
X112218439Y-74923714D01*
X112218442Y-74923718D01*
X112361282Y-75066558D01*
X112361285Y-75066560D01*
X112361287Y-75066562D01*
X112511906Y-75167201D01*
X112529244Y-75178786D01*
X112529246Y-75178786D01*
X112529248Y-75178788D01*
X112602073Y-75208953D01*
X112715873Y-75256091D01*
X112913997Y-75295500D01*
X112913999Y-75295500D01*
X113566001Y-75295500D01*
X113566003Y-75295500D01*
X113764127Y-75256091D01*
X113950756Y-75178786D01*
X114118718Y-75066558D01*
X114241848Y-74943427D01*
X114322627Y-74889454D01*
X114417915Y-74870500D01*
X114758125Y-74870500D01*
X114853413Y-74889454D01*
X114934195Y-74943430D01*
X115636570Y-75645805D01*
X115690546Y-75726587D01*
X115709500Y-75821875D01*
X115709500Y-77160839D01*
X115701016Y-77225278D01*
X115699499Y-77230943D01*
X115699499Y-77230946D01*
X115699499Y-77322317D01*
X115680545Y-77417605D01*
X115657535Y-77460653D01*
X115590609Y-77560814D01*
X115590603Y-77560826D01*
X115530263Y-77706502D01*
X115530261Y-77706507D01*
X115499500Y-77861153D01*
X115499500Y-78018846D01*
X115530261Y-78173491D01*
X115530262Y-78173494D01*
X115530263Y-78173497D01*
X115535116Y-78185215D01*
X115554070Y-78280500D01*
X115535116Y-78375788D01*
X115481140Y-78456569D01*
X115400359Y-78510546D01*
X115305070Y-78529500D01*
X111461875Y-78529500D01*
X111366587Y-78510546D01*
X111285805Y-78456570D01*
X110975521Y-78146286D01*
X110975520Y-78146284D01*
X110863716Y-78034480D01*
X110863713Y-78034478D01*
X109533430Y-76704195D01*
X109479454Y-76623413D01*
X109460500Y-76528125D01*
X109460500Y-75390944D01*
X109449395Y-75349497D01*
X109449395Y-75349496D01*
X109434927Y-75295500D01*
X109419577Y-75238215D01*
X109378578Y-75167203D01*
X109340520Y-75101284D01*
X109228716Y-74989480D01*
X109228713Y-74989478D01*
X107770521Y-73531286D01*
X107770520Y-73531284D01*
X107658716Y-73419480D01*
X107654919Y-73417288D01*
X107570789Y-73368716D01*
X107537427Y-73349454D01*
X107521784Y-73340422D01*
X107409980Y-73310464D01*
X107369057Y-73299499D01*
X107210943Y-73299499D01*
X107195682Y-73299499D01*
X107195666Y-73299500D01*
X107039892Y-73299500D01*
X106944604Y-73280546D01*
X106863822Y-73226570D01*
X106838446Y-73196858D01*
X106835052Y-73192187D01*
X106835051Y-73192184D01*
X106710104Y-73020208D01*
X106559792Y-72869896D01*
X106506439Y-72831133D01*
X106440492Y-72759792D01*
X106406865Y-72668642D01*
X106410679Y-72571562D01*
X106438967Y-72510197D01*
X106441716Y-72475270D01*
X105809408Y-71842962D01*
X105872993Y-71825925D01*
X105987007Y-71760099D01*
X106080099Y-71667007D01*
X106145925Y-71552993D01*
X106162962Y-71489408D01*
X106795270Y-72121716D01*
X106834624Y-72067551D01*
X106931091Y-71878224D01*
X106931095Y-71878215D01*
X106996758Y-71676123D01*
X107029999Y-71466256D01*
X107030000Y-71466244D01*
X107030000Y-71253755D01*
X107029999Y-71253743D01*
X106996758Y-71043876D01*
X106931095Y-70841784D01*
X106931091Y-70841774D01*
X106834624Y-70652448D01*
X106795269Y-70598281D01*
X106162962Y-71230589D01*
X106145925Y-71167007D01*
X106080099Y-71052993D01*
X105987007Y-70959901D01*
X105872993Y-70894075D01*
X105809407Y-70877037D01*
X106446373Y-70240072D01*
X106475869Y-70220363D01*
X106503082Y-70197615D01*
X106515946Y-70193585D01*
X106527155Y-70186096D01*
X106595792Y-70168572D01*
X106598966Y-70168231D01*
X106673995Y-70174935D01*
X106683335Y-70163088D01*
X106758035Y-70119127D01*
X106772331Y-70113796D01*
X106887546Y-70027546D01*
X106973796Y-69912331D01*
X107024091Y-69777483D01*
X107030500Y-69717873D01*
X107030500Y-69669500D01*
X107049454Y-69574212D01*
X107103430Y-69493430D01*
X107184212Y-69439454D01*
X107279500Y-69420500D01*
X107595437Y-69420500D01*
X107690725Y-69439454D01*
G37*
%TD.AperFunction*%
%TA.AperFunction,Conductor*%
G36*
X127273925Y-70013907D02*
G01*
X127368781Y-70036743D01*
X127456984Y-70077472D01*
X127522888Y-70148856D01*
X127556459Y-70240027D01*
X127559500Y-70278823D01*
X127559500Y-70370005D01*
X127570001Y-70472800D01*
X127619169Y-70621177D01*
X127625186Y-70639334D01*
X127669637Y-70711401D01*
X127713639Y-70782741D01*
X127717288Y-70788656D01*
X127722565Y-70793933D01*
X127776539Y-70874712D01*
X127795493Y-70970000D01*
X127776539Y-71065288D01*
X127722565Y-71146066D01*
X127717288Y-71151344D01*
X127717286Y-71151346D01*
X127625184Y-71300668D01*
X127570002Y-71467197D01*
X127570001Y-71467204D01*
X127559500Y-71569988D01*
X127559500Y-72370006D01*
X127570001Y-72472800D01*
X127625185Y-72639332D01*
X127625186Y-72639334D01*
X127663143Y-72700873D01*
X127715091Y-72785095D01*
X127717288Y-72788656D01*
X127841344Y-72912712D01*
X127871435Y-72931272D01*
X127902460Y-72960118D01*
X127934913Y-72987351D01*
X127937879Y-72993050D01*
X127942586Y-72997426D01*
X127960212Y-73035954D01*
X127979772Y-73073530D01*
X127980331Y-73079931D01*
X127983005Y-73085774D01*
X127984546Y-73128116D01*
X127988237Y-73170315D01*
X127986305Y-73176441D01*
X127986539Y-73182865D01*
X127971758Y-73222574D01*
X127959020Y-73262973D01*
X127955241Y-73266948D01*
X127952648Y-73273917D01*
X127896568Y-73337396D01*
X127884542Y-73347047D01*
X127746344Y-73432288D01*
X127622288Y-73556344D01*
X127620855Y-73558667D01*
X127605737Y-73570800D01*
X127574475Y-73587072D01*
X127545174Y-73606651D01*
X127531723Y-73609326D01*
X127519558Y-73615659D01*
X127484451Y-73618729D01*
X127449886Y-73625605D01*
X127436433Y-73622929D01*
X127422773Y-73624124D01*
X127389166Y-73613527D01*
X127354598Y-73606651D01*
X127343194Y-73599031D01*
X127330115Y-73594907D01*
X127303118Y-73572253D01*
X127273817Y-73552674D01*
X127272006Y-73550639D01*
X127262713Y-73541346D01*
X127262712Y-73541344D01*
X127138656Y-73417288D01*
X127116188Y-73403430D01*
X127080777Y-73381588D01*
X126989334Y-73325186D01*
X126989332Y-73325185D01*
X126989330Y-73325184D01*
X126989332Y-73325184D01*
X126822802Y-73270002D01*
X126822798Y-73270001D01*
X126822797Y-73270001D01*
X126720009Y-73259500D01*
X126720005Y-73259500D01*
X125720002Y-73259500D01*
X125719985Y-73259501D01*
X125617199Y-73270001D01*
X125450667Y-73325185D01*
X125301346Y-73417286D01*
X125177286Y-73541346D01*
X125085184Y-73690668D01*
X125030002Y-73857197D01*
X125030001Y-73857204D01*
X125019500Y-73959988D01*
X125019500Y-74760006D01*
X125030001Y-74862800D01*
X125085185Y-75029332D01*
X125085186Y-75029334D01*
X125136096Y-75111873D01*
X125170222Y-75167201D01*
X125177288Y-75178656D01*
X125182565Y-75183933D01*
X125236539Y-75264712D01*
X125255493Y-75360000D01*
X125236539Y-75455288D01*
X125182565Y-75536066D01*
X125177288Y-75541344D01*
X125177286Y-75541346D01*
X125085184Y-75690668D01*
X125030002Y-75857197D01*
X125030001Y-75857204D01*
X125019500Y-75959988D01*
X125019500Y-76760006D01*
X125030001Y-76862800D01*
X125085185Y-77029332D01*
X125085186Y-77029334D01*
X125141330Y-77120359D01*
X125158261Y-77147809D01*
X125177288Y-77178656D01*
X125301344Y-77302712D01*
X125450666Y-77394814D01*
X125450668Y-77394814D01*
X125450669Y-77394815D01*
X125463811Y-77400944D01*
X125463158Y-77402343D01*
X125533304Y-77442161D01*
X125593010Y-77518804D01*
X125618841Y-77612462D01*
X125619500Y-77630564D01*
X125619500Y-78280500D01*
X125600546Y-78375788D01*
X125546570Y-78456570D01*
X125465788Y-78510546D01*
X125370500Y-78529500D01*
X121744266Y-78529500D01*
X121648978Y-78510546D01*
X121568196Y-78456570D01*
X121514220Y-78375788D01*
X121495266Y-78280500D01*
X121500050Y-78231923D01*
X121530500Y-78078842D01*
X121530500Y-77921158D01*
X121518564Y-77861153D01*
X121499738Y-77766507D01*
X121499737Y-77766505D01*
X121499737Y-77766503D01*
X121439394Y-77620821D01*
X121372464Y-77520653D01*
X121335284Y-77430893D01*
X121330500Y-77382316D01*
X121330500Y-74649499D01*
X121349454Y-74554211D01*
X121403430Y-74473429D01*
X121484212Y-74419453D01*
X121579500Y-74400499D01*
X121677866Y-74400499D01*
X121677872Y-74400499D01*
X121737483Y-74394091D01*
X121872331Y-74343796D01*
X121987546Y-74257546D01*
X122062610Y-74157273D01*
X122134884Y-74092354D01*
X122226504Y-74060031D01*
X122323520Y-74065232D01*
X122408297Y-74105050D01*
X122535978Y-74197815D01*
X122535981Y-74197816D01*
X122535986Y-74197820D01*
X122732383Y-74297890D01*
X122732386Y-74297891D01*
X122732394Y-74297895D01*
X122942049Y-74366015D01*
X122942060Y-74366016D01*
X122942061Y-74366017D01*
X122973529Y-74371001D01*
X123159778Y-74400500D01*
X123159782Y-74400500D01*
X123380218Y-74400500D01*
X123380222Y-74400500D01*
X123597951Y-74366015D01*
X123807606Y-74297895D01*
X123807616Y-74297890D01*
X124004013Y-74197820D01*
X124004015Y-74197818D01*
X124004022Y-74197815D01*
X124182365Y-74068242D01*
X124338242Y-73912365D01*
X124467815Y-73734022D01*
X124479840Y-73710423D01*
X124567890Y-73537616D01*
X124567890Y-73537615D01*
X124567895Y-73537606D01*
X124636015Y-73327951D01*
X124670500Y-73110222D01*
X124670500Y-72889778D01*
X124636015Y-72672049D01*
X124567895Y-72462394D01*
X124567891Y-72462386D01*
X124567890Y-72462383D01*
X124467820Y-72265986D01*
X124467816Y-72265981D01*
X124467815Y-72265978D01*
X124338242Y-72087635D01*
X124338238Y-72087631D01*
X124338236Y-72087628D01*
X124182367Y-71931760D01*
X124182365Y-71931758D01*
X124123141Y-71888729D01*
X124057192Y-71817385D01*
X124023565Y-71726235D01*
X124020500Y-71687284D01*
X124020500Y-70714499D01*
X124039454Y-70619211D01*
X124093430Y-70538429D01*
X124174212Y-70484453D01*
X124269500Y-70465499D01*
X124350006Y-70465499D01*
X124350008Y-70465499D01*
X124452797Y-70454999D01*
X124619334Y-70399814D01*
X124768656Y-70307712D01*
X124823933Y-70252434D01*
X124904712Y-70198461D01*
X125000000Y-70179507D01*
X125095288Y-70198461D01*
X125176066Y-70252434D01*
X125231344Y-70307712D01*
X125380666Y-70399814D01*
X125380669Y-70399815D01*
X125380667Y-70399815D01*
X125533686Y-70450520D01*
X125547203Y-70454999D01*
X125649991Y-70465500D01*
X126425008Y-70465499D01*
X126527797Y-70454999D01*
X126694334Y-70399814D01*
X126843656Y-70307712D01*
X126967712Y-70183656D01*
X127003722Y-70125273D01*
X127069875Y-70054124D01*
X127158223Y-70013705D01*
X127255314Y-70010171D01*
X127273925Y-70013907D01*
G37*
%TD.AperFunction*%
%TA.AperFunction,Conductor*%
G36*
X139904474Y-71135921D02*
G01*
X139904474Y-71135920D01*
X139936859Y-71091347D01*
X139936863Y-71091342D01*
X140029757Y-70909025D01*
X140029764Y-70909009D01*
X140054436Y-70833074D01*
X140101907Y-70748306D01*
X140178205Y-70688158D01*
X140271712Y-70661786D01*
X140368193Y-70673205D01*
X140452961Y-70720676D01*
X140513109Y-70796974D01*
X140538960Y-70884713D01*
X140550001Y-70992800D01*
X140605185Y-71159331D01*
X140605186Y-71159334D01*
X140697288Y-71308656D01*
X140757565Y-71368933D01*
X140811539Y-71449712D01*
X140830493Y-71545000D01*
X140811539Y-71640288D01*
X140786427Y-71686432D01*
X140773569Y-71705062D01*
X140672288Y-71806344D01*
X140580186Y-71955666D01*
X140561312Y-72012622D01*
X140541085Y-72041932D01*
X140531287Y-72051439D01*
X140524547Y-72063313D01*
X140496695Y-72085007D01*
X140471362Y-72109591D01*
X140458671Y-72114625D01*
X140447900Y-72123016D01*
X140413866Y-72132400D01*
X140381054Y-72145418D01*
X140367402Y-72145212D01*
X140354241Y-72148842D01*
X140336151Y-72149500D01*
X139966825Y-72149500D01*
X139871537Y-72130546D01*
X139790755Y-72076570D01*
X139672218Y-71958033D01*
X139672214Y-71958030D01*
X139566377Y-71881135D01*
X139500428Y-71809793D01*
X139466801Y-71718643D01*
X139470615Y-71621563D01*
X139511290Y-71533332D01*
X139550560Y-71494061D01*
X139550921Y-71489474D01*
X138871446Y-70810000D01*
X138877661Y-70810000D01*
X138979394Y-70782741D01*
X139070606Y-70730080D01*
X139145080Y-70655606D01*
X139197741Y-70564394D01*
X139225000Y-70462661D01*
X139225000Y-70456446D01*
X139904474Y-71135921D01*
G37*
%TD.AperFunction*%
%TA.AperFunction,Conductor*%
G36*
X170345788Y-57519454D02*
G01*
X170426570Y-57573430D01*
X170480546Y-57654212D01*
X170499500Y-57749500D01*
X170499500Y-71999933D01*
X170480546Y-72095221D01*
X170426570Y-72176003D01*
X170345788Y-72229979D01*
X170250500Y-72248933D01*
X170155212Y-72229979D01*
X170074430Y-72176003D01*
X170049055Y-72146292D01*
X170036855Y-72129500D01*
X170030104Y-72120208D01*
X169879792Y-71969896D01*
X169707816Y-71844949D01*
X169518412Y-71748443D01*
X169518409Y-71748442D01*
X169518407Y-71748441D01*
X169316240Y-71682753D01*
X169106296Y-71649500D01*
X169106287Y-71649500D01*
X168893713Y-71649500D01*
X168893703Y-71649500D01*
X168683759Y-71682753D01*
X168481592Y-71748441D01*
X168292182Y-71844950D01*
X168120206Y-71969897D01*
X167969897Y-72120206D01*
X167844950Y-72292182D01*
X167748441Y-72481592D01*
X167682753Y-72683759D01*
X167649500Y-72893703D01*
X167649500Y-73106296D01*
X167682753Y-73316240D01*
X167742706Y-73500758D01*
X167748443Y-73518412D01*
X167844949Y-73707816D01*
X167969896Y-73879792D01*
X168120208Y-74030104D01*
X168292184Y-74155051D01*
X168481588Y-74251557D01*
X168683757Y-74317246D01*
X168757601Y-74328941D01*
X168893703Y-74350499D01*
X168893710Y-74350499D01*
X168893713Y-74350500D01*
X168893716Y-74350500D01*
X169106284Y-74350500D01*
X169106287Y-74350500D01*
X169106290Y-74350499D01*
X169106296Y-74350499D01*
X169205476Y-74334789D01*
X169316243Y-74317246D01*
X169518412Y-74251557D01*
X169707816Y-74155051D01*
X169879792Y-74030104D01*
X170030104Y-73879792D01*
X170049054Y-73853708D01*
X170120395Y-73787760D01*
X170211544Y-73754132D01*
X170308625Y-73757945D01*
X170396856Y-73798619D01*
X170462806Y-73869961D01*
X170496434Y-73961110D01*
X170499500Y-74000066D01*
X170499500Y-88250500D01*
X170480546Y-88345788D01*
X170426570Y-88426570D01*
X170345788Y-88480546D01*
X170250500Y-88499500D01*
X97749500Y-88499500D01*
X97654212Y-88480546D01*
X97573430Y-88426570D01*
X97519454Y-88345788D01*
X97500500Y-88250500D01*
X97500500Y-81674988D01*
X110269500Y-81674988D01*
X110269500Y-82475006D01*
X110280001Y-82577800D01*
X110318657Y-82694454D01*
X110335186Y-82744334D01*
X110427288Y-82893656D01*
X110432565Y-82898933D01*
X110486539Y-82979712D01*
X110505493Y-83075000D01*
X110486539Y-83170288D01*
X110432565Y-83251066D01*
X110427288Y-83256344D01*
X110427286Y-83256346D01*
X110335184Y-83405668D01*
X110280002Y-83572197D01*
X110280001Y-83572204D01*
X110269500Y-83674988D01*
X110269500Y-84475006D01*
X110280001Y-84577800D01*
X110334232Y-84741456D01*
X110335186Y-84744334D01*
X110370446Y-84801500D01*
X110421730Y-84884646D01*
X110427288Y-84893656D01*
X110551344Y-85017712D01*
X110700666Y-85109814D01*
X110700669Y-85109815D01*
X110700667Y-85109815D01*
X110864310Y-85164040D01*
X110867203Y-85164999D01*
X110969991Y-85175500D01*
X111970008Y-85175499D01*
X112072797Y-85164999D01*
X112239334Y-85109814D01*
X112388656Y-85017712D01*
X112512712Y-84893656D01*
X112512713Y-84893653D01*
X112522967Y-84883400D01*
X112524213Y-84884646D01*
X112584786Y-84833068D01*
X112677230Y-84803183D01*
X112706130Y-84801500D01*
X114271992Y-84801500D01*
X114367280Y-84820454D01*
X114448061Y-84874429D01*
X114521344Y-84947712D01*
X114670666Y-85039814D01*
X114670669Y-85039815D01*
X114670667Y-85039815D01*
X114798358Y-85082127D01*
X114837203Y-85094999D01*
X114939991Y-85105500D01*
X115940008Y-85105499D01*
X116042797Y-85094999D01*
X116209334Y-85039814D01*
X116358656Y-84947712D01*
X116482712Y-84823656D01*
X116544315Y-84723780D01*
X116610470Y-84652631D01*
X116698818Y-84612212D01*
X116756243Y-84605500D01*
X117412820Y-84605500D01*
X117508108Y-84624454D01*
X117588890Y-84678430D01*
X117642866Y-84759212D01*
X117661820Y-84854500D01*
X117646121Y-84941512D01*
X117631201Y-84981514D01*
X117615908Y-85022518D01*
X117609500Y-85082123D01*
X117609500Y-87177865D01*
X117609500Y-87177868D01*
X117609501Y-87177872D01*
X117611567Y-87197093D01*
X117615908Y-87237480D01*
X117615909Y-87237483D01*
X117666204Y-87372331D01*
X117752454Y-87487546D01*
X117867669Y-87573796D01*
X118002517Y-87624091D01*
X118062127Y-87630500D01*
X120157872Y-87630499D01*
X120217483Y-87624091D01*
X120352331Y-87573796D01*
X120467546Y-87487546D01*
X120553796Y-87372331D01*
X120604091Y-87237483D01*
X120610500Y-87177873D01*
X120610499Y-85082128D01*
X120604091Y-85022517D01*
X120573878Y-84941513D01*
X120558339Y-84845612D01*
X120580682Y-84751061D01*
X120637508Y-84672258D01*
X120720164Y-84621199D01*
X120807180Y-84605500D01*
X121505776Y-84605500D01*
X121601064Y-84624454D01*
X121681846Y-84678430D01*
X121727636Y-84741456D01*
X121814947Y-84912813D01*
X121814949Y-84912816D01*
X121939896Y-85084792D01*
X122090208Y-85235104D01*
X122262184Y-85360051D01*
X122451588Y-85456557D01*
X122653757Y-85522246D01*
X122727601Y-85533941D01*
X122863703Y-85555499D01*
X122863710Y-85555499D01*
X122863713Y-85555500D01*
X122863716Y-85555500D01*
X123076284Y-85555500D01*
X123076287Y-85555500D01*
X123076290Y-85555499D01*
X123076296Y-85555499D01*
X123175476Y-85539789D01*
X123286243Y-85522246D01*
X123488412Y-85456557D01*
X123677816Y-85360051D01*
X123849792Y-85235104D01*
X124000104Y-85084792D01*
X124125051Y-84912816D01*
X124221557Y-84723412D01*
X124287246Y-84521243D01*
X124320500Y-84311287D01*
X124320500Y-84098713D01*
X124320499Y-84098710D01*
X124320499Y-84098703D01*
X124287246Y-83888759D01*
X124287246Y-83888757D01*
X124221557Y-83686588D01*
X124125051Y-83497184D01*
X124000104Y-83325208D01*
X124000102Y-83325206D01*
X123994353Y-83317293D01*
X123996655Y-83315620D01*
X123958214Y-83246966D01*
X123946802Y-83150484D01*
X123973180Y-83056979D01*
X124033334Y-82980685D01*
X124048597Y-82970169D01*
X124048073Y-82969469D01*
X124062329Y-82958796D01*
X124062331Y-82958796D01*
X124177546Y-82872546D01*
X124263796Y-82757331D01*
X124314091Y-82622483D01*
X124320500Y-82562873D01*
X124320499Y-80767128D01*
X124314091Y-80707517D01*
X124263796Y-80572669D01*
X124177546Y-80457454D01*
X124062331Y-80371204D01*
X123982117Y-80341286D01*
X123927481Y-80320908D01*
X123867873Y-80314500D01*
X122072134Y-80314500D01*
X122072130Y-80314500D01*
X122072128Y-80314501D01*
X122059314Y-80315878D01*
X122012519Y-80320908D01*
X122012515Y-80320909D01*
X121877670Y-80371203D01*
X121762455Y-80457453D01*
X121762453Y-80457455D01*
X121676204Y-80572669D01*
X121625908Y-80707518D01*
X121619500Y-80767123D01*
X121619500Y-82562865D01*
X121619500Y-82562868D01*
X121619501Y-82562872D01*
X121619779Y-82565455D01*
X121625908Y-82622480D01*
X121625909Y-82622484D01*
X121671356Y-82744334D01*
X121676204Y-82757331D01*
X121762454Y-82872546D01*
X121871640Y-82954283D01*
X121874156Y-82956166D01*
X121939079Y-83028444D01*
X121971401Y-83120065D01*
X121966200Y-83217081D01*
X121924269Y-83304721D01*
X121851991Y-83369644D01*
X121760370Y-83401966D01*
X121724935Y-83404500D01*
X119559061Y-83404500D01*
X119559057Y-83404499D01*
X119400943Y-83404499D01*
X119400939Y-83404500D01*
X116756243Y-83404500D01*
X116660955Y-83385546D01*
X116580173Y-83331570D01*
X116544314Y-83286218D01*
X116520103Y-83246966D01*
X116482712Y-83186344D01*
X116477434Y-83181066D01*
X116423461Y-83100288D01*
X116404507Y-83005000D01*
X116423461Y-82909712D01*
X116477434Y-82828933D01*
X116482712Y-82823656D01*
X116574814Y-82674334D01*
X116574814Y-82674333D01*
X116582427Y-82661991D01*
X116583698Y-82662775D01*
X116590186Y-82653924D01*
X116602222Y-82629517D01*
X116618630Y-82615125D01*
X116631538Y-82597520D01*
X116675264Y-82565455D01*
X116679736Y-82562873D01*
X116726904Y-82535639D01*
X116813716Y-82485520D01*
X116925520Y-82373716D01*
X116925520Y-82373714D01*
X116946012Y-82353223D01*
X116946016Y-82353217D01*
X117037852Y-82261381D01*
X117118630Y-82207409D01*
X117165332Y-82193241D01*
X117283497Y-82169737D01*
X117429179Y-82109394D01*
X117560289Y-82021789D01*
X117671789Y-81910289D01*
X117759394Y-81779179D01*
X117819737Y-81633497D01*
X117850500Y-81478842D01*
X117850500Y-81321158D01*
X117840788Y-81272331D01*
X117819738Y-81166507D01*
X117819737Y-81166505D01*
X117819737Y-81166503D01*
X117759394Y-81020821D01*
X117735460Y-80985002D01*
X117671791Y-80889714D01*
X117671789Y-80889711D01*
X117560289Y-80778211D01*
X117560285Y-80778208D01*
X117429180Y-80690606D01*
X117429173Y-80690603D01*
X117283497Y-80630263D01*
X117283492Y-80630261D01*
X117128846Y-80599500D01*
X117128842Y-80599500D01*
X116971158Y-80599500D01*
X116971153Y-80599500D01*
X116816507Y-80630261D01*
X116816502Y-80630263D01*
X116670826Y-80690603D01*
X116670819Y-80690606D01*
X116539712Y-80778210D01*
X116539709Y-80778212D01*
X116421890Y-80896031D01*
X116341108Y-80950007D01*
X116245820Y-80968961D01*
X116167500Y-80956323D01*
X116089192Y-80930374D01*
X116042797Y-80915001D01*
X115940009Y-80904500D01*
X115940005Y-80904500D01*
X114940002Y-80904500D01*
X114939985Y-80904501D01*
X114837199Y-80915001D01*
X114670667Y-80970185D01*
X114521346Y-81062286D01*
X114397286Y-81186346D01*
X114297573Y-81348009D01*
X114295676Y-81346839D01*
X114250036Y-81409083D01*
X114166977Y-81459484D01*
X114081816Y-81474500D01*
X112786243Y-81474500D01*
X112690955Y-81455546D01*
X112610173Y-81401570D01*
X112574314Y-81356218D01*
X112522571Y-81272329D01*
X112512712Y-81256344D01*
X112388656Y-81132288D01*
X112239334Y-81040186D01*
X112239332Y-81040185D01*
X112239330Y-81040184D01*
X112239332Y-81040184D01*
X112072802Y-80985002D01*
X112072798Y-80985001D01*
X112072797Y-80985001D01*
X111970009Y-80974500D01*
X111970005Y-80974500D01*
X110970002Y-80974500D01*
X110969985Y-80974501D01*
X110867199Y-80985001D01*
X110700667Y-81040185D01*
X110551346Y-81132286D01*
X110427286Y-81256346D01*
X110335184Y-81405668D01*
X110280002Y-81572197D01*
X110280001Y-81572204D01*
X110269500Y-81674988D01*
X97500500Y-81674988D01*
X97500500Y-74000066D01*
X97519454Y-73904778D01*
X97573430Y-73823996D01*
X97654212Y-73770020D01*
X97749500Y-73751066D01*
X97844788Y-73770020D01*
X97925570Y-73823996D01*
X97950943Y-73853705D01*
X97969896Y-73879792D01*
X98120208Y-74030104D01*
X98292184Y-74155051D01*
X98481588Y-74251557D01*
X98683757Y-74317246D01*
X98757601Y-74328941D01*
X98893703Y-74350499D01*
X98893710Y-74350499D01*
X98893713Y-74350500D01*
X98893716Y-74350500D01*
X99106284Y-74350500D01*
X99106287Y-74350500D01*
X99106290Y-74350499D01*
X99106296Y-74350499D01*
X99205476Y-74334789D01*
X99316243Y-74317246D01*
X99518412Y-74251557D01*
X99707816Y-74155051D01*
X99879792Y-74030104D01*
X100030104Y-73879792D01*
X100155051Y-73707816D01*
X100251557Y-73518412D01*
X100317246Y-73316243D01*
X100336895Y-73192184D01*
X100350499Y-73106296D01*
X100350500Y-73106284D01*
X100350500Y-72893715D01*
X100350499Y-72893703D01*
X100317246Y-72683759D01*
X100317246Y-72683757D01*
X100251557Y-72481588D01*
X100155051Y-72292184D01*
X100030104Y-72120208D01*
X99879792Y-71969896D01*
X99707816Y-71844949D01*
X99518412Y-71748443D01*
X99518409Y-71748442D01*
X99518407Y-71748441D01*
X99316240Y-71682753D01*
X99106296Y-71649500D01*
X99106287Y-71649500D01*
X98893713Y-71649500D01*
X98893703Y-71649500D01*
X98683759Y-71682753D01*
X98481592Y-71748441D01*
X98292182Y-71844950D01*
X98120206Y-71969897D01*
X97969896Y-72120207D01*
X97950945Y-72146292D01*
X97879602Y-72212240D01*
X97788452Y-72245867D01*
X97691372Y-72242053D01*
X97603141Y-72201378D01*
X97537193Y-72130035D01*
X97503566Y-72038885D01*
X97500500Y-71999933D01*
X97500500Y-67922123D01*
X104329500Y-67922123D01*
X104329500Y-69717865D01*
X104329500Y-69717868D01*
X104329501Y-69717872D01*
X104330659Y-69728647D01*
X104335908Y-69777480D01*
X104335909Y-69777484D01*
X104377872Y-69889992D01*
X104386204Y-69912331D01*
X104472454Y-70027546D01*
X104587669Y-70113796D01*
X104722517Y-70164091D01*
X104782127Y-70170500D01*
X104782429Y-70170499D01*
X104803475Y-70176578D01*
X104824488Y-70187451D01*
X104856842Y-70197574D01*
X104885497Y-70219019D01*
X104889763Y-70221227D01*
X104892015Y-70223897D01*
X104913627Y-70240072D01*
X105550592Y-70877037D01*
X105487007Y-70894075D01*
X105372993Y-70959901D01*
X105279901Y-71052993D01*
X105214075Y-71167007D01*
X105197037Y-71230590D01*
X104603675Y-70637228D01*
X104548094Y-70621177D01*
X104525380Y-70652441D01*
X104525372Y-70652454D01*
X104428908Y-70841774D01*
X104428904Y-70841784D01*
X104363241Y-71043876D01*
X104330000Y-71253743D01*
X104330000Y-71466256D01*
X104363241Y-71676123D01*
X104428904Y-71878215D01*
X104428908Y-71878225D01*
X104525371Y-72067545D01*
X104525375Y-72067551D01*
X104564729Y-72121717D01*
X105197037Y-71489408D01*
X105214075Y-71552993D01*
X105279901Y-71667007D01*
X105372993Y-71760099D01*
X105487007Y-71825925D01*
X105550589Y-71842962D01*
X104918282Y-72475269D01*
X104920383Y-72501963D01*
X104953134Y-72590739D01*
X104949319Y-72687819D01*
X104908644Y-72776049D01*
X104853558Y-72831135D01*
X104800207Y-72869896D01*
X104649897Y-73020206D01*
X104524950Y-73192182D01*
X104428441Y-73381592D01*
X104362753Y-73583759D01*
X104329500Y-73793703D01*
X104329500Y-74006296D01*
X104362753Y-74216240D01*
X104422622Y-74400499D01*
X104428443Y-74418412D01*
X104524949Y-74607816D01*
X104649896Y-74779792D01*
X104800208Y-74930104D01*
X104812535Y-74939060D01*
X104853131Y-74968555D01*
X104919080Y-75039899D01*
X104952707Y-75131049D01*
X104948892Y-75228129D01*
X104908217Y-75316359D01*
X104853131Y-75371445D01*
X104800207Y-75409896D01*
X104649897Y-75560206D01*
X104524950Y-75732182D01*
X104428441Y-75921592D01*
X104362753Y-76123759D01*
X104329500Y-76333703D01*
X104329500Y-76546296D01*
X104362753Y-76756240D01*
X104418495Y-76927797D01*
X104428443Y-76958412D01*
X104524949Y-77147816D01*
X104649896Y-77319792D01*
X104800208Y-77470104D01*
X104972184Y-77595051D01*
X105161588Y-77691557D01*
X105363757Y-77757246D01*
X105437601Y-77768941D01*
X105573703Y-77790499D01*
X105573710Y-77790499D01*
X105573713Y-77790500D01*
X105573716Y-77790500D01*
X105786284Y-77790500D01*
X105786287Y-77790500D01*
X105786290Y-77790499D01*
X105786296Y-77790499D01*
X105885476Y-77774789D01*
X105996243Y-77757246D01*
X106198412Y-77691557D01*
X106387816Y-77595051D01*
X106559792Y-77470104D01*
X106710104Y-77319792D01*
X106835051Y-77147816D01*
X106931557Y-76958412D01*
X106997246Y-76756243D01*
X107019979Y-76612712D01*
X107030499Y-76546296D01*
X107030500Y-76546284D01*
X107030500Y-76333715D01*
X107030499Y-76333703D01*
X107004825Y-76171610D01*
X106997246Y-76123757D01*
X106931557Y-75921588D01*
X106835051Y-75732184D01*
X106710104Y-75560208D01*
X106559792Y-75409896D01*
X106506867Y-75371444D01*
X106440920Y-75300103D01*
X106407293Y-75208953D01*
X106411107Y-75111873D01*
X106451781Y-75023642D01*
X106472792Y-74998406D01*
X106488464Y-74981926D01*
X106559792Y-74930104D01*
X106710104Y-74779792D01*
X106805297Y-74648768D01*
X106816633Y-74636849D01*
X106843145Y-74618154D01*
X106866965Y-74596136D01*
X106882500Y-74590404D01*
X106896034Y-74580862D01*
X106927683Y-74573735D01*
X106958115Y-74562509D01*
X106974658Y-74563158D01*
X106990816Y-74559521D01*
X107022785Y-74565049D01*
X107055195Y-74566323D01*
X107070232Y-74573255D01*
X107086550Y-74576077D01*
X107113966Y-74593416D01*
X107143426Y-74606997D01*
X107166215Y-74626460D01*
X107168662Y-74628008D01*
X107169623Y-74629371D01*
X107173138Y-74632373D01*
X108186570Y-75645805D01*
X108240546Y-75726587D01*
X108259500Y-75821875D01*
X108259500Y-76785665D01*
X108259499Y-76785683D01*
X108259499Y-76800943D01*
X108259499Y-76959057D01*
X108278329Y-77029332D01*
X108300423Y-77111786D01*
X108321222Y-77147809D01*
X108321224Y-77147816D01*
X108321226Y-77147816D01*
X108376558Y-77243656D01*
X108379480Y-77248716D01*
X108491284Y-77360520D01*
X108491286Y-77360521D01*
X109024694Y-77893929D01*
X109050904Y-77933156D01*
X109078670Y-77974710D01*
X109096962Y-78066668D01*
X109097624Y-78069999D01*
X109093432Y-78091075D01*
X109078670Y-78165287D01*
X109024694Y-78246068D01*
X108814194Y-78456569D01*
X108733413Y-78510546D01*
X108638125Y-78529500D01*
X107042134Y-78529500D01*
X107042130Y-78529500D01*
X107042128Y-78529501D01*
X107029314Y-78530878D01*
X106982519Y-78535908D01*
X106982515Y-78535909D01*
X106847670Y-78586203D01*
X106732455Y-78672453D01*
X106732453Y-78672455D01*
X106646204Y-78787669D01*
X106595908Y-78922518D01*
X106589500Y-78982123D01*
X106589500Y-81077865D01*
X106589500Y-81077868D01*
X106589501Y-81077872D01*
X106591567Y-81097093D01*
X106595908Y-81137480D01*
X106595909Y-81137484D01*
X106640241Y-81256344D01*
X106646204Y-81272331D01*
X106732454Y-81387546D01*
X106847669Y-81473796D01*
X106982517Y-81524091D01*
X107042127Y-81530500D01*
X109137872Y-81530499D01*
X109197483Y-81524091D01*
X109332331Y-81473796D01*
X109335476Y-81471442D01*
X109338312Y-81469319D01*
X109338313Y-81469318D01*
X109418776Y-81409083D01*
X109447546Y-81387546D01*
X109533796Y-81272331D01*
X109584091Y-81137483D01*
X109590500Y-81077873D01*
X109590499Y-79481874D01*
X109594116Y-79463693D01*
X109609453Y-79386586D01*
X109658144Y-79313716D01*
X109663429Y-79305806D01*
X109663430Y-79305805D01*
X109780806Y-79188430D01*
X109861588Y-79134454D01*
X109956875Y-79115500D01*
X110143125Y-79115500D01*
X110238413Y-79134454D01*
X110319195Y-79188430D01*
X110629478Y-79498713D01*
X110629480Y-79498716D01*
X110741284Y-79610520D01*
X110878216Y-79689577D01*
X110990019Y-79719534D01*
X111030942Y-79730500D01*
X111030943Y-79730500D01*
X125895666Y-79730500D01*
X125895682Y-79730501D01*
X125910943Y-79730501D01*
X126069056Y-79730501D01*
X126069057Y-79730501D01*
X126221785Y-79689577D01*
X126275019Y-79658842D01*
X126358716Y-79610520D01*
X126470520Y-79498716D01*
X126470520Y-79498714D01*
X126655520Y-79313716D01*
X126700520Y-79268716D01*
X126700521Y-79268713D01*
X128370805Y-77598429D01*
X128451587Y-77544453D01*
X128546875Y-77525499D01*
X129215006Y-77525499D01*
X129215008Y-77525499D01*
X129317797Y-77514999D01*
X129484334Y-77459814D01*
X129580774Y-77400329D01*
X129671825Y-77366438D01*
X129768916Y-77369970D01*
X129857264Y-77410388D01*
X129923420Y-77481539D01*
X129957312Y-77572591D01*
X129953780Y-77669682D01*
X129948306Y-77689200D01*
X129936522Y-77725467D01*
X129904500Y-77927638D01*
X129904500Y-78132361D01*
X129936522Y-78334531D01*
X129999778Y-78529214D01*
X129999782Y-78529224D01*
X130092711Y-78711607D01*
X130092713Y-78711610D01*
X130213034Y-78877219D01*
X130357781Y-79021966D01*
X130523390Y-79142287D01*
X130523392Y-79142288D01*
X130683760Y-79224000D01*
X130705781Y-79235220D01*
X130900466Y-79298477D01*
X130946739Y-79305806D01*
X131102638Y-79330499D01*
X131102645Y-79330499D01*
X131102648Y-79330500D01*
X131102651Y-79330500D01*
X131307349Y-79330500D01*
X131307352Y-79330500D01*
X131307355Y-79330499D01*
X131307361Y-79330499D01*
X131413320Y-79313716D01*
X131509534Y-79298477D01*
X131704219Y-79235220D01*
X131726239Y-79223999D01*
X131819745Y-79197625D01*
X131846763Y-79196970D01*
X133496651Y-79246591D01*
X133591327Y-79268401D01*
X133670449Y-79324781D01*
X133681834Y-79337744D01*
X135428653Y-81471442D01*
X135462048Y-81532131D01*
X135464059Y-81531194D01*
X135470185Y-81544333D01*
X135562288Y-81693656D01*
X135686338Y-81817707D01*
X135686343Y-81817711D01*
X135686344Y-81817712D01*
X135702933Y-81827944D01*
X135764881Y-81882138D01*
X136339374Y-82583867D01*
X136590000Y-82890000D01*
X137094166Y-82958796D01*
X137186016Y-82990459D01*
X137258758Y-83054862D01*
X137301317Y-83142200D01*
X137309500Y-83205510D01*
X137309500Y-84867865D01*
X137309500Y-84867868D01*
X137309501Y-84867872D01*
X137310206Y-84874429D01*
X137315908Y-84927480D01*
X137315909Y-84927484D01*
X137357806Y-85039815D01*
X137366204Y-85062331D01*
X137452454Y-85177546D01*
X137567669Y-85263796D01*
X137702517Y-85314091D01*
X137762127Y-85320500D01*
X139857872Y-85320499D01*
X139917483Y-85314091D01*
X140052331Y-85263796D01*
X140167546Y-85177546D01*
X140253796Y-85062331D01*
X140304091Y-84927483D01*
X140310500Y-84867873D01*
X140310499Y-83682969D01*
X140329453Y-83587682D01*
X140383429Y-83506901D01*
X140464211Y-83452924D01*
X140559499Y-83433970D01*
X140593156Y-83436255D01*
X141500000Y-83560000D01*
X146710000Y-82890000D01*
X147590000Y-81720000D01*
X147690000Y-79530000D01*
X147210226Y-78814029D01*
X147172928Y-78724321D01*
X147172799Y-78627166D01*
X147205149Y-78544704D01*
X147294814Y-78399334D01*
X147302617Y-78375788D01*
X147349997Y-78232802D01*
X147349999Y-78232797D01*
X147360500Y-78130009D01*
X147360499Y-77329992D01*
X147349999Y-77227203D01*
X147349363Y-77225285D01*
X147322653Y-77144680D01*
X147294814Y-77060666D01*
X147202712Y-76911344D01*
X147197434Y-76906066D01*
X147143461Y-76825288D01*
X147124507Y-76730000D01*
X147143461Y-76634712D01*
X147197434Y-76553933D01*
X147202712Y-76548656D01*
X147294814Y-76399334D01*
X147349999Y-76232797D01*
X147360500Y-76130009D01*
X147360499Y-75329992D01*
X147349999Y-75227203D01*
X147330598Y-75168656D01*
X147305197Y-75092000D01*
X147294814Y-75060666D01*
X147202712Y-74911344D01*
X147078656Y-74787288D01*
X146929334Y-74695186D01*
X146929332Y-74695185D01*
X146929330Y-74695184D01*
X146929332Y-74695184D01*
X146762802Y-74640002D01*
X146762798Y-74640001D01*
X146762797Y-74640001D01*
X146660009Y-74629500D01*
X146660005Y-74629500D01*
X145660002Y-74629500D01*
X145659985Y-74629501D01*
X145557199Y-74640001D01*
X145390667Y-74695185D01*
X145241343Y-74787288D01*
X145143547Y-74885084D01*
X145062765Y-74939060D01*
X144967477Y-74958014D01*
X144872189Y-74939060D01*
X144791408Y-74885083D01*
X144772955Y-74861734D01*
X144771708Y-74862721D01*
X144762716Y-74851349D01*
X144762713Y-74851346D01*
X144762712Y-74851344D01*
X144638656Y-74727288D01*
X144489334Y-74635186D01*
X144489332Y-74635185D01*
X144489330Y-74635184D01*
X144489332Y-74635184D01*
X144322802Y-74580002D01*
X144322798Y-74580001D01*
X144322797Y-74580001D01*
X144220009Y-74569500D01*
X144220005Y-74569500D01*
X143220002Y-74569500D01*
X143219985Y-74569501D01*
X143117199Y-74580001D01*
X142950667Y-74635185D01*
X142801346Y-74727286D01*
X142801344Y-74727287D01*
X142801344Y-74727288D01*
X142701066Y-74827565D01*
X142620288Y-74881539D01*
X142525000Y-74900493D01*
X142429712Y-74881539D01*
X142348933Y-74827565D01*
X142283656Y-74762288D01*
X142134334Y-74670186D01*
X142134332Y-74670185D01*
X142134330Y-74670184D01*
X142134332Y-74670184D01*
X141967802Y-74615002D01*
X141967798Y-74615001D01*
X141967797Y-74615001D01*
X141865009Y-74604500D01*
X141865005Y-74604500D01*
X140815002Y-74604500D01*
X140814985Y-74604501D01*
X140712199Y-74615001D01*
X140545667Y-74670185D01*
X140396346Y-74762286D01*
X140396344Y-74762287D01*
X140396344Y-74762288D01*
X140342059Y-74816572D01*
X140261281Y-74870546D01*
X140165993Y-74889500D01*
X140123089Y-74889500D01*
X140027801Y-74870546D01*
X139947019Y-74816570D01*
X139921643Y-74786858D01*
X139916510Y-74779793D01*
X139816966Y-74642781D01*
X139672219Y-74498034D01*
X139566801Y-74421444D01*
X139500854Y-74350103D01*
X139467227Y-74258953D01*
X139471041Y-74161873D01*
X139511715Y-74073642D01*
X139566802Y-74018555D01*
X139672219Y-73941966D01*
X139816966Y-73797219D01*
X139937287Y-73631610D01*
X140003964Y-73500750D01*
X140011247Y-73486456D01*
X140035375Y-73455849D01*
X140057037Y-73423430D01*
X140065269Y-73417929D01*
X140071395Y-73410159D01*
X140105401Y-73391114D01*
X140137819Y-73369454D01*
X140147526Y-73367523D01*
X140156162Y-73362687D01*
X140233107Y-73350500D01*
X140336151Y-73350500D01*
X140431439Y-73369454D01*
X140512221Y-73423430D01*
X140566197Y-73504212D01*
X140572512Y-73521176D01*
X140580185Y-73544333D01*
X140669729Y-73689507D01*
X140672288Y-73693656D01*
X140796344Y-73817712D01*
X140945666Y-73909814D01*
X140945669Y-73909815D01*
X140945667Y-73909815D01*
X141051210Y-73944788D01*
X141112203Y-73964999D01*
X141214991Y-73975500D01*
X141990008Y-73975499D01*
X142092797Y-73964999D01*
X142259334Y-73909814D01*
X142408656Y-73817712D01*
X142463933Y-73762434D01*
X142544712Y-73708461D01*
X142640000Y-73689507D01*
X142735288Y-73708461D01*
X142816066Y-73762434D01*
X142871344Y-73817712D01*
X143020666Y-73909814D01*
X143020669Y-73909815D01*
X143020667Y-73909815D01*
X143126210Y-73944788D01*
X143187203Y-73964999D01*
X143289991Y-73975500D01*
X144065008Y-73975499D01*
X144167797Y-73964999D01*
X144334334Y-73909814D01*
X144483656Y-73817712D01*
X144607712Y-73693656D01*
X144699814Y-73544334D01*
X144702043Y-73537607D01*
X144714115Y-73501178D01*
X144762079Y-73416688D01*
X144838725Y-73356985D01*
X144932385Y-73331158D01*
X144950476Y-73330500D01*
X147013757Y-73330500D01*
X147109045Y-73349454D01*
X147189827Y-73403430D01*
X147225684Y-73448779D01*
X147257746Y-73500760D01*
X147284621Y-73544333D01*
X147287288Y-73548656D01*
X147411344Y-73672712D01*
X147560666Y-73764814D01*
X147560669Y-73764815D01*
X147560667Y-73764815D01*
X147709962Y-73814286D01*
X147727203Y-73819999D01*
X147829991Y-73830500D01*
X148830008Y-73830499D01*
X148932797Y-73819999D01*
X149099334Y-73764814D01*
X149248656Y-73672712D01*
X149248658Y-73672710D01*
X149260031Y-73663718D01*
X149260874Y-73664785D01*
X149328719Y-73619454D01*
X149424007Y-73600500D01*
X149939212Y-73600500D01*
X150034500Y-73619454D01*
X150115282Y-73673430D01*
X150169258Y-73754212D01*
X150174834Y-73769192D01*
X150175113Y-73769790D01*
X150175114Y-73769792D01*
X150175115Y-73769794D01*
X150229026Y-73857197D01*
X150263054Y-73912365D01*
X150267120Y-73918956D01*
X150391044Y-74042880D01*
X150540206Y-74134885D01*
X150540208Y-74134885D01*
X150540209Y-74134886D01*
X150540211Y-74134887D01*
X150706558Y-74190009D01*
X150706563Y-74190009D01*
X150706565Y-74190010D01*
X150809242Y-74200500D01*
X150809250Y-74200500D01*
X152110750Y-74200500D01*
X152110758Y-74200500D01*
X152213435Y-74190010D01*
X152213437Y-74190009D01*
X152213440Y-74190009D01*
X152213441Y-74190009D01*
X152379788Y-74134887D01*
X152379788Y-74134886D01*
X152379794Y-74134885D01*
X152528956Y-74042880D01*
X152652880Y-73918956D01*
X152744885Y-73769794D01*
X152753676Y-73743264D01*
X152800009Y-73603441D01*
X152800009Y-73603440D01*
X152800280Y-73600788D01*
X152810500Y-73500758D01*
X152810500Y-73250000D01*
X155214639Y-73250000D01*
X155219549Y-73281004D01*
X155277912Y-73460632D01*
X155277918Y-73460645D01*
X155363663Y-73628928D01*
X155363667Y-73628935D01*
X155474692Y-73781749D01*
X155608250Y-73915307D01*
X155761064Y-74026332D01*
X155761071Y-74026336D01*
X155929354Y-74112081D01*
X155929367Y-74112087D01*
X156108995Y-74170450D01*
X156290000Y-74199118D01*
X156290000Y-73250001D01*
X156289999Y-73250000D01*
X155214639Y-73250000D01*
X152810500Y-73250000D01*
X152810500Y-72953922D01*
X156190000Y-72953922D01*
X156190000Y-73046078D01*
X156213852Y-73135095D01*
X156259930Y-73214905D01*
X156325095Y-73280070D01*
X156404905Y-73326148D01*
X156493922Y-73350000D01*
X156586078Y-73350000D01*
X156675095Y-73326148D01*
X156754905Y-73280070D01*
X156784974Y-73250001D01*
X156790000Y-73250001D01*
X156790000Y-74199117D01*
X156971004Y-74170450D01*
X157150632Y-74112087D01*
X157150645Y-74112081D01*
X157318928Y-74026336D01*
X157318935Y-74026332D01*
X157471749Y-73915307D01*
X157605307Y-73781749D01*
X157716332Y-73628935D01*
X157716336Y-73628928D01*
X157802081Y-73460645D01*
X157802087Y-73460632D01*
X157860450Y-73281004D01*
X157865361Y-73250000D01*
X156790001Y-73250000D01*
X156790000Y-73250001D01*
X156784974Y-73250001D01*
X156820070Y-73214905D01*
X156866148Y-73135095D01*
X156890000Y-73046078D01*
X156890000Y-72953922D01*
X156866148Y-72864905D01*
X156820070Y-72785095D01*
X156784974Y-72749999D01*
X156790000Y-72749999D01*
X156790001Y-72750000D01*
X157865361Y-72750000D01*
X157860450Y-72718995D01*
X157802087Y-72539367D01*
X157802081Y-72539354D01*
X157716336Y-72371071D01*
X157716332Y-72371064D01*
X157605307Y-72218250D01*
X157471749Y-72084692D01*
X157318935Y-71973667D01*
X157318928Y-71973663D01*
X157150645Y-71887918D01*
X157150632Y-71887912D01*
X156971000Y-71829547D01*
X156790000Y-71800879D01*
X156790000Y-72749999D01*
X156784974Y-72749999D01*
X156754905Y-72719930D01*
X156675095Y-72673852D01*
X156586078Y-72650000D01*
X156493922Y-72650000D01*
X156404905Y-72673852D01*
X156325095Y-72719930D01*
X156259930Y-72785095D01*
X156213852Y-72864905D01*
X156190000Y-72953922D01*
X152810500Y-72953922D01*
X152810500Y-72750000D01*
X155214638Y-72750000D01*
X156289999Y-72750000D01*
X156290000Y-72749999D01*
X156290000Y-71800879D01*
X156108999Y-71829547D01*
X156108998Y-71829547D01*
X155929367Y-71887912D01*
X155929354Y-71887918D01*
X155761071Y-71973663D01*
X155761064Y-71973667D01*
X155608250Y-72084692D01*
X155474692Y-72218250D01*
X155363667Y-72371064D01*
X155363663Y-72371071D01*
X155277918Y-72539354D01*
X155277912Y-72539367D01*
X155219549Y-72718995D01*
X155214638Y-72750000D01*
X152810500Y-72750000D01*
X152810500Y-72601874D01*
X152829454Y-72506586D01*
X152883430Y-72425804D01*
X153755669Y-71553565D01*
X154648713Y-70660521D01*
X154648716Y-70660520D01*
X154760520Y-70548716D01*
X154817212Y-70450522D01*
X154817213Y-70450521D01*
X154839576Y-70411787D01*
X154839576Y-70411786D01*
X154839577Y-70411785D01*
X154867473Y-70307676D01*
X154880500Y-70259060D01*
X154880500Y-65401243D01*
X154883044Y-65388452D01*
X154881838Y-65375469D01*
X154892448Y-65341171D01*
X154899454Y-65305955D01*
X154906699Y-65295111D01*
X154910553Y-65282655D01*
X154925800Y-65266523D01*
X154953430Y-65225173D01*
X154972601Y-65207894D01*
X154985088Y-65197760D01*
X155098656Y-65127712D01*
X155215936Y-65010431D01*
X155225967Y-65002292D01*
X155257725Y-64985541D01*
X155287578Y-64965595D01*
X155300366Y-64963051D01*
X155311902Y-64956967D01*
X155347652Y-64953645D01*
X155382866Y-64946641D01*
X155395656Y-64949185D01*
X155408640Y-64947979D01*
X155442937Y-64958589D01*
X155478154Y-64965595D01*
X155488997Y-64972840D01*
X155501454Y-64976694D01*
X155529079Y-64999621D01*
X155558936Y-65019571D01*
X155563396Y-65024031D01*
X155703476Y-65125804D01*
X155703483Y-65125808D01*
X155857741Y-65204407D01*
X155857751Y-65204411D01*
X156022415Y-65257914D01*
X156030000Y-65259115D01*
X156030000Y-64190330D01*
X156049745Y-64210075D01*
X156135255Y-64259444D01*
X156230630Y-64285000D01*
X156329370Y-64285000D01*
X156424745Y-64259444D01*
X156510255Y-64210075D01*
X156530000Y-64190330D01*
X156530000Y-65259114D01*
X156537584Y-65257914D01*
X156702248Y-65204411D01*
X156702258Y-65204407D01*
X156856516Y-65125808D01*
X156856523Y-65125804D01*
X156996603Y-65024031D01*
X157119031Y-64901603D01*
X157220804Y-64761523D01*
X157220808Y-64761516D01*
X157299407Y-64607258D01*
X157299413Y-64607245D01*
X157352914Y-64442584D01*
X157352914Y-64442583D01*
X157379999Y-64271581D01*
X157380000Y-64271569D01*
X157380000Y-64160001D01*
X157379999Y-64160000D01*
X156560330Y-64160000D01*
X156580075Y-64140255D01*
X156629444Y-64054745D01*
X156655000Y-63959370D01*
X156655000Y-63860630D01*
X156629444Y-63765255D01*
X156580075Y-63679745D01*
X156560330Y-63660000D01*
X157379999Y-63660000D01*
X157380000Y-63659999D01*
X157380000Y-63548430D01*
X157379999Y-63548418D01*
X157352914Y-63377416D01*
X157352914Y-63377415D01*
X157299413Y-63212754D01*
X157299407Y-63212741D01*
X157220808Y-63058483D01*
X157220804Y-63058476D01*
X157119031Y-62918396D01*
X156996603Y-62795968D01*
X156856523Y-62694195D01*
X156856516Y-62694191D01*
X156702258Y-62615592D01*
X156702245Y-62615586D01*
X156537587Y-62562087D01*
X156537579Y-62562085D01*
X156530000Y-62560883D01*
X156530000Y-63629670D01*
X156510255Y-63609925D01*
X156424745Y-63560556D01*
X156329370Y-63535000D01*
X156230630Y-63535000D01*
X156135255Y-63560556D01*
X156049745Y-63609925D01*
X156030000Y-63629670D01*
X156030000Y-62560883D01*
X156029999Y-62560883D01*
X156022420Y-62562085D01*
X156022412Y-62562087D01*
X155857754Y-62615586D01*
X155857741Y-62615592D01*
X155703483Y-62694191D01*
X155703476Y-62694195D01*
X155563396Y-62795968D01*
X155558936Y-62800429D01*
X155478154Y-62854405D01*
X155382866Y-62873359D01*
X155287578Y-62854405D01*
X155206799Y-62800431D01*
X155098656Y-62692288D01*
X154949334Y-62600186D01*
X154949332Y-62600185D01*
X154949330Y-62600184D01*
X154949332Y-62600184D01*
X154782802Y-62545002D01*
X154782798Y-62545001D01*
X154782797Y-62545001D01*
X154680009Y-62534500D01*
X154680005Y-62534500D01*
X153879993Y-62534500D01*
X153777199Y-62545001D01*
X153610667Y-62600185D01*
X153461346Y-62692286D01*
X153337286Y-62816346D01*
X153245184Y-62965668D01*
X153190002Y-63132197D01*
X153190001Y-63132204D01*
X153179500Y-63234988D01*
X153179500Y-64585006D01*
X153190001Y-64687800D01*
X153235493Y-64825084D01*
X153245186Y-64854334D01*
X153274342Y-64901603D01*
X153324812Y-64983430D01*
X153337288Y-65003656D01*
X153461344Y-65127712D01*
X153561219Y-65189315D01*
X153632369Y-65255470D01*
X153672788Y-65343818D01*
X153679500Y-65401243D01*
X153679500Y-69828125D01*
X153660546Y-69923413D01*
X153606570Y-70004195D01*
X151884195Y-71726570D01*
X151803413Y-71780546D01*
X151708125Y-71799500D01*
X150809239Y-71799500D01*
X150706559Y-71809990D01*
X150706558Y-71809990D01*
X150540211Y-71865112D01*
X150540209Y-71865113D01*
X150391046Y-71957118D01*
X150267118Y-72081046D01*
X150175113Y-72230209D01*
X150170306Y-72240516D01*
X150169258Y-72245788D01*
X150147202Y-72278797D01*
X150127608Y-72313312D01*
X150120377Y-72318944D01*
X150115282Y-72326570D01*
X150082271Y-72348626D01*
X150050962Y-72373015D01*
X150042123Y-72375452D01*
X150034500Y-72380546D01*
X149995569Y-72388289D01*
X149957303Y-72398842D01*
X149939212Y-72399500D01*
X149756897Y-72399500D01*
X149661609Y-72380546D01*
X149580827Y-72326570D01*
X149526851Y-72245788D01*
X149520536Y-72228822D01*
X149464815Y-72060668D01*
X149462288Y-72056570D01*
X149372712Y-71911344D01*
X149367080Y-71905712D01*
X149313107Y-71824934D01*
X149294153Y-71729646D01*
X149313107Y-71634358D01*
X149367083Y-71553576D01*
X149367095Y-71553565D01*
X149372317Y-71548343D01*
X149372318Y-71548341D01*
X149464358Y-71399121D01*
X149464359Y-71399120D01*
X149519504Y-71232701D01*
X149519505Y-71232694D01*
X149529999Y-71129981D01*
X149530000Y-71129971D01*
X149530000Y-70980001D01*
X149529999Y-70980000D01*
X147130002Y-70980000D01*
X147130001Y-70980001D01*
X147130001Y-71129984D01*
X147140494Y-71232699D01*
X147140495Y-71232702D01*
X147195640Y-71399119D01*
X147195641Y-71399121D01*
X147287681Y-71548341D01*
X147287684Y-71548345D01*
X147292915Y-71553576D01*
X147346891Y-71634358D01*
X147365845Y-71729646D01*
X147346891Y-71824934D01*
X147322428Y-71870134D01*
X147309327Y-71889304D01*
X147287288Y-71911344D01*
X147222619Y-72016188D01*
X147219340Y-72020988D01*
X147188711Y-72050983D01*
X147159530Y-72082369D01*
X147154153Y-72084828D01*
X147149928Y-72088967D01*
X147110155Y-72104957D01*
X147071182Y-72122788D01*
X147063604Y-72123673D01*
X147059786Y-72125209D01*
X147051232Y-72125119D01*
X147013757Y-72129500D01*
X144937221Y-72129500D01*
X144841933Y-72110546D01*
X144761151Y-72056570D01*
X144707175Y-71975788D01*
X144700858Y-71958817D01*
X144699814Y-71955666D01*
X144685069Y-71931760D01*
X144607712Y-71806344D01*
X144522434Y-71721066D01*
X144468461Y-71640288D01*
X144449507Y-71545000D01*
X144468461Y-71449712D01*
X144522434Y-71368933D01*
X144582712Y-71308656D01*
X144674814Y-71159334D01*
X144729999Y-70992797D01*
X144740500Y-70890009D01*
X144740499Y-70330018D01*
X147130000Y-70330018D01*
X147130000Y-70479999D01*
X147130001Y-70480000D01*
X148079999Y-70480000D01*
X148080000Y-70479999D01*
X148080000Y-69630001D01*
X148580000Y-69630001D01*
X148580000Y-70479999D01*
X148580001Y-70480000D01*
X149529998Y-70480000D01*
X149529999Y-70479999D01*
X149529999Y-70330032D01*
X149529998Y-70330015D01*
X149519505Y-70227300D01*
X149519504Y-70227297D01*
X149464359Y-70060880D01*
X149464358Y-70060878D01*
X149372318Y-69911658D01*
X149372315Y-69911654D01*
X149248345Y-69787684D01*
X149248341Y-69787681D01*
X149099121Y-69695641D01*
X149099120Y-69695640D01*
X148932701Y-69640495D01*
X148932694Y-69640494D01*
X148829981Y-69630000D01*
X148580001Y-69630000D01*
X148580000Y-69630001D01*
X148080000Y-69630001D01*
X148080000Y-69630000D01*
X147830024Y-69630000D01*
X147727300Y-69640494D01*
X147727297Y-69640495D01*
X147560880Y-69695640D01*
X147560878Y-69695641D01*
X147411658Y-69787681D01*
X147411654Y-69787684D01*
X147287684Y-69911654D01*
X147287681Y-69911658D01*
X147195641Y-70060878D01*
X147195640Y-70060879D01*
X147140495Y-70227298D01*
X147140494Y-70227305D01*
X147130000Y-70330018D01*
X144740499Y-70330018D01*
X144740499Y-69889992D01*
X144729999Y-69787203D01*
X144726824Y-69777623D01*
X144685232Y-69652106D01*
X144684366Y-69645145D01*
X144681247Y-69638860D01*
X144678404Y-69597163D01*
X144673251Y-69555693D01*
X144675116Y-69548929D01*
X144674639Y-69541930D01*
X144687968Y-69502320D01*
X144699078Y-69462034D01*
X144703388Y-69456499D01*
X144705627Y-69449849D01*
X144720638Y-69434353D01*
X144758780Y-69385387D01*
X144769494Y-69376636D01*
X144779789Y-69368692D01*
X144878656Y-69307712D01*
X144945592Y-69240775D01*
X144958254Y-69231007D01*
X144987716Y-69216381D01*
X145015065Y-69198108D01*
X145030853Y-69194967D01*
X145045276Y-69187808D01*
X145078094Y-69185570D01*
X145110353Y-69179154D01*
X145126143Y-69182295D01*
X145142206Y-69181200D01*
X145173379Y-69191690D01*
X145205641Y-69198108D01*
X145219028Y-69207053D01*
X145234287Y-69212188D01*
X145259071Y-69233808D01*
X145286423Y-69252084D01*
X145341654Y-69307315D01*
X145341658Y-69307318D01*
X145490878Y-69399358D01*
X145490879Y-69399359D01*
X145657298Y-69454504D01*
X145657305Y-69454505D01*
X145760023Y-69464999D01*
X145897499Y-69464998D01*
X145897500Y-69464998D01*
X145897500Y-68490001D01*
X146397500Y-68490001D01*
X146397500Y-69464998D01*
X146397501Y-69464999D01*
X146534968Y-69464999D01*
X146534984Y-69464998D01*
X146637699Y-69454505D01*
X146637702Y-69454504D01*
X146804119Y-69399359D01*
X146804121Y-69399358D01*
X146953341Y-69307318D01*
X146953345Y-69307315D01*
X147077315Y-69183345D01*
X147077318Y-69183341D01*
X147169358Y-69034121D01*
X147169359Y-69034120D01*
X147224504Y-68867701D01*
X147224505Y-68867694D01*
X147234999Y-68764981D01*
X147235000Y-68764971D01*
X147235000Y-68490001D01*
X147234999Y-68490000D01*
X146397501Y-68490000D01*
X146397500Y-68490001D01*
X145897500Y-68490001D01*
X145897500Y-67015001D01*
X146397500Y-67015001D01*
X146397500Y-67989999D01*
X146397501Y-67990000D01*
X147234998Y-67990000D01*
X147234999Y-67989999D01*
X147234999Y-67715032D01*
X147234998Y-67715015D01*
X147224505Y-67612300D01*
X147224504Y-67612297D01*
X147169359Y-67445880D01*
X147169358Y-67445878D01*
X147077318Y-67296658D01*
X147077315Y-67296654D01*
X146953345Y-67172684D01*
X146953341Y-67172681D01*
X146804121Y-67080641D01*
X146804120Y-67080640D01*
X146637701Y-67025495D01*
X146637694Y-67025494D01*
X146534981Y-67015000D01*
X146397501Y-67015000D01*
X146397500Y-67015001D01*
X145897500Y-67015001D01*
X145897500Y-67014999D01*
X145760024Y-67015000D01*
X145657300Y-67025494D01*
X145657297Y-67025495D01*
X145490880Y-67080640D01*
X145490878Y-67080641D01*
X145341658Y-67172681D01*
X145341654Y-67172684D01*
X145286423Y-67227916D01*
X145205641Y-67281892D01*
X145110353Y-67300846D01*
X145015065Y-67281892D01*
X144934286Y-67227918D01*
X144878656Y-67172288D01*
X144729334Y-67080186D01*
X144729332Y-67080185D01*
X144729330Y-67080184D01*
X144729332Y-67080184D01*
X144562802Y-67025002D01*
X144562798Y-67025001D01*
X144562797Y-67025001D01*
X144460009Y-67014500D01*
X144460005Y-67014500D01*
X143684993Y-67014500D01*
X143582199Y-67025001D01*
X143415667Y-67080185D01*
X143266346Y-67172286D01*
X143142286Y-67296346D01*
X143096106Y-67371218D01*
X143029950Y-67442369D01*
X142941602Y-67482788D01*
X142884177Y-67489500D01*
X141936074Y-67489500D01*
X141907244Y-67495234D01*
X141907245Y-67495235D01*
X141791090Y-67518340D01*
X141711081Y-67551479D01*
X141711082Y-67551480D01*
X141654503Y-67574916D01*
X141599940Y-67611374D01*
X141599934Y-67611378D01*
X141587780Y-67619500D01*
X141531585Y-67657048D01*
X141445334Y-67743297D01*
X141437840Y-67749692D01*
X141403897Y-67768680D01*
X141381110Y-67783906D01*
X141381609Y-67784839D01*
X141372141Y-67789899D01*
X141371517Y-67790317D01*
X141370824Y-67790603D01*
X141239714Y-67878208D01*
X141128208Y-67989714D01*
X141040607Y-68120818D01*
X141011441Y-68191230D01*
X140988438Y-68234266D01*
X140974917Y-68254502D01*
X140974916Y-68254505D01*
X140918341Y-68391089D01*
X140889500Y-68536079D01*
X140889500Y-69175992D01*
X140870546Y-69271280D01*
X140816570Y-69352061D01*
X140697288Y-69471343D01*
X140605184Y-69620668D01*
X140550002Y-69787197D01*
X140550001Y-69787204D01*
X140539500Y-69889988D01*
X140539500Y-69907675D01*
X140520546Y-70002963D01*
X140466570Y-70083745D01*
X140385788Y-70137721D01*
X140290500Y-70156675D01*
X140195212Y-70137721D01*
X140114430Y-70083745D01*
X140060454Y-70002963D01*
X140053687Y-69984621D01*
X140029758Y-69910977D01*
X140029757Y-69910974D01*
X139936860Y-69728652D01*
X139904474Y-69684078D01*
X139225000Y-70363552D01*
X139225000Y-70357339D01*
X139197741Y-70255606D01*
X139145080Y-70164394D01*
X139070606Y-70089920D01*
X138979394Y-70037259D01*
X138877661Y-70010000D01*
X138871445Y-70010000D01*
X139550920Y-69330524D01*
X139550920Y-69330523D01*
X139506350Y-69298140D01*
X139324025Y-69205242D01*
X139324019Y-69205240D01*
X139129413Y-69142009D01*
X138927323Y-69110001D01*
X138927308Y-69110000D01*
X138722692Y-69110000D01*
X138722676Y-69110001D01*
X138520586Y-69142009D01*
X138325980Y-69205240D01*
X138325974Y-69205242D01*
X138143647Y-69298142D01*
X138099078Y-69330523D01*
X138778555Y-70010000D01*
X138772339Y-70010000D01*
X138670606Y-70037259D01*
X138579394Y-70089920D01*
X138504920Y-70164394D01*
X138452259Y-70255606D01*
X138425000Y-70357339D01*
X138425000Y-70363555D01*
X137745523Y-69684078D01*
X137713142Y-69728647D01*
X137620242Y-69910974D01*
X137620240Y-69910980D01*
X137557009Y-70105586D01*
X137525001Y-70307676D01*
X137525000Y-70307692D01*
X137525000Y-70512307D01*
X137525001Y-70512323D01*
X137557009Y-70714413D01*
X137620240Y-70909019D01*
X137620242Y-70909025D01*
X137713140Y-71091350D01*
X137745523Y-71135920D01*
X137745524Y-71135920D01*
X138425000Y-70456444D01*
X138425000Y-70462661D01*
X138452259Y-70564394D01*
X138504920Y-70655606D01*
X138579394Y-70730080D01*
X138670606Y-70782741D01*
X138772339Y-70810000D01*
X138778554Y-70810000D01*
X138099078Y-71489474D01*
X138099550Y-71495475D01*
X138149573Y-71549591D01*
X138183199Y-71640741D01*
X138179384Y-71737821D01*
X138138708Y-71826052D01*
X138083623Y-71881135D01*
X138057613Y-71900033D01*
X137977779Y-71958035D01*
X137833035Y-72102779D01*
X137712711Y-72268392D01*
X137619782Y-72450775D01*
X137619778Y-72450785D01*
X137556522Y-72645468D01*
X137524500Y-72847638D01*
X137524500Y-73052361D01*
X137556522Y-73254531D01*
X137619778Y-73449214D01*
X137619782Y-73449224D01*
X137709653Y-73625605D01*
X137712713Y-73631610D01*
X137830479Y-73793703D01*
X137833035Y-73797220D01*
X137977781Y-73941966D01*
X137977785Y-73941969D01*
X138083196Y-74018555D01*
X138149145Y-74089898D01*
X138182772Y-74181048D01*
X138178958Y-74278128D01*
X138138283Y-74366358D01*
X138083196Y-74421445D01*
X137977785Y-74498030D01*
X137977781Y-74498033D01*
X137833035Y-74642779D01*
X137750957Y-74755751D01*
X137733491Y-74779792D01*
X137712711Y-74808393D01*
X137687409Y-74858049D01*
X137627260Y-74934345D01*
X137542491Y-74981816D01*
X137446010Y-74993233D01*
X137352503Y-74966859D01*
X137276207Y-74906710D01*
X137228736Y-74821941D01*
X137219224Y-74781384D01*
X136812101Y-72024234D01*
X136809553Y-71995619D01*
X136607587Y-65494246D01*
X136623573Y-65398420D01*
X136675015Y-65316001D01*
X136754082Y-65259543D01*
X136844060Y-65237828D01*
X140410000Y-65060000D01*
X140413070Y-64854332D01*
X140430985Y-63654043D01*
X140449523Y-62411951D01*
X141327349Y-62411951D01*
X141327349Y-62648048D01*
X141327350Y-62648063D01*
X141364283Y-62881247D01*
X141437242Y-63105795D01*
X141544437Y-63316176D01*
X141604688Y-63399105D01*
X142344385Y-62659407D01*
X142361424Y-62722993D01*
X142427250Y-62837007D01*
X142520342Y-62930099D01*
X142634356Y-62995925D01*
X142697938Y-63012962D01*
X141958242Y-63752659D01*
X142041172Y-63812911D01*
X142251553Y-63920106D01*
X142476101Y-63993065D01*
X142709285Y-64029998D01*
X142709300Y-64030000D01*
X142945398Y-64030000D01*
X142945412Y-64029998D01*
X143178596Y-63993065D01*
X143403144Y-63920106D01*
X143613526Y-63812910D01*
X143696454Y-63752659D01*
X142956757Y-63012962D01*
X143020342Y-62995925D01*
X143134356Y-62930099D01*
X143227448Y-62837007D01*
X143293274Y-62722993D01*
X143310311Y-62659408D01*
X144050008Y-63399105D01*
X144110259Y-63316177D01*
X144217455Y-63105795D01*
X144290414Y-62881247D01*
X144327347Y-62648063D01*
X144327349Y-62648048D01*
X144327349Y-62411951D01*
X144327347Y-62411936D01*
X144290414Y-62178752D01*
X144217455Y-61954204D01*
X144110260Y-61743823D01*
X144050008Y-61660893D01*
X143310311Y-62400589D01*
X143293274Y-62337007D01*
X143227448Y-62222993D01*
X143134356Y-62129901D01*
X143020342Y-62064075D01*
X142956756Y-62047036D01*
X143696454Y-61307339D01*
X143613525Y-61247088D01*
X143403144Y-61139893D01*
X143178596Y-61066934D01*
X142945412Y-61030001D01*
X142945398Y-61030000D01*
X142709300Y-61030000D01*
X142709285Y-61030001D01*
X142476101Y-61066934D01*
X142251553Y-61139894D01*
X142251548Y-61139896D01*
X142041182Y-61247082D01*
X141958243Y-61307340D01*
X142697940Y-62047037D01*
X142634356Y-62064075D01*
X142520342Y-62129901D01*
X142427250Y-62222993D01*
X142361424Y-62337007D01*
X142344386Y-62400591D01*
X141604689Y-61660894D01*
X141544431Y-61743833D01*
X141437245Y-61954199D01*
X141437243Y-61954204D01*
X141364283Y-62178752D01*
X141327350Y-62411936D01*
X141327349Y-62411951D01*
X140449523Y-62411951D01*
X140449725Y-62398448D01*
X140464649Y-61398524D01*
X140490000Y-59700000D01*
X140490000Y-59699999D01*
X135161453Y-59752497D01*
X135065983Y-59734483D01*
X134984674Y-59681305D01*
X134929904Y-59601059D01*
X134910012Y-59505962D01*
X134910000Y-59503509D01*
X134910000Y-59480001D01*
X134909999Y-59480000D01*
X132510002Y-59480000D01*
X132510001Y-59480001D01*
X132510001Y-59532061D01*
X132491047Y-59627349D01*
X132437071Y-59708131D01*
X132356289Y-59762107D01*
X132263454Y-59781049D01*
X124250000Y-59860000D01*
X124253478Y-63123357D01*
X124253451Y-63123489D01*
X124253478Y-63123622D01*
X124244011Y-63171213D01*
X124234625Y-63218665D01*
X124234550Y-63218776D01*
X124234524Y-63218910D01*
X124207394Y-63259513D01*
X124180735Y-63299504D01*
X124180623Y-63299578D01*
X124180548Y-63299692D01*
X124139935Y-63326827D01*
X124100011Y-63353566D01*
X124099879Y-63353592D01*
X124099766Y-63353668D01*
X124052127Y-63363143D01*
X124004743Y-63372622D01*
X124004610Y-63372595D01*
X124004478Y-63372622D01*
X123956886Y-63363155D01*
X123909435Y-63353769D01*
X123909323Y-63353694D01*
X123909190Y-63353668D01*
X123868586Y-63326538D01*
X123828596Y-63299879D01*
X123828408Y-63299692D01*
X123610778Y-63082062D01*
X123556802Y-63001280D01*
X123537848Y-62905992D01*
X123537848Y-61522134D01*
X123537848Y-61522128D01*
X123531440Y-61462517D01*
X123481145Y-61327669D01*
X123394895Y-61212454D01*
X123279680Y-61126204D01*
X123199466Y-61096286D01*
X123144830Y-61075908D01*
X123085222Y-61069500D01*
X120989483Y-61069500D01*
X120989479Y-61069500D01*
X120989477Y-61069501D01*
X120976663Y-61070878D01*
X120929868Y-61075908D01*
X120929864Y-61075909D01*
X120795019Y-61126203D01*
X120679804Y-61212453D01*
X120679802Y-61212455D01*
X120593553Y-61327669D01*
X120543257Y-61462518D01*
X120536849Y-61522123D01*
X120536849Y-62905992D01*
X120517895Y-63001280D01*
X120463919Y-63082061D01*
X120209412Y-63336569D01*
X120128631Y-63390546D01*
X120033342Y-63409500D01*
X117769499Y-63409500D01*
X117674211Y-63390546D01*
X117593429Y-63336570D01*
X117539453Y-63255788D01*
X117520499Y-63160500D01*
X117520499Y-63112134D01*
X117520499Y-63112128D01*
X117514091Y-63052517D01*
X117463796Y-62917669D01*
X117377546Y-62802454D01*
X117262331Y-62716204D01*
X117182117Y-62686286D01*
X117127481Y-62665908D01*
X117067873Y-62659500D01*
X114972134Y-62659500D01*
X114972130Y-62659500D01*
X114972128Y-62659501D01*
X114959314Y-62660878D01*
X114912519Y-62665908D01*
X114912515Y-62665909D01*
X114777670Y-62716203D01*
X114662455Y-62802453D01*
X114662453Y-62802455D01*
X114576204Y-62917669D01*
X114525908Y-63052518D01*
X114519500Y-63112123D01*
X114519500Y-65207865D01*
X114519500Y-65207868D01*
X114519501Y-65207872D01*
X114520785Y-65219814D01*
X114525908Y-65267480D01*
X114525909Y-65267484D01*
X114540258Y-65305955D01*
X114576204Y-65402331D01*
X114662454Y-65517546D01*
X114777669Y-65603796D01*
X114912517Y-65654091D01*
X114972127Y-65660500D01*
X117067872Y-65660499D01*
X117127483Y-65654091D01*
X117262331Y-65603796D01*
X117377546Y-65517546D01*
X117463796Y-65402331D01*
X117514091Y-65267483D01*
X117520500Y-65207873D01*
X117520500Y-65159500D01*
X117539454Y-65064212D01*
X117593430Y-64983430D01*
X117674212Y-64929454D01*
X117769500Y-64910500D01*
X120521268Y-64910500D01*
X120521268Y-64910499D01*
X120666262Y-64881658D01*
X120802844Y-64825084D01*
X120862086Y-64785500D01*
X120925765Y-64742952D01*
X121525285Y-64143429D01*
X121606066Y-64089453D01*
X121701354Y-64070499D01*
X122373341Y-64070499D01*
X122468629Y-64089453D01*
X122549410Y-64143429D01*
X123066569Y-64660587D01*
X123120546Y-64741369D01*
X123139500Y-64836657D01*
X123139500Y-65486269D01*
X123168340Y-65631257D01*
X123168341Y-65631261D01*
X123168342Y-65631262D01*
X123193046Y-65690903D01*
X123212000Y-65786189D01*
X123212000Y-68013492D01*
X123193046Y-68108780D01*
X123139070Y-68189561D01*
X123032288Y-68296343D01*
X122940184Y-68445668D01*
X122885002Y-68612197D01*
X122885001Y-68612204D01*
X122874500Y-68714988D01*
X122874500Y-69163492D01*
X122865942Y-69206513D01*
X122859053Y-69249829D01*
X122856548Y-69253737D01*
X122855546Y-69258780D01*
X122808235Y-69332634D01*
X122804970Y-69336161D01*
X122687048Y-69454084D01*
X122675222Y-69471784D01*
X122606783Y-69574212D01*
X122604915Y-69577007D01*
X122604913Y-69577010D01*
X122548341Y-69713588D01*
X122519500Y-69858579D01*
X122519500Y-71687284D01*
X122515661Y-71706583D01*
X122516433Y-71726245D01*
X122506272Y-71753784D01*
X122500546Y-71782572D01*
X122489614Y-71798932D01*
X122482803Y-71817394D01*
X122462877Y-71838947D01*
X122446570Y-71863354D01*
X122416851Y-71888735D01*
X122408292Y-71894953D01*
X122320060Y-71935624D01*
X122222980Y-71939435D01*
X122131831Y-71905805D01*
X122062607Y-71842723D01*
X122059780Y-71838947D01*
X121987546Y-71742454D01*
X121872331Y-71656204D01*
X121779454Y-71621563D01*
X121737481Y-71605908D01*
X121677873Y-71599500D01*
X119782134Y-71599500D01*
X119782130Y-71599500D01*
X119782128Y-71599501D01*
X119769314Y-71600878D01*
X119722519Y-71605908D01*
X119722515Y-71605909D01*
X119587670Y-71656203D01*
X119472455Y-71742453D01*
X119472453Y-71742455D01*
X119386204Y-71857669D01*
X119335908Y-71992518D01*
X119329500Y-72052123D01*
X119329500Y-73947865D01*
X119329500Y-73947868D01*
X119329501Y-73947872D01*
X119330804Y-73959991D01*
X119335908Y-74007480D01*
X119335909Y-74007484D01*
X119386203Y-74142329D01*
X119386204Y-74142331D01*
X119472454Y-74257546D01*
X119587669Y-74343796D01*
X119722517Y-74394091D01*
X119782127Y-74400500D01*
X119880501Y-74400499D01*
X119975786Y-74419452D01*
X120056568Y-74473428D01*
X120110545Y-74554209D01*
X120129500Y-74649497D01*
X120129500Y-77382316D01*
X120110546Y-77477604D01*
X120087536Y-77520653D01*
X120020607Y-77620819D01*
X120020603Y-77620826D01*
X119960263Y-77766502D01*
X119960261Y-77766507D01*
X119929500Y-77921153D01*
X119929500Y-77921158D01*
X119929500Y-78078842D01*
X119959950Y-78231923D01*
X119959950Y-78329078D01*
X119922770Y-78418837D01*
X119854071Y-78487536D01*
X119764311Y-78524716D01*
X119715734Y-78529500D01*
X117294930Y-78529500D01*
X117199642Y-78510546D01*
X117118860Y-78456570D01*
X117064884Y-78375788D01*
X117045930Y-78280500D01*
X117064883Y-78185214D01*
X117069737Y-78173497D01*
X117100500Y-78018842D01*
X117100500Y-77861158D01*
X117081672Y-77766502D01*
X117069738Y-77706507D01*
X117069737Y-77706505D01*
X117069737Y-77706503D01*
X117009394Y-77560821D01*
X116961880Y-77489711D01*
X116952464Y-77475619D01*
X116915284Y-77385859D01*
X116910500Y-77337282D01*
X116910500Y-75390944D01*
X116899395Y-75349497D01*
X116899395Y-75349496D01*
X116884927Y-75295500D01*
X116869577Y-75238215D01*
X116828578Y-75167203D01*
X116790520Y-75101284D01*
X116678716Y-74989480D01*
X116678713Y-74989478D01*
X115590521Y-73901286D01*
X115590520Y-73901284D01*
X115478716Y-73789480D01*
X115465325Y-73781749D01*
X115398667Y-73743264D01*
X115398666Y-73743263D01*
X115361244Y-73721658D01*
X115341785Y-73710423D01*
X115189057Y-73669499D01*
X115030943Y-73669499D01*
X115030939Y-73669500D01*
X114670332Y-73669500D01*
X114575044Y-73650546D01*
X114494262Y-73596570D01*
X114440286Y-73515788D01*
X114421332Y-73420500D01*
X114440286Y-73325212D01*
X114451091Y-73299127D01*
X114490500Y-73101003D01*
X114490500Y-72898997D01*
X114451091Y-72700873D01*
X114439254Y-72672298D01*
X114420300Y-72577011D01*
X114436000Y-72489992D01*
X114483595Y-72362382D01*
X114483598Y-72362371D01*
X114489999Y-72302832D01*
X114490000Y-72302825D01*
X114490000Y-71980001D01*
X114489999Y-71980000D01*
X113618178Y-71980000D01*
X113569608Y-71975217D01*
X113566003Y-71974500D01*
X113566002Y-71974500D01*
X113559551Y-71973217D01*
X113536613Y-71963716D01*
X113540075Y-71960255D01*
X113589444Y-71874745D01*
X113615000Y-71779370D01*
X113615000Y-71680630D01*
X113589444Y-71585255D01*
X113540075Y-71499745D01*
X113535198Y-71494868D01*
X113559538Y-71484786D01*
X113608122Y-71480000D01*
X114489999Y-71480000D01*
X114490000Y-71479999D01*
X114490000Y-71157175D01*
X114489999Y-71157167D01*
X114483598Y-71097628D01*
X114483596Y-71097621D01*
X114433353Y-70962912D01*
X114347189Y-70847812D01*
X114347187Y-70847810D01*
X114232087Y-70761646D01*
X114097378Y-70711403D01*
X114097371Y-70711401D01*
X114037832Y-70705000D01*
X113490001Y-70705000D01*
X113490000Y-70705001D01*
X113490000Y-71449670D01*
X113470255Y-71429925D01*
X113384745Y-71380556D01*
X113289370Y-71355000D01*
X113190630Y-71355000D01*
X113095255Y-71380556D01*
X113009745Y-71429925D01*
X112990000Y-71449670D01*
X112990000Y-70705001D01*
X112989999Y-70705000D01*
X112442167Y-70705000D01*
X112382628Y-70711401D01*
X112382621Y-70711403D01*
X112247912Y-70761646D01*
X112132812Y-70847810D01*
X112132810Y-70847812D01*
X112046646Y-70962912D01*
X111996403Y-71097621D01*
X111996401Y-71097628D01*
X111990000Y-71157167D01*
X111990000Y-71479999D01*
X111990001Y-71480000D01*
X112869928Y-71480000D01*
X112961089Y-71478580D01*
X112939925Y-71499745D01*
X112890556Y-71585255D01*
X112865000Y-71680630D01*
X112865000Y-71779370D01*
X112890556Y-71874745D01*
X112939925Y-71960255D01*
X112954170Y-71974500D01*
X112913997Y-71974500D01*
X112898320Y-71977618D01*
X112883691Y-71977846D01*
X112861822Y-71980000D01*
X111990001Y-71980000D01*
X111982457Y-71987543D01*
X111971046Y-72044913D01*
X111917070Y-72125695D01*
X111836288Y-72179671D01*
X111741000Y-72198625D01*
X111645712Y-72179671D01*
X111564930Y-72125695D01*
X111423430Y-71984195D01*
X111369454Y-71903413D01*
X111350500Y-71808125D01*
X111350500Y-69936243D01*
X111369454Y-69840955D01*
X111423430Y-69760173D01*
X111468779Y-69724315D01*
X111568656Y-69662712D01*
X111692712Y-69538656D01*
X111784814Y-69389334D01*
X111839999Y-69222797D01*
X111850500Y-69120009D01*
X111850499Y-68119992D01*
X111839999Y-68017203D01*
X111838769Y-68013492D01*
X111808494Y-67922127D01*
X111784814Y-67850666D01*
X111692712Y-67701344D01*
X111568656Y-67577288D01*
X111564810Y-67574916D01*
X111485835Y-67526204D01*
X111419334Y-67485186D01*
X111419332Y-67485185D01*
X111419330Y-67485184D01*
X111419332Y-67485184D01*
X111252802Y-67430002D01*
X111252798Y-67430001D01*
X111252797Y-67430001D01*
X111150009Y-67419500D01*
X111150005Y-67419500D01*
X110349993Y-67419500D01*
X110247199Y-67430001D01*
X110080667Y-67485185D01*
X109931346Y-67577286D01*
X109931344Y-67577287D01*
X109931344Y-67577288D01*
X109926066Y-67582565D01*
X109845288Y-67636539D01*
X109750000Y-67655493D01*
X109654712Y-67636539D01*
X109573933Y-67582565D01*
X109568656Y-67577288D01*
X109564810Y-67574916D01*
X109485835Y-67526204D01*
X109419334Y-67485186D01*
X109419332Y-67485185D01*
X109419330Y-67485184D01*
X109419332Y-67485184D01*
X109252802Y-67430002D01*
X109252798Y-67430001D01*
X109252797Y-67430001D01*
X109150009Y-67419500D01*
X109150005Y-67419500D01*
X108349993Y-67419500D01*
X108247199Y-67430001D01*
X108080667Y-67485185D01*
X107931346Y-67577286D01*
X107807286Y-67701346D01*
X107715184Y-67850668D01*
X107660001Y-68017200D01*
X107658839Y-68022631D01*
X107656093Y-68028996D01*
X107655725Y-68030107D01*
X107655627Y-68030074D01*
X107649836Y-68043499D01*
X107645403Y-68065788D01*
X107630780Y-68087673D01*
X107620355Y-68111839D01*
X107604054Y-68127671D01*
X107591427Y-68146570D01*
X107569540Y-68161194D01*
X107550662Y-68179530D01*
X107529541Y-68187919D01*
X107510645Y-68200546D01*
X107484830Y-68205680D01*
X107460371Y-68215397D01*
X107415357Y-68219500D01*
X107279499Y-68219500D01*
X107184211Y-68200546D01*
X107103429Y-68146570D01*
X107049453Y-68065788D01*
X107030499Y-67970500D01*
X107030499Y-67922134D01*
X107030499Y-67922128D01*
X107024091Y-67862517D01*
X106973796Y-67727669D01*
X106887546Y-67612454D01*
X106772331Y-67526204D01*
X106689296Y-67495234D01*
X106637481Y-67475908D01*
X106577873Y-67469500D01*
X104782134Y-67469500D01*
X104782130Y-67469500D01*
X104782128Y-67469501D01*
X104769314Y-67470878D01*
X104722519Y-67475908D01*
X104722515Y-67475909D01*
X104587670Y-67526203D01*
X104472455Y-67612453D01*
X104472453Y-67612455D01*
X104386204Y-67727669D01*
X104335908Y-67862518D01*
X104329500Y-67922123D01*
X97500500Y-67922123D01*
X97500500Y-64410001D01*
X110020000Y-64410001D01*
X110020000Y-65207832D01*
X110026401Y-65267371D01*
X110026403Y-65267378D01*
X110076646Y-65402087D01*
X110162810Y-65517187D01*
X110162812Y-65517189D01*
X110277912Y-65603353D01*
X110412621Y-65653596D01*
X110412628Y-65653598D01*
X110472167Y-65659999D01*
X110472175Y-65660000D01*
X111269999Y-65660000D01*
X111270000Y-65659999D01*
X111270000Y-64410001D01*
X111770000Y-64410001D01*
X111770000Y-65659999D01*
X111770001Y-65660000D01*
X112567825Y-65660000D01*
X112567832Y-65659999D01*
X112627371Y-65653598D01*
X112627378Y-65653596D01*
X112762087Y-65603353D01*
X112877187Y-65517189D01*
X112877189Y-65517187D01*
X112963353Y-65402087D01*
X113013596Y-65267378D01*
X113013598Y-65267371D01*
X113019999Y-65207832D01*
X113020000Y-65207825D01*
X113020000Y-64410001D01*
X113019999Y-64410000D01*
X111770001Y-64410000D01*
X111770000Y-64410001D01*
X111270000Y-64410001D01*
X111269999Y-64410000D01*
X110020001Y-64410000D01*
X110020000Y-64410001D01*
X97500500Y-64410001D01*
X97500500Y-63112167D01*
X110020000Y-63112167D01*
X110020000Y-63909999D01*
X110020001Y-63910000D01*
X111269999Y-63910000D01*
X111270000Y-63909999D01*
X111270000Y-62660001D01*
X111770000Y-62660001D01*
X111770000Y-63909999D01*
X111770001Y-63910000D01*
X113019999Y-63910000D01*
X113020000Y-63909999D01*
X113020000Y-63112175D01*
X113019999Y-63112167D01*
X113013598Y-63052628D01*
X113013596Y-63052621D01*
X112963353Y-62917912D01*
X112877189Y-62802812D01*
X112877187Y-62802810D01*
X112762087Y-62716646D01*
X112627378Y-62666403D01*
X112627371Y-62666401D01*
X112567832Y-62660000D01*
X111770001Y-62660000D01*
X111770000Y-62660001D01*
X111270000Y-62660001D01*
X111269999Y-62660000D01*
X110472167Y-62660000D01*
X110412628Y-62666401D01*
X110412621Y-62666403D01*
X110277912Y-62716646D01*
X110162812Y-62802810D01*
X110162810Y-62802812D01*
X110076646Y-62917912D01*
X110026403Y-63052621D01*
X110026401Y-63052628D01*
X110020000Y-63112167D01*
X97500500Y-63112167D01*
X97500500Y-58830018D01*
X132510000Y-58830018D01*
X132510000Y-58979999D01*
X132510001Y-58980000D01*
X133459999Y-58980000D01*
X133460000Y-58979999D01*
X133460000Y-58130001D01*
X133960000Y-58130001D01*
X133960000Y-58979999D01*
X133960001Y-58980000D01*
X134909998Y-58980000D01*
X134909999Y-58979999D01*
X134909999Y-58830032D01*
X134909998Y-58830015D01*
X134899505Y-58727300D01*
X134899504Y-58727297D01*
X134844359Y-58560880D01*
X134844358Y-58560878D01*
X134752318Y-58411658D01*
X134752315Y-58411654D01*
X134628345Y-58287684D01*
X134628341Y-58287681D01*
X134479121Y-58195641D01*
X134479120Y-58195640D01*
X134312701Y-58140495D01*
X134312694Y-58140494D01*
X134209981Y-58130000D01*
X133960001Y-58130000D01*
X133960000Y-58130001D01*
X133460000Y-58130001D01*
X133460000Y-58130000D01*
X133210024Y-58130000D01*
X133107300Y-58140494D01*
X133107297Y-58140495D01*
X132940880Y-58195640D01*
X132940878Y-58195641D01*
X132791658Y-58287681D01*
X132791654Y-58287684D01*
X132667684Y-58411654D01*
X132667681Y-58411658D01*
X132575641Y-58560878D01*
X132575640Y-58560879D01*
X132520495Y-58727298D01*
X132520494Y-58727305D01*
X132510000Y-58830018D01*
X97500500Y-58830018D01*
X97500500Y-57749500D01*
X97519454Y-57654212D01*
X97573430Y-57573430D01*
X97654212Y-57519454D01*
X97749500Y-57500500D01*
X170250500Y-57500500D01*
X170345788Y-57519454D01*
G37*
%TD.AperFunction*%
%TD*%
M02*
