M48
; DRILL file {KiCad 9.0.1} date 2025-10-23T13:45:12-0600
; FORMAT={-:-/ absolute / metric / decimal}
; #@! TF.CreationDate,2025-10-23T13:45:12-06:00
; #@! TF.GenerationSoftware,Kicad,Pcbnew,9.0.1
; #@! TF.FileFunction,Plated,1,2,PTH
FMAT,2
METRIC
; #@! TA.AperFunction,Plated,PTH,ViaDrill
T1C0.300
; #@! TA.AperFunction,Plated,PTH,ComponentDrill
T2C0.700
; #@! TA.AperFunction,Plated,PTH,ComponentDrill
T3C0.750
; #@! TA.AperFunction,Plated,PTH,ComponentDrill
T4C0.800
; #@! TA.AperFunction,Plated,PTH,ComponentDrill
T5C0.900
; #@! TA.AperFunction,Plated,PTH,ComponentDrill
T6C1.000
%
G90
G05
T1
X98.171Y-58.03
X98.171Y-65.44
X98.171Y-80.34
X98.171Y-87.9
X101.92Y-61.58
X102.71Y-74.44
X102.9Y-83.34
X103.46Y-70.3
X104.32Y-58.03
X105.24Y-87.9
X107.8Y-72.72
X108.9Y-64.11
X109.22Y-83.06
X109.49Y-70.49
X110.11Y-74.91
X111.5Y-66.18
X111.59Y-77.82
X113.29Y-69.93
X113.41Y-83.15
X113.43Y-80.54
X113.65Y-64.15
X114.58Y-58.03
X114.61Y-75.3
X114.68Y-77.79
X115.5Y-87.9
X115.64Y-71.81
X115.94Y-66.76
X116.3Y-77.94
X117.05Y-81.4
X117.73Y-77.88
X118.19Y-73.06
X119.12Y-81.71
X119.4Y-77.88
X120.68Y-69.89
X120.73Y-78.0
X122.21Y-65.13
X122.42Y-77.77
X122.67Y-60.49
X124.25Y-58.03
X125.17Y-87.9
X125.49Y-71.62
X126.93Y-81.49
X127.18Y-72.89
X127.25Y-70.94
X127.42Y-67.65
X128.8Y-78.7
X129.12Y-68.27
X131.26Y-84.16
X131.75Y-58.22
X133.03Y-79.95
X133.36Y-64.12
X133.38Y-63.39
X133.43Y-87.9
X136.63Y-83.55
X137.44Y-65.83
X137.44Y-71.58
X137.46Y-68.77
X137.51Y-74.25
X139.59Y-67.14
X140.19Y-71.54
X140.28Y-74.13
X140.3Y-69.09
X141.32Y-58.03
X141.75Y-68.5
X141.85Y-84.14
X142.24Y-87.9
X142.6Y-74.27
X142.76Y-64.95
X142.78Y-60.73
X144.92Y-74.28
X145.04Y-71.6
X145.04Y-81.84
X145.34Y-69.91
X146.53Y-79.58
X146.76Y-71.67
X148.11Y-74.37
X148.12Y-78.71
X148.25Y-68.16
X148.28Y-82.65
X149.11Y-63.61
X151.58Y-58.03
X152.5Y-87.9
X154.53Y-80.63
X156.29Y-65.99
X156.51Y-75.06
X159.34Y-63.83
X159.54Y-82.81
X161.11Y-72.99
X161.25Y-58.03
X162.17Y-87.9
X164.31Y-77.55
X164.48Y-67.352
X165.02Y-61.65
X169.8Y-58.03
X169.8Y-65.77
X169.8Y-80.67
X169.8Y-87.9
T2
X151.46Y-73.0
X156.54Y-73.0
T3
X113.24Y-71.73
X113.24Y-73.0
X113.24Y-74.27
X154.28Y-63.91
X156.28Y-63.91
T4
X131.205Y-70.41
X131.205Y-72.95
X131.205Y-75.49
X131.205Y-78.03
X138.825Y-70.41
X138.825Y-72.95
X138.825Y-75.49
X138.825Y-78.03
T5
X120.73Y-73.0
X123.27Y-73.0
T6
X105.68Y-68.82
X105.68Y-71.36
X105.68Y-73.9
X105.68Y-76.44
X122.037Y-62.57
X122.97Y-81.665
X122.97Y-84.205
X127.037Y-62.57
X137.827Y-62.53
X142.827Y-62.53
M30
